<svg xmlns="http://www.w3.org/2000/svg" viewBox="0 0 820 546.67" width="820" height="546.67" font-family="sans-serif"><rect x="0" y="0" width="820" height="546.67" fill="#f9f5ea"/><g id="cd-gumdrop-vale-sigma-5-5-the-gumdrop-hills"><polygon points="350.17,205 340.33,237.27 315.95,258.44 290.13,278.61 258.81,268.61 227.55,262.41 206.48,237.2 202.98,205 204.07,171.64 226.32,146.05 257.22,134.41 285.56,151.42 315.62,151.97 324.79,180.22" fill="#d9cba6" stroke="#aea285" stroke-width="1"/></g><g><polygon points="478.33,136.67 615,136.67 615,341.67 478.33,410" fill="#a9c79c" stroke="#879f7d" stroke-width="1"/></g><g><polyline points="68.33,68.33 139.91,115.12 208.36,166.35 278.77,215.17 341.67,273.33 445.37,304.05 549.64,332.74 651.21,369.92 751.67,410" fill="none" stroke="#7fa8cf" stroke-width="2" stroke-linejoin="round" stroke-linecap="round"/></g><g id="cd-gumdrop-vale-sigma-5-5-fondant-hollow"><circle cx="273.33" cy="273.33" r="3" fill="#3d3629" stroke="#fff" stroke-width="1"/></g><g><circle cx="683.33" cy="205" r="3" fill="#3d3629" stroke="#fff" stroke-width="1"/></g><g><circle cx="341.67" cy="273.33" r="3" fill="#3d3629" stroke="#fff" stroke-width="1"/></g><g><circle cx="546.67" cy="478.33" r="3" fill="#3d3629" stroke="#fff" stroke-width="1"/></g><text x="273.33" y="190.9" font-size="11" fill="#3d3629" opacity="0.8" text-anchor="middle" font-style="italic" font-family="sans-serif">The Gumdrop Hills</text><text x="267.33" y="277.33" font-size="10" font-weight="normal" fill="#3d3629" text-anchor="end" font-family="sans-serif">Fondant Hollow</text><text x="689.33" y="209" font-size="10" font-weight="normal" fill="#3d3629" text-anchor="start" font-family="sans-serif">sugar-silo</text><text x="347.67" y="277.33" font-size="10" font-weight="normal" fill="#3d3629" text-anchor="start" font-family="sans-serif">hovercart</text><text x="552.67" y="482.33" font-size="10" font-weight="normal" fill="#3d3629" text-anchor="start" font-family="sans-serif">zorbleflax</text><text x="14" y="22" font-size="16" font-weight="bold" fill="#3d3629" font-family="sans-serif">Gumdrop Vale, Sigma-5-5</text></svg>