<svg xmlns="http://www.w3.org/2000/svg" viewBox="0 0 820 546.67" width="820" height="546.67" font-family="sans-serif"><rect x="0" y="0" width="820" height="546.67" fill="#f9f5ea"/><g id="cd-gumdrop-vale-sigma-5-5-the-gumdrop-hills"><polygon points="346.2,205 347.83,211.61 348.78,218.93 348.9,226.44 348,233.63 345.93,239.96 342.35,245.61 337.37,250.91 331.5,255.63 325.22,259.51 319.05,262.32 312.81,263.48 306.18,263.15 299.4,262.2 292.7,261.47 286.31,261.84 280.2,264.05 274.21,267.52 268.39,271.14 262.81,273.79 257.51,274.35 252.51,272.27 247.8,268.31 243.32,263.27 239.02,257.98 234.87,253.23 230.69,249.15 226.52,245.18 222.6,241.16 219.18,236.94 216.52,232.36 214.94,227.4 214.27,222.17 214.02,216.69 213.72,210.97 212.88,205 210.86,198.5 207.98,191.46 205.21,184.33 203.51,177.54 203.86,171.54 206.78,166.41 211.62,161.85 217.6,157.74 223.93,153.97 229.8,150.41 235.27,146.72 240.85,142.97 246.49,139.68 252.14,137.41 257.74,136.67 263.2,138.25 268.57,141.78 273.96,146.11 279.5,150.07 285.32,152.5 291.84,152.58 299.01,151.07 306.13,149.22 312.56,148.27 317.62,149.46 320.79,153.38 322.49,159.2 323.55,166.03 324.74,173 326.86,179.22 330.4,184.48 334.81,189.38 339.4,194.22 343.43,199.32" fill="#d9cba6" stroke="#aea285" stroke-width="1"/><polygon points="338.2,205.03 339.86,210.92 340.92,217.49 341.2,224.26 340.54,230.76 338.73,236.47 335.47,241.53 330.89,246.22 325.49,250.34 319.75,253.68 314.11,256.03 308.4,256.81 302.32,256.14 296.17,254.87 290.21,253.87 284.65,254.02 279.4,256.09 274.22,259.52 269.11,263.17 264.13,265.9 259.4,266.57 254.99,264.66 250.9,260.94 247.09,256.22 243.47,251.33 239.95,247.05 236.33,243.47 232.66,240.05 229.17,236.6 226.12,232.96 223.77,228.96 222.44,224.61 221.97,220.01 221.88,215.21 221.68,210.22 220.88,205.04 218.81,199.35 215.81,193.1 212.86,186.65 210.96,180.46 211.07,175 213.71,170.4 218.2,166.4 223.73,162.88 229.53,159.68 234.84,156.63 239.71,153.38 244.64,150.01 249.62,147.05 254.63,145.01 259.62,144.45 264.51,146.14 269.29,149.75 274.01,154.11 278.76,158.03 283.68,160.33 289.32,160.17 295.69,158.35 302.18,156.18 308.1,154.92 312.72,155.78 315.45,159.34 316.71,164.73 317.29,171.02 318,177.31 319.7,182.78 322.9,187.27 327.08,191.41 331.51,195.56 335.46,200.01" fill="#d9cba6"/></g><g><polygon points="478.33,136.67 615,136.67 615,341.67 478.33,410" fill="#a9c79c" stroke="#879f7d" stroke-width="1"/><polygon points="482.3,143.61 611.03,143.61 610,335.42 481.58,402.69" fill="#a9c79c"/></g><g><polyline points="68.33,68.33 88.49,84.62 114.24,106.77 144.81,133.2 179.37,162.29 217.15,192.45 257.32,222.08 299.09,249.58 341.67,273.33 389.18,294.62 444.17,315.51 503.42,335.59 563.75,354.48 621.94,371.76 674.79,387.04 719.1,399.92 751.67,410" fill="none" stroke="#7fa8cf" stroke-width="2" stroke-linejoin="round" stroke-linecap="round"/></g><g id="cd-gumdrop-vale-sigma-5-5-fondant-hollow"><circle cx="273.33" cy="273.33" r="3" fill="#3d3629" stroke="#fff" stroke-width="1"/></g><g><circle cx="683.33" cy="205" r="3" fill="#3d3629" stroke="#fff" stroke-width="1"/></g><g><circle cx="341.67" cy="273.33" r="3" fill="#3d3629" stroke="#fff" stroke-width="1"/></g><g><circle cx="546.67" cy="478.33" r="3" fill="#3d3629" stroke="#fff" stroke-width="1"/></g><text x="273.33" y="190.9" font-size="11" fill="#3d3629" opacity="0.8" text-anchor="middle" font-style="italic" font-family="sans-serif">The Gumdrop Hills</text><text x="267.33" y="277.33" font-size="10" font-weight="normal" fill="#3d3629" text-anchor="end" font-family="sans-serif">Fondant Hollow</text><text x="689.33" y="209" font-size="10" font-weight="normal" fill="#3d3629" text-anchor="start" font-family="sans-serif">sugar-silo</text><text x="347.67" y="277.33" font-size="10" font-weight="normal" fill="#3d3629" text-anchor="start" font-family="sans-serif">hovercart</text><text x="552.67" y="482.33" font-size="10" font-weight="normal" fill="#3d3629" text-anchor="start" font-family="sans-serif">zorbleflax</text><text x="14" y="22" font-size="16" font-weight="bold" fill="#3d3629" font-family="sans-serif">Gumdrop Vale, Sigma-5-5</text></svg>