<svg xmlns="http://www.w3.org/2000/svg" viewBox="0 0 820 546.67" width="820" height="546.67" font-family="sans-serif"><rect x="0" y="0" width="820" height="546.67" fill="#fdf1f5"/><g id="cd-gumdrop-vale-sigma-5-5-the-gumdrop-hills"><polygon points="350.17,205 340.33,237.27 315.95,258.44 290.13,278.61 258.81,268.61 227.55,262.41 206.48,237.2 202.98,205 204.07,171.64 226.32,146.05 257.22,134.41 285.56,151.42 315.62,151.97 324.79,180.22" fill="#f2d4e0" stroke="#c2aab3" stroke-width="1"/><polygon points="342.17,205.13 333.04,233.97 310.78,252.33 288.17,270.85 260.45,260.78 232.51,256.13 213.71,233.78 210.98,205.15 211.19,175.28 231.15,152.44 258.82,142.25 283.62,159.18 310.6,158.21 317.62,183.75" fill="#e8b4c8"/></g><g><polygon points="478.33,136.67 615,136.67 615,341.67 478.33,410" fill="#a8d894" stroke="#86ad76" stroke-width="1"/><polygon points="482.3,143.61 611.03,143.61 610,335.42 481.58,402.69" fill="#a8d894"/><path d="M0,-3 a5,5 0 1,1 0.1,0 M0,-3 a2,2 0 1,0 0.1,0 M0,2 L0,10" transform="translate(480 150) scale(0.55)" fill="none" stroke="#5a3a48" stroke-width="1.6" vector-effect="non-scaling-stroke" stroke-linecap="round"/><path d="M0,-3 a5,5 0 1,1 0.1,0 M0,2 L0,10" transform="translate(508 155) scale(0.55)" fill="none" stroke="#5a3a48" stroke-width="1.6" vector-effect="non-scaling-stroke" stroke-linecap="round"/><path d="M0,-3 a5,5 0 1,1 0.1,0 M0,2 L0,10" transform="translate(538 145) scale(0.55)" fill="none" stroke="#5a3a48" stroke-width="1.6" vector-effect="non-scaling-stroke" stroke-linecap="round"/><path d="M0,-3 a5,5 0 1,1 0.1,0 M0,2 L0,10" transform="translate(564 147) scale(0.55)" fill="none" stroke="#5a3a48" stroke-width="1.6" vector-effect="non-scaling-stroke" stroke-linecap="round"/><path d="M0,-3 a5,5 0 1,1 0.1,0 M0,-3 a2,2 0 1,0 0.1,0 M0,2 L0,10" transform="translate(598 144) scale(0.55)" fill="none" stroke="#5a3a48" stroke-width="1.6" vector-effect="non-scaling-stroke" stroke-linecap="round"/><path d="M0,-3 a5,5 0 1,1 0.1,0 M0,2 L0,10" transform="translate(483 178) scale(0.55)" fill="none" stroke="#5a3a48" stroke-width="1.6" vector-effect="non-scaling-stroke" stroke-linecap="round"/><path d="M0,-3 a5,5 0 1,1 0.1,0 M0,-3 a2,2 0 1,0 0.1,0 M0,2 L0,10" transform="translate(510 186) scale(0.55)" fill="none" stroke="#5a3a48" stroke-width="1.6" vector-effect="non-scaling-stroke" stroke-linecap="round"/><path d="M0,-3 a5,5 0 1,1 0.1,0 M0,-3 a2,2 0 1,0 0.1,0 M0,2 L0,10" transform="translate(536 174) scale(0.55)" fill="none" stroke="#5a3a48" stroke-width="1.6" vector-effect="non-scaling-stroke" stroke-linecap="round"/><path d="M0,-3 a5,5 0 1,1 0.1,0 M0,-3 a2,2 0 1,0 0.1,0 M0,2 L0,10" transform="translate(566 178) scale(0.55)" fill="none" stroke="#5a3a48" stroke-width="1.6" vector-effect="non-scaling-stroke" stroke-linecap="round"/><path d="M0,-3 a5,5 0 1,1 0.1,0 M0,-3 a2,2 0 1,0 0.1,0 M0,2 L0,10" transform="translate(601 185) scale(0.55)" fill="none" stroke="#5a3a48" stroke-width="1.6" vector-effect="non-scaling-stroke" stroke-linecap="round"/><path d="M0,-3 a5,5 0 1,1 0.1,0 M0,-3 a2,2 0 1,0 0.1,0 M0,2 L0,10" transform="translate(506 206) scale(0.55)" fill="none" stroke="#5a3a48" stroke-width="1.6" vector-effect="non-scaling-stroke" stroke-linecap="round"/><path d="M0,-3 a5,5 0 1,1 0.1,0 M0,-3 a2,2 0 1,0 0.1,0 M0,2 L0,10" transform="translate(546 208) scale(0.55)" fill="none" stroke="#5a3a48" stroke-width="1.6" vector-effect="non-scaling-stroke" stroke-linecap="round"/><path d="M0,-3 a5,5 0 1,1 0.1,0 M0,2 L0,10" transform="translate(569 204) scale(0.55)" fill="none" stroke="#5a3a48" stroke-width="1.6" vector-effect="non-scaling-stroke" stroke-linecap="round"/><path d="M0,-3 a5,5 0 1,1 0.1,0 M0,2 L0,10" transform="translate(606 215) scale(0.55)" fill="none" stroke="#5a3a48" stroke-width="1.6" vector-effect="non-scaling-stroke" stroke-linecap="round"/><path d="M0,-3 a5,5 0 1,1 0.1,0 M0,2 L0,10" transform="translate(508 237) scale(0.55)" fill="none" stroke="#5a3a48" stroke-width="1.6" vector-effect="non-scaling-stroke" stroke-linecap="round"/><path d="M0,-3 a5,5 0 1,1 0.1,0 M0,2 L0,10" transform="translate(544 237) scale(0.55)" fill="none" stroke="#5a3a48" stroke-width="1.6" vector-effect="non-scaling-stroke" stroke-linecap="round"/><path d="M0,-3 a5,5 0 1,1 0.1,0 M0,2 L0,10" transform="translate(564 237) scale(0.55)" fill="none" stroke="#5a3a48" stroke-width="1.6" vector-effect="non-scaling-stroke" stroke-linecap="round"/><path d="M0,-3 a5,5 0 1,1 0.1,0 M0,2 L0,10" transform="translate(596 243) scale(0.55)" fill="none" stroke="#5a3a48" stroke-width="1.6" vector-effect="non-scaling-stroke" stroke-linecap="round"/><path d="M0,-3 a5,5 0 1,1 0.1,0 M0,-3 a2,2 0 1,0 0.1,0 M0,2 L0,10" transform="translate(510 268) scale(0.55)" fill="none" stroke="#5a3a48" stroke-width="1.6" vector-effect="non-scaling-stroke" stroke-linecap="round"/><path d="M0,-3 a5,5 0 1,1 0.1,0 M0,2 L0,10" transform="translate(536 273) scale(0.55)" fill="none" stroke="#5a3a48" stroke-width="1.6" vector-effect="non-scaling-stroke" stroke-linecap="round"/><path d="M0,-3 a5,5 0 1,1 0.1,0 M0,2 L0,10" transform="translate(564 269) scale(0.55)" fill="none" stroke="#5a3a48" stroke-width="1.6" vector-effect="non-scaling-stroke" stroke-linecap="round"/><path d="M0,-3 a5,5 0 1,1 0.1,0 M0,-3 a2,2 0 1,0 0.1,0 M0,2 L0,10" transform="translate(594 268) scale(0.55)" fill="none" stroke="#5a3a48" stroke-width="1.6" vector-effect="non-scaling-stroke" stroke-linecap="round"/><path d="M0,-3 a5,5 0 1,1 0.1,0 M0,-3 a2,2 0 1,0 0.1,0 M0,2 L0,10" transform="translate(481 305) scale(0.55)" fill="none" stroke="#5a3a48" stroke-width="1.6" vector-effect="non-scaling-stroke" stroke-linecap="round"/><path d="M0,-3 a5,5 0 1,1 0.1,0 M0,2 L0,10" transform="translate(512 299) scale(0.55)" fill="none" stroke="#5a3a48" stroke-width="1.6" vector-effect="non-scaling-stroke" stroke-linecap="round"/><path d="M0,-3 a5,5 0 1,1 0.1,0 M0,-3 a2,2 0 1,0 0.1,0 M0,2 L0,10" transform="translate(534 302) scale(0.55)" fill="none" stroke="#5a3a48" stroke-width="1.6" vector-effect="non-scaling-stroke" stroke-linecap="round"/><path d="M0,-3 a5,5 0 1,1 0.1,0 M0,-3 a2,2 0 1,0 0.1,0 M0,2 L0,10" transform="translate(566 300) scale(0.55)" fill="none" stroke="#5a3a48" stroke-width="1.6" vector-effect="non-scaling-stroke" stroke-linecap="round"/><path d="M0,-3 a5,5 0 1,1 0.1,0 M0,2 L0,10" transform="translate(597 296) scale(0.55)" fill="none" stroke="#5a3a48" stroke-width="1.6" vector-effect="non-scaling-stroke" stroke-linecap="round"/><path d="M0,-3 a5,5 0 1,1 0.1,0 M0,2 L0,10" transform="translate(486 335) scale(0.55)" fill="none" stroke="#5a3a48" stroke-width="1.6" vector-effect="non-scaling-stroke" stroke-linecap="round"/><path d="M0,-3 a5,5 0 1,1 0.1,0 M0,2 L0,10" transform="translate(515 330) scale(0.55)" fill="none" stroke="#5a3a48" stroke-width="1.6" vector-effect="non-scaling-stroke" stroke-linecap="round"/><path d="M0,-3 a5,5 0 1,1 0.1,0 M0,-3 a2,2 0 1,0 0.1,0 M0,2 L0,10" transform="translate(544 336) scale(0.55)" fill="none" stroke="#5a3a48" stroke-width="1.6" vector-effect="non-scaling-stroke" stroke-linecap="round"/><path d="M0,-3 a5,5 0 1,1 0.1,0 M0,2 L0,10" transform="translate(569 326) scale(0.55)" fill="none" stroke="#5a3a48" stroke-width="1.6" vector-effect="non-scaling-stroke" stroke-linecap="round"/><path d="M0,-3 a5,5 0 1,1 0.1,0 M0,-3 a2,2 0 1,0 0.1,0 M0,2 L0,10" transform="translate(602 326) scale(0.55)" fill="none" stroke="#5a3a48" stroke-width="1.6" vector-effect="non-scaling-stroke" stroke-linecap="round"/><path d="M0,-3 a5,5 0 1,1 0.1,0 M0,2 L0,10" transform="translate(504 361) scale(0.55)" fill="none" stroke="#5a3a48" stroke-width="1.6" vector-effect="non-scaling-stroke" stroke-linecap="round"/><path d="M0,-3 a5,5 0 1,1 0.1,0 M0,2 L0,10" transform="translate(542 365) scale(0.55)" fill="none" stroke="#5a3a48" stroke-width="1.6" vector-effect="non-scaling-stroke" stroke-linecap="round"/><path d="M0,-3 a5,5 0 1,1 0.1,0 M0,-3 a2,2 0 1,0 0.1,0 M0,2 L0,10" transform="translate(571 357) scale(0.55)" fill="none" stroke="#5a3a48" stroke-width="1.6" vector-effect="non-scaling-stroke" stroke-linecap="round"/><path d="M0,-3 a5,5 0 1,1 0.1,0 M0,2 L0,10" transform="translate(482 393) scale(0.55)" fill="none" stroke="#5a3a48" stroke-width="1.6" vector-effect="non-scaling-stroke" stroke-linecap="round"/><path d="M0,-3 a5,5 0 1,1 0.1,0 M0,-3 a2,2 0 1,0 0.1,0 M0,2 L0,10" transform="translate(506 392) scale(0.55)" fill="none" stroke="#5a3a48" stroke-width="1.6" vector-effect="non-scaling-stroke" stroke-linecap="round"/></g><g><polyline points="68.33,68.33 139.91,115.12 208.36,166.35 278.77,215.17 341.67,273.33 445.37,304.05 549.64,332.74 651.21,369.92 751.67,410" fill="none" stroke="#c9628f" stroke-width="10" stroke-linejoin="round" stroke-linecap="round"/><polyline points="68.33,68.33 139.91,115.12 208.36,166.35 278.77,215.17 341.67,273.33 445.37,304.05 549.64,332.74 651.21,369.92 751.67,410" fill="none" stroke="#e88ab0" stroke-width="2" stroke-linejoin="round" stroke-linecap="round"/></g><g id="cd-gumdrop-vale-sigma-5-5-fondant-hollow"><circle cx="273.33" cy="273.33" r="3" fill="#5a3a48" stroke="#fff" stroke-width="1"/></g><g><path d="M-5,9 L-5,-3 A5,7 0 0,1 5,-3 L5,9 Z M-5,1 L5,1" transform="translate(683.33 205) scale(0.7)" fill="none" stroke="#5a3a48" stroke-width="1.6" vector-effect="non-scaling-stroke" stroke-linecap="round"/></g><g><path d="M-8,2 L8,2 L6,-4 L-6,-4 Z M-5,5 a2,2 0 1,0 0.1,0 M5,5 a2,2 0 1,0 0.1,0" transform="translate(341.67 273.33) scale(0.7)" fill="none" stroke="#5a3a48" stroke-width="1.6" vector-effect="non-scaling-stroke" stroke-linecap="round"/></g><g><circle cx="546.67" cy="478.33" r="3" fill="#5a3a48" stroke="#fff" stroke-width="1"/></g><text x="273.33" y="190.9" font-size="11" fill="#5a3a48" opacity="0.8" text-anchor="middle" font-style="italic" font-family="sans-serif">The Gumdrop Hills</text><text x="267.33" y="277.33" font-size="10" font-weight="normal" fill="#5a3a48" text-anchor="end" font-family="sans-serif">Fondant Hollow</text><text x="689.33" y="209" font-size="10" font-weight="normal" fill="#5a3a48" text-anchor="start" font-family="sans-serif">sugar-silo</text><text x="347.67" y="277.33" font-size="10" font-weight="normal" fill="#5a3a48" text-anchor="start" font-family="sans-serif">hovercart</text><text x="552.67" y="482.33" font-size="10" font-weight="normal" fill="#5a3a48" text-anchor="start" font-family="sans-serif">zorbleflax</text><text x="14" y="22" font-size="16" font-weight="bold" fill="#3d3629" font-family="sans-serif">Gumdrop Vale, Sigma-5-5</text></svg>