<svg xmlns="http://www.w3.org/2000/svg" viewBox="0 0 820 546.67" width="820" height="546.67" font-family="sans-serif"><metadata data-chartdown-source="examples/gumdrop-vale/gumdrop-vale.cd" data-chartdown-doc="gumdrop-vale-sigma-5-5" data-chartdown-mode="player" data-chartdown-output="examples/gumdrop-vale/gumdrop-vale.svg">generated by chartdown - do not hand-edit</metadata><rect x="0" y="0" width="820" height="546.67" fill="#f9f5ea"/><g id="cd-gumdrop-vale-sigma-5-5-the-gumdrop-hills"><polygon points="346.01,205 344.27,210.01 340.08,215.01 334.62,219.99 329.09,224.9 324.67,229.72 321.61,234.36 319.13,238.85 316.84,243.3 314.37,247.86 311.34,252.66 307.83,258.17 304.1,264.32 300.01,270.37 295.45,275.61 290.29,279.31 284.15,281.44 277.11,282.48 269.74,282.48 262.62,281.48 256.32,279.53 250.8,276.27 245.68,271.67 241.01,266.26 236.86,260.6 233.29,255.22 230.67,250.04 228.97,244.72 227.61,239.35 226.04,234.05 223.69,228.91 219.92,224.05 215.12,219.41 210.23,214.8 206.19,210.06 203.96,205 203.79,199.38 205.05,193.3 207.36,187.16 210.32,181.34 213.54,176.2 217.28,172.12 221.79,168.82 226.7,165.79 231.63,162.5 236.21,158.44 240.22,152.65 243.94,145.48 247.65,138.36 251.64,132.72 256.21,129.98 261.54,131.2 267.44,135.42 273.62,141.07 279.83,146.59 285.8,150.4 291.74,151.9 297.84,152.14 303.76,152.03 309.17,152.47 313.71,154.37 317.01,158.08 319.3,162.98 321.14,168.57 323.12,174.32 325.8,179.73 329.99,184.8 335.29,189.87 340.53,194.94 344.5,199.98" fill="#d9cba6" stroke="#aea285" stroke-width="1"/><polygon points="338.01,205.11 336.29,209.56 332.15,213.95 326.82,218.22 321.51,222.35 317.4,226.39 314.7,230.34 312.61,234.21 310.74,238.12 308.74,242.18 306.25,246.48 303.38,251.52 300.32,257.26 296.91,263 292.99,268 288.45,271.52 282.97,273.52 276.67,274.49 270.08,274.48 263.7,273.55 258.08,271.73 253.2,268.64 248.74,264.28 244.75,259.2 241.27,253.93 238.31,248.99 236.21,244.27 234.97,239.44 234.06,234.61 232.91,229.94 230.95,225.54 227.5,221.47 222.91,217.6 218.15,213.69 214.18,209.57 211.96,205.12 211.75,200.14 212.91,194.78 215.05,189.38 217.76,184.27 220.69,179.8 224.11,176.28 228.26,173.53 232.74,171.04 237.14,168.31 241.09,164.78 244.4,159.48 247.39,152.7 250.45,145.86 253.87,140.4 257.93,137.8 262.74,139.11 268.05,143.39 273.54,149.07 278.91,154.53 283.99,158.19 289.11,159.46 294.48,159.41 299.8,158.98 304.68,159.1 308.75,160.65 311.6,163.96 313.43,168.42 314.82,173.48 316.35,178.6 318.64,183.3 322.49,187.59 327.55,191.88 332.63,196.23 336.53,200.66" fill="#d9cba6"/></g><g><polygon points="478.33,136.67 615,136.67 615,341.67 478.33,410" fill="#a9c79c" stroke="#879f7d" stroke-width="1"/><polygon points="482.3,143.61 611.03,143.61 610,335.42 481.58,402.69" fill="#a9c79c"/></g><g><polyline points="68.33,68.33 88.49,84.62 114.24,106.77 144.81,133.2 179.37,162.29 217.15,192.45 257.32,222.08 299.09,249.58 341.67,273.33 389.18,294.62 444.17,315.51 503.42,335.59 563.75,354.48 621.94,371.76 674.79,387.04 719.1,399.92 751.67,410" fill="none" stroke="#7fa8cf" stroke-width="2" stroke-linejoin="round" stroke-linecap="round"/></g><g id="cd-gumdrop-vale-sigma-5-5-fondant-hollow"><circle cx="273.33" cy="273.33" r="3" fill="#3d3629" stroke="#fff" stroke-width="1"/></g><g><circle cx="683.33" cy="205" r="3" fill="#3d3629" stroke="#fff" stroke-width="1"/></g><g><circle cx="341.67" cy="273.33" r="3" fill="#3d3629" stroke="#fff" stroke-width="1"/></g><g><circle cx="546.67" cy="478.33" r="3" fill="#3d3629" stroke="#fff" stroke-width="1"/></g><text x="301.78" y="190.9" font-size="11" fill="#3d3629" opacity="0.8" text-anchor="middle" font-style="italic" font-family="sans-serif">The Gumdrop Hills</text><text x="689.33" y="209" font-size="10" font-weight="normal" fill="#3d3629" text-anchor="start" font-family="sans-serif">sugar-silo</text><text x="347.67" y="277.33" font-size="10" font-weight="normal" fill="#3d3629" text-anchor="start" font-family="sans-serif">hovercart</text><text x="552.67" y="482.33" font-size="10" font-weight="normal" fill="#3d3629" text-anchor="start" font-family="sans-serif">zorbleflax</text><text x="267.33" y="277.33" font-size="9" font-weight="normal" fill="#3d3629" text-anchor="end" font-family="sans-serif">Fondant Hollow</text><text x="14" y="22" font-size="16" font-weight="bold" fill="#3d3629" font-family="sans-serif">Gumdrop Vale, Sigma-5-5</text></svg>