<svg xmlns="http://www.w3.org/2000/svg" viewBox="0 0 820 512.5" width="820" height="512.5" font-family="sans-serif"><rect x="0" y="0" width="820" height="512.5" fill="#f9f5ea"/><g id="cd-the-sundered-reach-the-sundered-sea"><polygon points="307.5,0 292.84,9.36 285.86,22.21 284.44,37.48 286.43,54.1 289.7,71 292.13,87.12 295.2,103.03 300.95,119.68 307.98,136.61 314.9,153.37 320.33,169.49 322.88,184.5 322.12,197.98 319.08,210.22 314.55,221.82 309.3,233.38 304.13,245.51 299.81,258.81 295.71,273.43 291.08,288.9 286.52,304.94 282.63,321.26 280.03,337.59 279.31,353.62 281.66,369.78 286.81,386.37 293.25,402.95 299.43,419.11 303.84,434.41 304.94,448.44 298.47,461.64 284.82,474.44 269.38,486.39 257.58,497.03 254.81,505.89 266.5,512.5 298.97,517.01 349.16,519.81 408.4,520.83 467.99,520 519.25,517.25 553.5,512.5 568.89,505.03 572.01,494.75 566.79,482.55 557.2,469.32 547.18,455.94 540.69,443.31 536.3,431.38 530.59,419.43 524.45,407.34 518.78,394.99 514.5,382.25 512.5,369 513.77,354.79 517.78,339.62 523.17,324.06 528.58,308.7 532.65,294.1 534.03,280.85 531.53,269.71 526.01,260.39 519.16,251.83 512.65,243 508.16,232.86 507.37,220.37 511.74,205.23 520.21,188.18 530.69,169.83 541.12,150.75 549.42,131.53 553.5,112.75 554.96,92.95 555.78,71.37 554.46,49.65 549.51,29.42 539.44,12.33 522.75,0 495.24,-7.53 457.26,-11.58 414.16,-12.49 371.28,-10.63 333.94,-6.35" fill="#b9d3e6" stroke-linejoin="round"/></g><g id="cd-the-sundered-reach-the-whalegrey-deep"><polygon points="0,0 3.46,-31.44 8.35,-43.66 14.09,-41.64 20.12,-30.37 25.86,-14.83 30.75,0 35.35,16.61 40.24,39.48 44.84,66.63 48.59,96.05 50.92,125.75 51.25,153.75 48.32,181.02 42.33,209.37 34.91,237.99 27.71,266.12 22.36,292.97 20.5,317.75 23.22,340.54 29.42,361.98 37.48,382.13 45.75,401.08 52.59,418.89 56.37,435.62 57.07,451.7 56,467.13 53.49,481.43 49.92,494.09 45.64,504.61 41,512.5 35.18,522.88 27.71,537.18 19.54,549.34 11.58,553.31 4.76,543.05 0,512.5 -2.73,450.81 -4.18,360.65 -4.48,256.25 -3.8,151.85 -2.25,61.69" fill="#b9d3e6" stroke-linejoin="round"/></g><g id="cd-the-sundered-reach-the-dawnwater"><polygon points="820,0 816.54,-31.32 811.65,-43.28 805.91,-41 799.88,-29.61 794.14,-14.24 789.25,0 784.65,15.73 779.76,37.58 775.16,63.42 771.41,91.11 769.08,118.52 768.75,143.5 771.68,166.3 777.67,188.68 785.09,210.77 792.29,232.71 797.64,254.66 799.5,276.75 796.61,299.31 790.01,322.31 781.56,345.3 773.12,367.86 766.52,389.57 763.62,410 764.95,430.05 769.13,450.24 775.16,469.58 782.04,487.06 788.78,501.7 794.37,512.5 799.24,524.36 804.25,539.07 809.11,550.94 813.55,554.26 817.27,543.34 820,512.5 821.84,450.81 823.04,360.65 823.52,256.25 823.23,151.85 822.08,61.69" fill="#b9d3e6" stroke-linejoin="round"/></g><g id="cd-the-sundered-reach-valemark"><polygon points="56.37,123 215.25,71.75 287,153.75 299.81,258.81 179.37,271.63 82,307.5 51.25,164" fill="#d8d3c5" opacity="0.12" stroke="#ada99e" stroke-width="1" stroke-dasharray="10 6" stroke-opacity="0.35"/></g><g id="cd-the-sundered-reach-carrowen"><polygon points="82,307.5 179.37,271.63 299.81,258.81 279.31,353.62 304.94,448.44 266.5,507.37 58.94,507.37 56.37,435.62" fill="#d8d3c5" opacity="0.12" stroke="#ada99e" stroke-width="1" stroke-dasharray="10 6" stroke-opacity="0.35"/></g><g id="cd-the-sundered-reach-ghor-vakh"><polygon points="43.56,15.37 287,15.37 289.56,84.56 210.12,76.88 148.63,92.25 87.12,61.5 51.25,43.56" fill="#d8d3c5" opacity="0.12" stroke="#ada99e" stroke-width="1" stroke-dasharray="10 6" stroke-opacity="0.35"/></g><g id="cd-the-sundered-reach-khundrum"><polygon points="525.31,7.69 784.12,7.69 766.19,146.06 796.94,274.19 691.87,404.87 609.88,344.4 535.05,284.95 554.53,113.78" fill="#d8d3c5" opacity="0.12" stroke="#ada99e" stroke-width="1" stroke-dasharray="10 6" stroke-opacity="0.35"/></g><g id="cd-the-sundered-reach-sathriss"><polygon points="513.53,371.56 589.38,385.4 689.31,408.98 762.09,411.03 789.25,504.81 556.06,504.81 542.22,441.78" fill="#d8d3c5" opacity="0.12" stroke="#ada99e" stroke-width="1" stroke-dasharray="10 6" stroke-opacity="0.35"/></g><g id="cd-the-sundered-reach-ilvarien"><polygon points="317.75,220.37 502.25,248.56 507.37,307.5 328,287" fill="#d8d3c5" opacity="0.12" stroke="#ada99e" stroke-width="1" stroke-dasharray="10 6" stroke-opacity="0.35"/></g><g id="cd-the-sundered-reach-skarnholt"><polygon points="341.36,247.02 341.38,247.89 341.36,248.79 341.27,249.68 341.06,250.49 340.69,251.16 340.09,251.66 339.29,252.02 338.39,252.29 337.49,252.54 336.7,252.8 336.05,253.08 335.45,253.34 334.89,253.58 334.32,253.82 333.7,254.05 333.05,254.3 332.38,254.56 331.7,254.8 330.99,254.97 330.27,255.05 329.49,255.05 328.66,254.98 327.83,254.83 327.04,254.59 326.35,254.23 325.76,253.75 325.23,253.13 324.77,252.43 324.34,251.69 323.94,250.95 323.54,250.21 323.13,249.43 322.79,248.62 322.54,247.82 322.46,247.02 322.57,246.23 322.84,245.43 323.22,244.63 323.65,243.87 324.1,243.17 324.56,242.53 325.07,241.93 325.62,241.37 326.2,240.86 326.8,240.38 327.44,239.92 328.11,239.46 328.8,239.06 329.5,238.77 330.19,238.66 330.87,238.79 331.55,239.13 332.24,239.57 332.93,239.98 333.65,240.25 334.4,240.32 335.18,240.26 335.97,240.17 336.74,240.15 337.46,240.31 338.14,240.66 338.82,241.13 339.45,241.7 340.01,242.33 340.46,243 340.8,243.72 341.05,244.51 341.21,245.34 341.31,246.19" fill="#e9e2cc" stroke="#bab5a3" stroke-width="1"/><polygon points="333.36,247.01 333.41,247.14 333.5,247.29 333.59,247.46 333.6,247.62 333.48,247.71 333.16,247.67 332.74,247.51 332.65,247.53 332.56,247.56 332.48,247.58 332.41,247.61 332.35,247.64 332.3,247.66 332.24,247.69 332.18,247.71 332.11,247.73 332.05,247.76 331.98,247.78 331.91,247.8 331.84,247.81 331.76,247.81 331.67,247.8 331.59,247.79 331.43,247.89 331.28,247.94 331.2,247.88 331.17,247.77 331.17,247.63 331.17,247.52 331.13,247.44 331.02,247.38 330.85,247.32 330.67,247.24 330.51,247.13 330.46,247.01 330.55,246.89 330.73,246.78 330.94,246.72 331.15,246.68 331.22,246.62 331.26,246.56 331.32,246.5 331.37,246.44 331.43,246.39 331.49,246.34 331.55,246.3 331.62,246.25 331.69,246.21 331.76,246.18 331.83,246.17 331.9,246.18 331.96,246.22 332.03,246.26 332.1,246.3 332.17,246.33 332.25,246.34 332.33,246.33 332.41,246.32 332.48,246.32 332.55,246.34 332.62,246.37 332.76,246.36 332.94,246.34 333.1,246.37 333.23,246.43 333.31,246.52 333.33,246.64 333.34,246.77 333.34,246.89" fill="#e9e2cc"/></g><g><polygon points="370.37,254.2 370.18,254.64 369.9,255.03 369.59,255.4 369.29,255.79 369.05,256.2 368.9,256.67 368.81,257.19 368.74,257.71 368.61,258.18 368.39,258.57 368.04,258.88 367.6,259.13 367.11,259.33 366.6,259.46 366.12,259.54 365.65,259.56 365.16,259.51 364.68,259.41 364.21,259.27 363.78,259.11 363.41,258.89 363.09,258.61 362.79,258.31 362.45,258.02 362.06,257.77 361.54,257.59 360.93,257.46 360.31,257.34 359.76,257.16 359.34,256.88 359.07,256.44 358.89,255.9 358.8,255.31 358.8,254.72 358.89,254.2 359.13,253.76 359.51,253.37 359.96,253 360.37,252.61 360.68,252.17 360.83,251.65 360.87,251.08 360.88,250.5 360.94,249.95 361.13,249.47 361.47,249.04 361.91,248.64 362.41,248.29 362.94,248.03 363.46,247.89 363.97,247.9 364.51,248.06 365.05,248.29 365.6,248.53 366.15,248.71 366.73,248.79 367.33,248.81 367.92,248.83 368.47,248.92 368.95,249.12 369.36,249.47 369.73,249.92 370.04,250.44 370.29,250.99 370.47,251.52 370.58,252.05 370.61,252.6 370.58,253.16 370.5,253.7" fill="#e9e2cc" stroke="#bab5a3" stroke-width="1"/><polygon points="365.46,253.98 365.44,254.02 365.42,254.06 365.39,254.1 365.36,254.14 365.33,254.18 365.32,254.22 365.31,254.28 365.3,254.33 365.29,254.38 365.26,254.41 365.23,254.45 365.19,254.47 365.14,254.49 365.09,254.5 365.04,254.51 364.99,254.51 364.94,254.51 364.89,254.5 364.85,254.48 364.8,254.47 364.77,254.45 364.74,254.42 364.7,254.39 364.67,254.36 364.63,254.33 364.58,254.32 364.52,254.3 364.46,254.29 364.4,254.27 364.36,254.24 364.33,254.2 364.32,254.15 364.31,254.09 364.31,254.03 364.32,253.98 364.34,253.93 364.38,253.89 364.42,253.86 364.46,253.82 364.49,253.77 364.51,253.72 364.51,253.67 364.51,253.61 364.52,253.55 364.54,253.5 364.57,253.46 364.62,253.42 364.67,253.39 364.72,253.36 364.77,253.35 364.82,253.35 364.88,253.36 364.93,253.39 364.99,253.41 365.04,253.43 365.1,253.44 365.16,253.44 365.22,253.44 365.27,253.45 365.32,253.47 365.36,253.5 365.4,253.55 365.43,253.6 365.46,253.66 365.47,253.71 365.48,253.76 365.49,253.82 365.48,253.87 365.48,253.93" fill="#e9e2cc"/></g><g id="cd-the-sundered-reach-ilvarien-isle"><polygon points="421.89,263.42 421.72,264.83 421.27,266.3 420.58,267.74 419.74,269.05 418.81,270.13 417.69,270.88 416.35,271.34 414.92,271.7 413.54,272.13 412.35,272.8 411.43,273.86 410.7,275.21 410.02,276.6 409.27,277.81 408.34,278.59 407.15,278.88 405.8,278.83 404.37,278.56 402.94,278.17 401.6,277.79 400.28,277.43 398.95,277.02 397.67,276.53 396.51,275.91 395.54,275.14 394.82,274.14 394.3,272.96 393.9,271.67 393.51,270.37 393.03,269.13 392.35,267.97 391.55,266.83 390.78,265.7 390.2,264.57 389.95,263.42 390.11,262.24 390.58,261.01 391.25,259.8 392.01,258.64 392.76,257.59 393.52,256.66 394.34,255.82 395.22,255.05 396.13,254.32 397.05,253.61 397.98,252.9 398.92,252.2 399.89,251.56 400.9,251.01 401.95,250.61 403.03,250.41 404.14,250.38 405.3,250.43 406.52,250.51 407.82,250.51 409.31,250.34 410.97,250.04 412.65,249.79 414.2,249.76 415.48,250.13 416.42,251 417.11,252.27 417.66,253.75 418.18,255.3 418.75,256.74 419.49,258.07 420.31,259.41 421.09,260.75 421.66,262.09" fill="#e9e2cc" stroke="#bab5a3" stroke-width="1"/><polygon points="413.89,263.48 413.75,264.2 413.38,264.93 412.87,265.61 412.27,266.19 411.62,266.61 410.82,266.78 409.83,266.71 408.84,266.5 408.03,266.33 407.53,266.41 407.38,266.96 407.38,267.93 407.34,269.06 407.17,270.09 406.79,270.74 406.23,270.94 405.58,270.84 404.91,270.58 404.26,270.28 403.65,270.06 403.04,269.92 402.4,269.8 401.76,269.65 401.17,269.41 400.71,269.04 400.46,268.48 400.4,267.78 400.43,267.05 400.44,266.38 400.31,265.84 399.93,265.4 399.34,264.98 398.7,264.53 398.18,264.03 397.95,263.49 398.08,262.92 398.46,262.36 398.98,261.85 399.52,261.4 400,261.01 400.44,260.68 400.9,260.41 401.36,260.18 401.79,259.97 402.19,259.74 402.55,259.47 402.88,259.15 403.22,258.83 403.59,258.54 404,258.34 404.44,258.28 404.89,258.34 405.35,258.43 405.82,258.48 406.35,258.38 407.03,258.01 407.91,257.44 408.91,256.86 409.89,256.5 410.67,256.52 411.13,257.01 411.34,257.81 411.41,258.74 411.45,259.63 411.62,260.37 412.03,260.97 412.6,261.54 413.21,262.15 413.69,262.8" fill="#e9e2cc"/></g><g><polygon points="451.98,270.6 451.92,271.08 451.66,271.58 451.3,272.09 450.93,272.61 450.63,273.14 450.43,273.71 450.29,274.32 450.14,274.92 449.93,275.48 449.62,275.94 449.19,276.3 448.65,276.59 448.06,276.82 447.45,277 446.85,277.13 446.26,277.24 445.64,277.31 445.02,277.32 444.42,277.27 443.87,277.12 443.38,276.85 442.91,276.49 442.48,276.05 442.09,275.59 441.73,275.15 441.45,274.72 441.22,274.28 441.03,273.83 440.82,273.37 440.56,272.91 440.21,272.47 439.8,272.03 439.38,271.58 439.02,271.11 438.78,270.6 438.66,270.02 438.62,269.37 438.65,268.71 438.78,268.08 439,267.53 439.34,267.07 439.8,266.67 440.34,266.31 440.9,265.98 441.43,265.67 441.93,265.37 442.43,265.09 442.93,264.84 443.45,264.64 443.97,264.5 444.51,264.43 445.07,264.41 445.64,264.44 446.19,264.52 446.72,264.64 447.25,264.8 447.77,265.01 448.28,265.26 448.73,265.56 449.11,265.91 449.36,266.33 449.52,266.81 449.64,267.34 449.78,267.87 450.01,268.36 450.39,268.82 450.88,269.26 451.38,269.69 451.78,270.14" fill="#e9e2cc" stroke="#bab5a3" stroke-width="1"/><polygon points="445.97,270.65 445.97,270.7 445.94,270.75 445.9,270.8 445.87,270.85 445.84,270.91 445.82,270.96 445.8,271.02 445.79,271.08 445.77,271.14 445.74,271.19 445.69,271.22 445.64,271.25 445.58,271.27 445.52,271.29 445.46,271.3 445.4,271.32 445.34,271.32 445.28,271.32 445.22,271.32 445.16,271.3 445.11,271.28 445.07,271.24 445.02,271.2 444.98,271.15 444.95,271.11 444.92,271.06 444.9,271.02 444.88,270.97 444.86,270.93 444.83,270.88 444.8,270.84 444.75,270.79 444.71,270.75 444.68,270.7 444.65,270.65 444.64,270.59 444.64,270.53 444.64,270.46 444.65,270.4 444.67,270.35 444.71,270.3 444.75,270.26 444.81,270.22 444.86,270.19 444.92,270.16 444.97,270.13 445.02,270.1 445.07,270.08 445.12,270.06 445.17,270.04 445.23,270.03 445.28,270.03 445.34,270.04 445.39,270.04 445.45,270.06 445.5,270.07 445.55,270.09 445.6,270.12 445.65,270.15 445.68,270.18 445.71,270.22 445.73,270.27 445.74,270.33 445.75,270.38 445.77,270.43 445.81,270.47 445.86,270.52 445.91,270.56 445.95,270.61" fill="#e9e2cc"/></g><g id="cd-the-sundered-reach-vessel-isle"><polygon points="493.47,276.75 493.24,277.45 493.03,278.08 492.83,278.68 492.62,279.27 492.39,279.9 492.17,280.6 491.98,281.35 491.76,282.09 491.47,282.76 491.06,283.29 490.5,283.64 489.82,283.87 489.07,284.01 488.3,284.12 487.56,284.25 486.86,284.4 486.16,284.56 485.45,284.69 484.74,284.77 484.02,284.76 483.24,284.7 482.41,284.59 481.6,284.4 480.87,284.12 480.3,283.7 479.98,283.1 479.84,282.34 479.77,281.49 479.65,280.64 479.36,279.88 478.78,279.22 478.01,278.62 477.19,278.04 476.5,277.43 476.1,276.75 476.03,275.98 476.19,275.13 476.5,274.26 476.9,273.42 477.31,272.64 477.74,271.9 478.23,271.16 478.78,270.48 479.39,269.9 480.05,269.48 480.79,269.26 481.62,269.22 482.49,269.27 483.35,269.33 484.15,269.31 484.91,269.16 485.66,268.93 486.38,268.7 487.06,268.58 487.7,268.65 488.24,268.98 488.69,269.52 489.13,270.16 489.61,270.77 490.23,271.26 491.1,271.54 492.17,271.7 493.25,271.83 494.17,272.06 494.73,272.47 494.84,273.15 494.63,274.02 494.24,274.97 493.8,275.92" fill="#e9e2cc" stroke="#bab5a3" stroke-width="1"/><polygon points="486.39,276.66 486.37,276.73 486.35,276.79 486.33,276.85 486.3,276.91 486.28,276.97 486.26,277.04 486.24,277.12 486.22,277.19 486.19,277.26 486.15,277.31 486.09,277.35 486.02,277.37 485.95,277.38 485.87,277.4 485.8,277.41 485.73,277.42 485.66,277.44 485.59,277.45 485.52,277.46 485.44,277.46 485.37,277.45 485.28,277.44 485.2,277.42 485.13,277.4 485.07,277.35 485.04,277.29 485.03,277.22 485.02,277.13 485.01,277.05 484.98,276.97 484.92,276.91 484.84,276.85 484.76,276.79 484.47,276.75 484.1,276.66 484.01,276.54 484.08,276.4 484.24,276.29 484.4,276.2 484.51,276.12 484.59,276.03 484.65,275.94 484.72,275.85 484.81,275.79 484.95,275.8 485.12,275.91 485.2,275.91 485.29,275.91 485.38,275.92 485.46,275.91 485.53,275.9 485.61,275.88 485.68,275.85 485.75,275.84 485.81,275.85 485.87,275.88 485.91,275.94 485.95,276 486,276.06 486.07,276.11 486.15,276.14 486.26,276.15 486.48,276.1 487.12,275.84 487.45,275.8 487.36,275.98 486.95,276.26 486.47,276.48 486.42,276.58" fill="#e9e2cc"/></g><g id="cd-the-sundered-reach-thornshoal"><polygon points="382.24,299.81 382.32,300.28 382.31,300.79 382.22,301.31 382.07,301.83 381.88,302.31 381.66,302.78 381.38,303.24 381.06,303.67 380.69,304.04 380.3,304.34 379.86,304.53 379.36,304.63 378.84,304.68 378.32,304.71 377.82,304.76 377.33,304.86 376.85,304.98 376.37,305.08 375.92,305.11 375.49,305.05 375.09,304.87 374.7,304.59 374.34,304.25 374.01,303.89 373.72,303.53 373.5,303.18 373.35,302.81 373.21,302.42 373.06,302.04 372.85,301.66 372.52,301.29 372.1,300.91 371.67,300.54 371.35,300.17 371.24,299.81 371.4,299.46 371.77,299.11 372.25,298.77 372.72,298.42 373.08,298.07 373.29,297.71 373.43,297.35 373.55,296.98 373.68,296.63 373.88,296.29 374.15,295.96 374.46,295.63 374.8,295.33 375.17,295.06 375.56,294.86 375.98,294.72 376.45,294.63 376.93,294.59 377.41,294.61 377.86,294.68 378.29,294.83 378.72,295.04 379.12,295.3 379.49,295.6 379.79,295.93 379.98,296.29 380.08,296.71 380.16,297.15 380.26,297.59 380.44,298.01 380.76,298.37 381.18,298.71 381.62,299.05 382,299.41" fill="#e9e2cc" stroke="#bab5a3" stroke-width="1"/><polygon points="377.4,299.93 377.41,299.97 377.41,300.02 377.4,300.08 377.39,300.13 377.37,300.18 377.35,300.22 377.32,300.27 377.29,300.31 377.25,300.35 377.21,300.38 377.17,300.4 377.12,300.41 377.06,300.41 377.01,300.42 376.96,300.42 376.91,300.43 376.87,300.44 376.82,300.45 376.77,300.46 376.73,300.45 376.69,300.43 376.65,300.4 376.61,300.37 376.58,300.33 376.55,300.3 376.53,300.26 376.51,300.22 376.5,300.19 376.49,300.15 376.47,300.11 376.43,300.07 376.39,300.04 376.35,300 376.32,299.96 376.3,299.93 376.32,299.89 376.36,299.86 376.4,299.82 376.45,299.79 376.49,299.75 376.51,299.72 376.52,299.68 376.53,299.64 376.55,299.61 376.57,299.57 376.6,299.54 376.63,299.51 376.66,299.48 376.7,299.45 376.74,299.43 376.78,299.42 376.83,299.41 376.87,299.4 376.92,299.4 376.97,299.41 377.01,299.43 377.05,299.45 377.09,299.47 377.13,299.5 377.16,299.54 377.18,299.57 377.19,299.62 377.2,299.66 377.21,299.7 377.22,299.74 377.26,299.78 377.3,299.82 377.34,299.85 377.38,299.89" fill="#e9e2cc"/></g><g id="cd-the-sundered-reach-the-kingswood"><polygon points="171.66,220.37 171.21,222.73 170.43,224.98 169.47,227.21 168.48,229.52 167.6,231.98 167.03,234.85 166.65,238.06 166.2,241.24 165.41,244.05 164.02,246.1 161.81,247.23 158.97,247.68 155.81,247.71 152.62,247.59 149.71,247.59 147.07,247.79 144.48,248.02 141.98,248.14 139.58,248.03 137.3,247.54 135.18,246.56 133.22,245.2 131.34,243.61 129.47,241.95 127.55,240.38 125.58,238.97 123.6,237.63 121.62,236.23 119.62,234.67 117.61,232.84 115.3,230.68 112.67,228.27 110.19,225.68 108.27,223.02 107.37,220.37 107.68,217.58 108.9,214.59 110.75,211.62 112.92,208.92 115.11,206.7 117.49,205.16 120.25,204.14 123.15,203.36 125.96,202.57 128.44,201.49 130.45,199.94 132.17,198.11 133.78,196.26 135.45,194.66 137.38,193.55 139.54,193.11 141.83,193.16 144.25,193.46 146.81,193.77 149.55,193.87 152.7,193.46 156.26,192.71 159.85,192.03 163.1,191.86 165.63,192.63 167.3,194.62 168.36,197.56 169.02,200.99 169.51,204.49 170.02,207.6 170.62,210.32 171.15,212.93 171.55,215.46 171.74,217.93" fill="#a9c79c" stroke="#879f7d" stroke-width="1"/><polygon points="163.66,220.33 163.24,222.01 162.55,223.59 161.74,225.13 160.98,226.73 160.41,228.47 160.23,230.62 160.31,233.17 160.33,235.81 160,238.16 159.05,239.83 157.32,240.61 155.05,240.71 152.54,240.41 150.09,240 147.94,239.79 146.04,239.86 144.2,240.02 142.42,240.15 140.7,240.1 139.07,239.73 137.59,238.94 136.26,237.8 135.03,236.51 133.81,235.23 132.51,234.1 131.1,233.19 129.62,232.36 128.07,231.5 126.47,230.53 124.8,229.33 122.8,227.9 120.42,226.25 118.08,224.39 116.25,222.39 115.37,220.34 115.65,218.17 116.8,215.87 118.48,213.65 120.42,211.69 122.33,210.14 124.41,209.17 126.83,208.69 129.31,208.47 131.6,208.24 133.45,207.72 134.78,206.67 135.82,205.23 136.79,203.68 137.86,202.29 139.17,201.35 140.7,201.03 142.32,201.15 144.02,201.46 145.82,201.71 147.76,201.67 150.1,201.03 152.89,199.96 155.83,198.95 158.55,198.44 160.62,198.87 161.85,200.48 162.45,202.95 162.63,205.81 162.66,208.63 162.8,211.04 163.1,213.06 163.42,214.96 163.66,216.79 163.77,218.58" fill="#a9c79c"/></g><g id="cd-the-sundered-reach-thornmark-weald"><polygon points="155.07,374.12 155.12,376.19 154.5,378.38 153.47,380.64 152.32,382.96 151.32,385.3 150.62,387.91 150.01,390.8 149.31,393.62 148.31,395.99 146.79,397.53 144.57,397.96 141.77,397.52 138.7,396.65 135.67,395.81 132.99,395.45 130.76,395.67 128.77,396.19 126.87,396.83 124.9,397.41 122.73,397.76 120.1,398.05 117.11,398.4 114.13,398.55 111.53,398.25 109.7,397.23 108.91,395.2 108.92,392.33 109.29,389.06 109.6,385.85 109.4,383.14 108.5,381.04 107.18,379.26 105.75,377.62 104.52,375.97 103.78,374.12 103.61,372.07 103.79,369.9 104.23,367.68 104.85,365.45 105.55,363.25 106.3,361.04 107.17,358.77 108.2,356.54 109.43,354.43 110.89,352.52 112.65,350.74 114.68,349.05 116.89,347.53 119.21,346.29 121.58,345.44 124.03,345.04 126.6,345.02 129.25,345.29 131.9,345.72 134.49,346.23 137.22,346.69 140.13,347.18 142.93,347.87 145.3,348.92 146.96,350.5 147.55,352.88 147.27,355.94 146.65,359.29 146.22,362.53 146.5,365.28 147.83,367.39 149.87,369.13 152.1,370.7 154,372.3" fill="#a9c79c" stroke="#879f7d" stroke-width="1"/><polygon points="147.08,373.91 147.17,375.37 146.64,376.88 145.78,378.43 144.89,379.99 144.22,381.62 143.92,383.53 143.78,385.79 143.56,388.06 143.02,389.99 141.94,391.17 140.17,391.28 137.89,390.52 135.46,389.34 133.21,388.2 131.36,387.61 129.92,387.72 128.64,388.19 127.39,388.84 126.06,389.49 124.55,389.97 122.66,390.47 120.41,391.11 118.08,391.6 116.03,391.63 114.64,390.94 114.25,389.24 114.66,386.76 115.48,384 116.27,381.44 116.53,379.5 115.97,378.18 114.9,377.14 113.62,376.16 112.47,375.12 111.78,373.9 111.59,372.5 111.7,371.03 112.01,369.53 112.43,368.01 112.86,366.5 113.28,364.95 113.76,363.31 114.34,361.67 115.08,360.09 116.03,358.65 117.22,357.31 118.6,356.02 120.14,354.84 121.78,353.87 123.48,353.21 125.25,352.95 127.11,353.01 129.01,353.28 130.9,353.66 132.75,354.04 134.72,354.29 136.87,354.49 138.97,354.83 140.76,355.51 141.93,356.72 142.1,358.74 141.4,361.38 140.33,364.19 139.39,366.71 139.2,368.56 140.19,369.76 142.02,370.7 144.15,371.61 146.01,372.65" fill="#a9c79c"/></g><g id="cd-the-sundered-reach-the-white-reach"><polygon points="698.16,76.88 698.7,80.37 699.82,84.09 700.91,87.71 701.39,90.93 700.65,93.44 698.19,94.86 694.44,95.39 690.1,95.6 685.91,96.08 682.6,97.38 680.45,99.99 678.96,103.53 677.72,107.27 676.33,110.51 674.38,112.52 671.78,112.97 668.8,112.34 665.58,111.12 662.24,109.83 658.93,108.96 655.37,108.8 651.47,109.02 647.64,109.18 644.28,108.83 641.81,107.52 640.62,104.9 640.43,101.26 640.66,97.14 640.7,93.06 639.96,89.53 637.99,86.69 635.18,84.18 632.21,81.83 629.76,79.45 628.51,76.88 628.66,73.94 629.76,70.77 631.51,67.59 633.59,64.65 635.72,62.17 638.04,60.3 640.73,58.87 643.59,57.68 646.42,56.54 649.01,55.26 651.25,53.75 653.3,52.15 655.29,50.57 657.36,49.13 659.65,47.94 662.25,46.91 665.07,45.94 667.97,45.2 670.83,44.86 673.51,45.05 675.93,45.98 678.18,47.53 680.38,49.43 682.67,51.39 685.18,53.14 688.23,54.53 691.73,55.73 695.21,56.99 698.17,58.52 700.13,60.56 700.74,63.25 700.34,66.43 699.43,69.9 698.53,73.45" fill="#dfe4dd" stroke="#b2b6b1" stroke-width="1"/><polygon points="690.16,77.07 690.72,79.71 691.96,82.58 693.23,85.48 693.91,88.1 693.38,90.1 691.15,91.06 687.67,91.12 683.71,90.79 680.08,90.6 677.51,91.21 676.16,93.23 675.44,96.34 674.84,99.81 674,102.86 672.58,104.72 670.56,105.06 668.23,104.36 665.75,103.13 663.24,101.89 660.76,101.17 658.02,101.25 654.89,101.79 651.71,102.3 648.9,102.3 646.88,101.33 646.11,99.08 646.34,95.87 647.03,92.3 647.56,88.93 647.26,86.25 645.61,84.26 643.01,82.54 640.15,80.86 637.75,79.06 636.51,77.04 636.62,74.73 637.62,72.25 639.19,69.82 641.03,67.61 642.86,65.79 644.85,64.49 647.17,63.6 649.6,62.96 651.91,62.37 653.9,61.59 655.52,60.52 656.93,59.28 658.3,57.98 659.75,56.76 661.39,55.75 663.29,54.84 665.38,53.94 667.56,53.19 669.74,52.78 671.79,52.86 673.61,53.63 675.25,54.97 676.81,56.59 678.44,58.18 680.3,59.48 682.72,60.33 685.67,60.96 688.7,61.64 691.31,62.64 692.99,64.17 693.36,66.34 692.74,68.94 691.64,71.73 690.6,74.49" fill="#dfe4dd"/></g><g id="cd-the-sundered-reach-the-sathriss-sink"><polygon points="605.6,438.19 606.68,441.52 608.85,444.99 611.29,448.47 613.21,451.81 613.8,454.88 612.78,457.69 610.71,460.33 607.98,462.78 604.98,465.02 602.13,467.03 599.36,468.96 596.4,470.8 593.34,472.36 590.27,473.44 587.26,473.81 584.31,473.18 581.39,471.69 578.47,469.79 575.55,467.94 572.64,466.61 569.72,465.99 566.8,465.77 563.89,465.66 560.99,465.36 558.09,464.56 555.02,463.28 551.77,461.72 548.62,459.86 545.86,457.69 543.77,455.22 542.39,452.26 541.54,448.85 541.14,445.2 541.15,441.57 541.48,438.19 542.25,435.03 543.49,431.94 545.06,428.95 546.81,426.12 548.59,423.48 550.43,421.12 552.44,419 554.56,417 556.75,415.01 558.97,412.92 561.17,410.51 563.36,407.86 565.64,405.29 568.08,403.1 570.77,401.59 573.84,400.8 577.24,400.55 580.77,400.75 584.2,401.34 587.32,402.26 590.1,403.65 592.67,405.55 595.11,407.76 597.46,410.06 599.82,412.24 602.42,414.24 605.21,416.19 607.84,418.2 609.92,420.37 611.08,422.8 610.83,425.55 609.44,428.54 607.61,431.71 606.09,434.95" fill="#c2d2c0" stroke="#9ba89a" stroke-width="1"/><polygon points="597.6,438.17 598.74,440.56 601.05,443.22 603.67,446.05 605.77,448.87 606.57,451.44 605.84,453.71 604.14,455.77 601.86,457.63 599.39,459.3 597.09,460.82 594.9,462.31 592.58,463.77 590.19,465.01 587.77,465.84 585.38,466.03 583.04,465.28 580.74,463.72 578.52,461.79 576.38,459.99 574.29,458.78 572.17,458.37 569.96,458.42 567.67,458.61 565.34,458.65 563,458.25 560.5,457.45 557.78,456.44 555.1,455.17 552.73,453.6 550.95,451.7 549.84,449.36 549.22,446.63 549.01,443.72 549.11,440.84 549.48,438.17 550.22,435.71 551.37,433.33 552.78,431.06 554.29,428.94 555.78,426.98 557.29,425.24 558.9,423.71 560.58,422.27 562.26,420.82 563.9,419.22 565.45,417.27 566.97,415 568.59,412.73 570.4,410.75 572.46,409.41 574.87,408.74 577.55,408.54 580.32,408.73 583.01,409.25 585.45,410.04 587.58,411.24 589.51,412.9 591.3,414.79 593.01,416.7 594.76,418.43 596.78,419.91 599.05,421.28 601.23,422.71 602.96,424.32 603.85,426.22 603.38,428.46 601.8,430.92 599.8,433.44 598.14,435.87" fill="#c2d2c0"/></g><g id="cd-the-sundered-reach-the-green-throat"><polygon points="728.25,461.25 727.79,463.16 727.33,464.93 726.86,466.63 726.37,468.36 725.83,470.2 725.36,472.32 724.96,474.67 724.47,476.99 723.74,479.01 722.6,480.49 720.93,481.18 718.84,481.24 716.5,481.05 714.11,480.98 711.84,481.38 709.71,482.54 707.59,484.21 705.47,485.98 703.32,487.43 701.11,488.15 698.76,488.06 696.28,487.42 693.81,486.38 691.48,485.05 689.44,483.58 687.71,481.88 686.19,479.88 684.86,477.67 683.68,475.38 682.64,473.1 681.64,470.79 680.7,468.38 679.95,465.94 679.53,463.54 679.58,461.25 680.21,459.02 681.33,456.82 682.77,454.69 684.34,452.72 685.88,450.96 687.45,449.58 689.17,448.54 690.93,447.59 692.65,446.47 694.24,444.93 695.55,442.68 696.64,439.87 697.73,436.96 699.02,434.39 700.71,432.6 702.96,431.65 705.62,431.26 708.47,431.31 711.29,431.72 713.84,432.38 716.14,433.38 718.34,434.79 720.42,436.47 722.35,438.29 724.11,440.1 725.79,441.93 727.38,443.85 728.79,445.86 729.88,447.93 730.55,450.03 730.65,452.23 730.26,454.53 729.6,456.86 728.86,459.13" fill="#8fbc8b" stroke="#72966f" stroke-width="1"/><polygon points="720.26,461.06 719.84,462.26 719.49,463.35 719.18,464.41 718.9,465.5 718.64,466.69 718.54,468.14 718.57,469.86 718.53,471.63 718.24,473.2 717.54,474.3 716.31,474.65 714.7,474.39 712.96,473.88 711.29,473.49 709.83,473.64 708.54,474.63 707.21,476.22 705.79,477.98 704.26,479.49 702.65,480.3 700.93,480.36 699.13,479.95 697.35,479.2 695.68,478.24 694.23,477.16 693.02,475.9 692.01,474.39 691.16,472.74 690.42,471.06 689.74,469.42 689.05,467.79 688.37,466.11 687.8,464.4 687.49,462.72 687.58,461.1 688.19,459.55 689.23,458.05 690.52,456.67 691.86,455.45 693.11,454.39 694.35,453.63 695.71,453.15 697.04,452.76 698.22,452.22 699.13,451.26 699.69,449.52 700.05,447.11 700.49,444.47 701.2,442.09 702.32,440.44 703.92,439.59 705.85,439.25 707.93,439.29 709.98,439.61 711.83,440.12 713.47,440.92 715.01,442.07 716.43,443.41 717.73,444.82 718.92,446.19 720.06,447.51 721.16,448.88 722.13,450.3 722.86,451.77 723.24,453.28 723.1,454.89 722.52,456.55 721.71,458.19 720.88,459.71" fill="#8fbc8b"/></g><g id="cd-the-sundered-reach-lake-vael"><polygon points="195.33,271.63 195.35,271.86 195.36,272.1 195.36,272.33 195.37,272.57 195.37,272.8 195.37,273.04 195.36,273.27 195.35,273.51 195.34,273.75 195.32,273.99 195.3,274.23 195.28,274.47 195.26,274.71 195.23,274.95 195.2,275.19 195.17,275.43 195.13,275.67 195.1,275.91 195.06,276.16 195.01,276.4 194.97,276.65 194.92,276.89 194.87,277.14 194.82,277.39 194.77,277.64 194.71,277.88 194.65,278.13 194.59,278.38 194.53,278.64 194.47,278.89 194.41,279.16 194.35,279.42 194.28,279.69 194.22,279.96 194.16,280.24 194.09,280.51 194.02,280.8 193.96,281.08 193.89,281.37 193.82,281.66 193.75,281.96 193.67,282.24 193.59,282.53 193.51,282.82 193.43,283.11 193.34,283.4 193.25,283.68 193.15,283.96 193.05,284.23 192.94,284.5 192.83,284.77 192.71,285.03 192.58,285.29 192.45,285.53 192.31,285.77 192.17,286 192.02,286.22 191.86,286.43 191.69,286.64 191.51,286.84 191.32,287.04 191.12,287.23 190.91,287.41 190.7,287.59 190.47,287.76 190.24,287.94 190,288.11 189.75,288.28 189.49,288.44 189.22,288.6 188.96,288.76 188.68,288.91 188.41,289.05 188.13,289.19 187.84,289.32 187.55,289.44 187.26,289.56 186.98,289.66 186.69,289.76 186.4,289.85 186.1,289.94 185.81,290.01 185.53,290.07 185.24,290.13 184.96,290.17 184.69,290.2 184.41,290.23 184.15,290.24 183.88,290.23 183.62,290.21 183.36,290.16 183.11,290.1 182.86,290.02 182.61,289.93 182.37,289.82 182.12,289.69 181.88,289.55 181.64,289.39 181.4,289.21 181.16,289.02 180.92,288.83 180.68,288.63 180.44,288.43 180.2,288.22 179.96,288 179.72,287.78 179.48,287.57 179.24,287.36 179,287.16 178.75,286.95 178.51,286.75 178.26,286.55 178.01,286.37 177.76,286.2 177.51,286.05 177.26,285.91 177,285.78 176.75,285.66 176.48,285.57 176.21,285.49 175.93,285.44 175.64,285.42 175.35,285.41 175.05,285.42 174.75,285.44 174.44,285.47 174.13,285.52 173.8,285.58 173.48,285.66 173.14,285.74 172.81,285.83 172.49,285.92 172.16,286 171.83,286.1 171.5,286.2 171.18,286.3 170.86,286.39 170.55,286.47 170.25,286.54 169.95,286.61 169.66,286.67 169.37,286.72 169.1,286.75 168.84,286.76 168.6,286.75 168.36,286.73 168.14,286.69 167.93,286.62 167.74,286.54 167.57,286.43 167.42,286.3 167.28,286.14 167.17,285.95 167.07,285.75 166.99,285.53 166.91,285.3 166.86,285.06 166.82,284.79 166.79,284.51 166.77,284.21 166.76,283.91 166.75,283.61 166.75,283.29 166.75,282.97 166.76,282.63 166.78,282.3 166.79,281.96 166.79,281.63 166.79,281.29 166.79,280.95 166.79,280.62 166.78,280.28 166.76,279.96 166.73,279.64 166.68,279.34 166.63,279.04 166.57,278.75 166.49,278.47 166.4,278.19 166.28,277.93 166.15,277.68 165.99,277.44 165.82,277.21 165.63,276.98 165.43,276.76 165.22,276.55 165,276.33 164.76,276.12 164.5,275.91 164.25,275.71 163.99,275.5 163.73,275.3 163.47,275.1 163.2,274.91 162.93,274.71 162.67,274.51 162.41,274.32 162.16,274.12 161.92,273.92 161.69,273.73 161.46,273.53 161.24,273.33 161.05,273.13 160.87,272.92 160.72,272.71 160.57,272.5 160.45,272.29 160.35,272.07 160.27,271.85 160.21,271.63 160.18,271.4 160.18,271.17 160.19,270.94 160.23,270.7 160.28,270.47 160.35,270.23 160.43,269.99 160.53,269.76 160.65,269.52 160.78,269.28 160.91,269.03 161.06,268.79 161.21,268.55 161.37,268.3 161.54,268.06 161.72,267.81 161.89,267.56 162.07,267.31 162.24,267.06 162.43,266.8 162.61,266.55 162.79,266.29 162.96,266.04 163.13,265.78 163.28,265.52 163.43,265.26 163.58,265 163.72,264.74 163.85,264.47 163.96,264.2 164.07,263.93 164.16,263.65 164.25,263.36 164.33,263.08 164.4,262.78 164.48,262.49 164.55,262.19 164.61,261.88 164.67,261.57 164.73,261.26 164.78,260.94 164.84,260.63 164.9,260.32 164.96,260.01 165.02,259.7 165.08,259.39 165.14,259.08 165.21,258.78 165.29,258.48 165.37,258.19 165.45,257.9 165.55,257.61 165.65,257.34 165.76,257.07 165.88,256.81 166.01,256.56 166.15,256.32 166.3,256.08 166.46,255.86 166.63,255.64 166.81,255.43 167.01,255.23 167.22,255.04 167.44,254.86 167.67,254.68 167.9,254.5 168.15,254.33 168.4,254.17 168.66,254.01 168.93,253.86 169.2,253.71 169.48,253.56 169.76,253.42 170.05,253.29 170.34,253.16 170.64,253.04 170.94,252.92 171.24,252.81 171.54,252.7 171.85,252.59 172.15,252.49 172.46,252.4 172.76,252.31 173.07,252.22 173.37,252.14 173.66,252.06 173.96,251.99 174.25,251.92 174.55,251.86 174.85,251.79 175.15,251.73 175.45,251.68 175.74,251.62 176.04,251.57 176.35,251.53 176.65,251.48 176.97,251.44 177.28,251.4 177.6,251.37 177.92,251.34 178.24,251.31 178.56,251.29 178.88,251.28 179.2,251.27 179.52,251.26 179.84,251.26 180.15,251.27 180.46,251.29 180.77,251.31 181.08,251.34 181.38,251.38 181.68,251.43 181.97,251.48 182.25,251.54 182.53,251.62 182.8,251.69 183.07,251.78 183.33,251.88 183.58,251.99 183.83,252.12 184.06,252.26 184.29,252.41 184.51,252.58 184.73,252.76 184.94,252.95 185.14,253.15 185.34,253.37 185.54,253.6 185.72,253.84 185.91,254.09 186.09,254.35 186.27,254.6 186.44,254.87 186.61,255.14 186.78,255.42 186.94,255.7 187.11,255.98 187.27,256.26 187.43,256.54 187.59,256.82 187.74,257.1 187.9,257.38 188.05,257.66 188.21,257.92 188.37,258.18 188.52,258.43 188.68,258.67 188.84,258.91 188.99,259.14 189.15,259.37 189.31,259.58 189.47,259.78 189.64,259.98 189.8,260.17 189.96,260.36 190.12,260.55 190.28,260.74 190.44,260.92 190.6,261.1 190.76,261.27 190.92,261.44 191.07,261.62 191.23,261.79 191.38,261.96 191.53,262.13 191.68,262.3 191.83,262.47 191.97,262.64 192.11,262.81 192.25,262.98 192.39,263.15 192.53,263.33 192.66,263.5 192.79,263.68 192.91,263.87 193.03,264.06 193.15,264.25 193.26,264.44 193.37,264.63 193.48,264.83 193.58,265.04 193.68,265.25 193.78,265.46 193.87,265.67 193.96,265.88 194.05,266.1 194.14,266.32 194.22,266.54 194.3,266.76 194.38,266.98 194.45,267.21 194.53,267.43 194.6,267.66 194.66,267.89 194.73,268.12 194.79,268.35 194.85,268.58 194.9,268.81 194.96,269.04 195.01,269.28 195.05,269.51 195.1,269.75 195.14,269.98 195.17,270.22 195.21,270.45 195.24,270.68 195.27,270.92 195.29,271.15 195.31,271.39" fill="#b9d3e6" stroke="#94a9b8" stroke-width="1.2" stroke-linejoin="round"/></g><g id="cd-the-sundered-reach-westshore"><polyline points="307.5,0 306,6.65 303.66,15.42 300.83,25.84 297.89,37.48 295.19,49.87 293.09,62.58 291.94,75.15 292.13,87.12 294.13,98.96 297.83,111.29 302.64,123.9 307.98,136.61 313.26,149.22 317.89,161.54 321.29,173.36 322.88,184.5 322.55,194.75 320.83,204.22 318.06,213.16 314.55,221.82 310.64,230.46 306.66,239.33 302.94,248.7 299.81,258.81 296.81,269.68 293.43,281.07 289.91,292.87 286.52,304.94 283.51,317.17 281.13,329.44 279.65,341.63 279.31,353.62 280.75,365.69 283.98,378.05 288.36,390.53 293.25,402.95 297.99,415.14 301.95,426.9 304.48,438.06 304.94,448.44 302.94,458.35 298.93,468.12 293.53,477.53 287.32,486.39 280.91,494.52 274.91,501.71 269.9,507.77 266.5,512.5" fill="none" stroke="#8fa8b8" stroke-width="2" stroke-linejoin="round" stroke-linecap="round"/></g><g id="cd-the-sundered-reach-eastshore"><polyline points="522.75,0 525.65,8.73 530.08,20.38 535.41,34.25 541.01,49.65 546.25,65.89 550.5,82.28 553.12,98.13 553.5,112.75 550.92,126.77 545.67,141.12 538.64,155.56 530.69,169.83 522.72,183.69 515.59,196.9 510.18,209.21 507.37,220.37 507.55,230 510.05,238.16 514.16,245.29 519.16,251.83 524.36,258.22 529.04,264.89 532.5,272.29 534.03,280.85 533.3,290.64 530.87,301.27 527.3,312.49 523.17,324.06 519.05,335.74 515.51,347.29 513.14,358.45 512.5,369 513.75,378.99 516.41,388.67 520.1,398.11 524.45,407.34 529.06,416.43 533.56,425.42 537.56,434.36 540.69,443.31 543.11,452.68 545.27,462.59 547.18,472.67 548.86,482.55 550.31,491.85 551.56,500.19 552.62,507.2 553.5,512.5" fill="none" stroke="#8fa8b8" stroke-width="2" stroke-linejoin="round" stroke-linecap="round"/></g><g id="cd-the-sundered-reach-farwest"><polyline points="30.75,0 32.68,11.79 35.63,27.39 39.19,45.94 42.92,66.63 46.42,88.59 49.25,110.99 51,132.99 51.25,153.75 49.4,174.07 45.6,195.11 40.54,216.53 34.91,237.99 29.4,259.18 24.7,279.75 21.51,299.39 20.5,317.75 22.15,334.97 25.99,351.42 31.33,367.13 37.48,382.13 43.75,396.45 49.45,410.12 53.89,423.17 56.37,435.62 56.8,447.72 55.77,459.53 53.69,470.83 50.93,481.43 47.89,491.1 44.96,499.65 42.54,506.85 41,512.5" fill="none" stroke="#8fa8b8" stroke-width="2" stroke-linejoin="round" stroke-linecap="round"/></g><g id="cd-the-sundered-reach-fareast"><polyline points="789.25,0 787.32,11.14 784.37,26.03 780.81,43.75 777.08,63.42 773.58,84.13 770.75,104.98 769,125.07 768.75,143.5 770.6,160.65 774.4,177.53 779.46,194.22 785.09,210.77 790.6,227.23 795.3,243.68 798.49,260.16 799.5,276.75 797.75,293.62 793.65,310.78 788,328.07 781.56,345.3 775.13,362.28 769.47,378.85 765.38,394.82 763.62,410 764.49,424.98 767.35,440.19 771.63,455.19 776.76,469.58 782.17,482.92 787.29,494.8 791.55,504.8 794.37,512.5" fill="none" stroke="#8fa8b8" stroke-width="2" stroke-linejoin="round" stroke-linecap="round"/></g><g id="cd-the-sundered-reach-westspine"><polyline points="123,87.12 130.27,93.07 140.12,101 151.85,110.44 164.8,120.92 178.29,131.98 191.65,143.16 204.19,153.99 215.25,164 225.47,173.92 235.79,184.5 245.92,195.32 255.61,205.96 264.57,216 272.55,225.02 279.26,232.6 284.44,238.31" fill="none" stroke="#a99a85" stroke-width="14" opacity="0.5" stroke-linejoin="round" stroke-linecap="round"/><polyline points="123,87.12 130.27,93.07 140.12,101 151.85,110.44 164.8,120.92 178.29,131.98 191.65,143.16 204.19,153.99 215.25,164 225.47,173.92 235.79,184.5 245.92,195.32 255.61,205.96 264.57,216 272.55,225.02 279.26,232.6 284.44,238.31" fill="none" stroke="#8d8171" stroke-width="2.5" stroke-linejoin="round"/></g><g id="cd-the-sundered-reach-eastspine"><polyline points="534.03,282.9 539.85,287.77 547.57,294.26 556.76,301.99 566.99,310.57 577.84,319.64 588.88,328.81 599.7,337.7 609.88,345.94 620.18,354.12 631.34,362.86 642.89,371.82 654.33,380.63 665.18,388.95 674.95,396.42 683.16,402.7 689.31,407.44" fill="none" stroke="#a99a85" stroke-width="14" opacity="0.5" stroke-linejoin="round" stroke-linecap="round"/><polyline points="534.03,282.9 539.85,287.77 547.57,294.26 556.76,301.99 566.99,310.57 577.84,319.64 588.88,328.81 599.7,337.7 609.88,345.94 620.18,354.12 631.34,362.86 642.89,371.82 654.33,380.63 665.18,388.95 674.95,396.42 683.16,402.7 689.31,407.44" fill="none" stroke="#8d8171" stroke-width="2.5" stroke-linejoin="round"/></g><g id="cd-the-sundered-reach-spur"><polyline points="87.12,61.5 91.87,64.19 98.18,68.11 105.68,72.81 114.03,77.84 122.86,82.75 131.81,87.08 140.52,90.4 148.63,92.25 156.73,92.43 165.44,91.29 174.39,89.19 183.22,86.48 191.57,83.54 199.07,80.72 205.38,78.38 210.12,76.88" fill="none" stroke="#a99a85" stroke-width="14" opacity="0.5" stroke-linejoin="round" stroke-linecap="round"/><polyline points="87.12,61.5 91.87,64.19 98.18,68.11 105.68,72.81 114.03,77.84 122.86,82.75 131.81,87.08 140.52,90.4 148.63,92.25 156.73,92.43 165.44,91.29 174.39,89.19 183.22,86.48 191.57,83.54 199.07,80.72 205.38,78.38 210.12,76.88" fill="none" stroke="#8d8171" stroke-width="2.5" stroke-linejoin="round"/></g><g id="cd-the-sundered-reach-vael"><polyline points="215.25,164 213.38,168.52 210.8,174.72 207.71,182.12 204.34,190.24 200.89,198.6 197.57,206.73 194.6,214.15 192.19,220.37 190.25,225.69 188.55,230.67 187.06,235.28 185.78,239.48 184.67,243.25 183.73,246.53 182.93,249.31 182.25,251.54" fill="none" stroke="#7fa8cf" stroke-width="2" stroke-linejoin="round" stroke-linecap="round"/></g><g id="cd-the-sundered-reach-serren"><polyline points="166.91,285.3 163.54,286.67 159.08,288.53 153.76,290.75 147.84,293.2 141.56,295.72 135.16,298.19 128.9,300.45 123,302.38 117.4,303.94 111.84,305.27 106.27,306.43 100.65,307.52 94.94,308.61 89.1,309.77 83.09,311.08 76.88,312.63 70.03,314.52 62.41,316.75 54.39,319.16 46.36,321.64 38.69,324.03 31.75,326.2 25.94,328.03 21.61,329.36" fill="none" stroke="#7fa8cf" stroke-width="2" stroke-linejoin="round" stroke-linecap="round"/></g><g id="cd-the-sundered-reach-coldrun"><polyline points="156.64,114.31 161.6,112.56 168.26,110.19 176.19,107.36 184.98,104.24 194.21,101 203.46,97.81 212.32,94.84 220.37,92.25 228.05,90.02 235.92,87.96 243.8,86.04 251.5,84.21 258.84,82.42 265.62,80.64 271.65,78.8 276.75,76.88 280.85,74.76 284.1,72.46 286.65,70.07 288.62,67.7 290.15,65.45 291.37,63.42 292.42,61.72 293.44,60.45" fill="none" stroke="#7fa8cf" stroke-width="2" stroke-linejoin="round" stroke-linecap="round"/></g><g id="cd-the-sundered-reach-sathwater"><polyline points="573.39,315.92 572.53,321.09 571.26,328.26 569.75,336.83 568.13,346.19 566.57,355.72 565.21,364.82 564.22,372.86 563.75,379.25 563.88,384.16 564.5,388.24 565.47,391.61 566.66,394.38 567.92,396.65 569.12,398.53 570.12,400.14 570.77,401.59" fill="none" stroke="#7fa8cf" stroke-width="2" stroke-linejoin="round" stroke-linecap="round"/></g><g id="cd-the-sundered-reach-deepflow"><polyline points="609.88,345.94 615.48,341.73 623.01,336.09 631.98,329.36 641.91,321.91 652.32,314.11 662.73,306.3 672.66,298.85 681.62,292.13 689.89,285.77 698.02,279.3 705.99,272.85 713.81,266.57 721.44,260.6 728.88,255.09 736.11,250.17 743.12,246 750.17,242.62 757.37,239.92 764.52,237.8 771.39,236.14 777.79,234.84 783.49,233.8 788.29,232.9 791.97,232.04" fill="none" stroke="#7fa8cf" stroke-width="2" stroke-linejoin="round" stroke-linecap="round"/></g><g id="cd-the-sundered-reach-reedrun"><polyline points="552.51,298.42 550.55,300.7 547.85,303.71 544.64,307.3 541.12,311.3 537.47,315.53 533.92,319.84 530.65,324.05 527.88,328 525.46,331.99 523.15,336.3 520.97,340.76 518.96,345.16 517.14,349.34 515.55,353.1 514.2,356.26 513.13,358.63" fill="none" stroke="#7fa8cf" stroke-width="2" stroke-linejoin="round" stroke-linecap="round"/></g><g id="cd-the-sundered-reach-kingsway"><polyline points="153.75,174.25 154.97,179.86 156.63,187.38 158.61,196.35 160.8,206.28 163.06,216.69 165.28,227.1 167.34,237.03 169.12,246 170.79,254.25 172.53,262.34 174.24,270.26 175.85,278.03 177.26,285.64 178.37,293.09 179.11,300.37 179.37,307.5 179,314.75 178.01,322.23 176.58,329.72 174.89,336.97 173.12,343.74 171.45,349.78 170.06,354.87 169.12,358.75" fill="none" stroke="#c3a878" stroke-width="2" stroke-linejoin="round" stroke-linecap="round"/></g><g id="cd-the-sundered-reach-the-vakh-path"><polyline points="117.87,46.12 119.96,51.3 122.84,58.22 126.28,66.45 130.05,75.59 133.89,85.21 137.57,94.89 140.86,104.21 143.5,112.75 145.59,121.1 147.38,129.93 148.92,138.89 150.23,147.66 151.33,155.92 152.27,163.32 153.06,169.54 153.75,174.25" fill="none" stroke="#c3a878" stroke-width="2" stroke-dasharray="6 4" stroke-linejoin="round" stroke-linecap="round"/></g><g id="cd-the-sundered-reach-aumgap-pass"><polyline points="194.75,133.25 233.19,194.75" fill="none" stroke="#a89880" stroke-width="2" stroke-dasharray="4 4" stroke-linejoin="round" stroke-linecap="round"/></g><g id="cd-the-sundered-reach-stoneway"><polyline points="640.63,338.25 637.93,341.45 634.42,345.74 630.25,350.85 625.57,356.51 620.53,362.45 615.28,368.4 609.97,374.09 604.75,379.25 599.16,384.22 592.86,389.42 586.18,394.66 579.45,399.75 572.99,404.52 567.15,408.8 562.25,412.39 558.63,415.12" fill="none" stroke="#c3a878" stroke-width="2" stroke-linejoin="round" stroke-linecap="round"/></g><g id="cd-the-sundered-reach-the-deep-road"><polyline points="640.63,338.25 644.11,334.26 648.67,328.92 654.09,322.56 660.16,315.51 666.68,308.1 673.42,300.65 680.18,293.51 686.75,287 693.37,280.78 700.35,274.39 707.56,267.99 714.89,261.71 722.23,255.71 729.46,250.14 736.47,245.15 743.12,240.87 749.75,237.36 756.6,234.46 763.44,232.1 770.05,230.18 776.23,228.63 781.75,227.34 786.39,226.25 789.93,225.25" fill="none" stroke="#c3a878" stroke-width="2" stroke-linejoin="round" stroke-linecap="round"/></g><g><title>The Accord line - contested at every ford.</title><polyline points="153.75,174.25 154.97,179.86 156.63,187.38 158.61,196.35 160.8,206.28 163.06,216.69 165.28,227.1 167.34,237.03 169.12,246 170.79,254.25 172.53,262.34 174.24,270.26 175.85,278.03 177.26,285.64 178.37,293.09 179.11,300.37 179.37,307.5 179,314.75 178.01,322.23 176.58,329.72 174.89,336.97 173.12,343.74 171.45,349.78 170.06,354.87 169.12,358.75" fill="none" stroke="#a05a5a" stroke-width="2" stroke-dasharray="8 4" stroke-linejoin="round" stroke-linecap="round"/></g><g><polyline points="123,87.12 130.27,93.07 140.12,101 151.85,110.44 164.8,120.92 178.29,131.98 191.65,143.16 204.19,153.99 215.25,164 225.47,173.92 235.79,184.5 245.92,195.32 255.61,205.96 264.57,216 272.55,225.02 279.26,232.6 284.44,238.31" fill="none" stroke="#a05a5a" stroke-width="2" stroke-dasharray="8 4" stroke-linejoin="round" stroke-linecap="round"/></g><g><polyline points="534.03,282.9 539.85,287.77 547.57,294.26 556.76,301.99 566.99,310.57 577.84,319.64 588.88,328.81 599.7,337.7 609.88,345.94 620.18,354.12 631.34,362.86 642.89,371.82 654.33,380.63 665.18,388.95 674.95,396.42 683.16,402.7 689.31,407.44" fill="none" stroke="#a05a5a" stroke-width="2" stroke-dasharray="8 4" stroke-linejoin="round" stroke-linecap="round"/></g><g id="cd-the-sundered-reach-corven"><rect x="147.75" y="168.25" width="12" height="12" fill="#3d3629" transform="rotate(45 153.75 174.25)"/></g><g id="cd-the-sundered-reach-marrowgate"><rect x="163.12" y="352.75" width="12" height="12" fill="#3d3629" transform="rotate(45 169.12 358.75)"/></g><g id="cd-the-sundered-reach-fairhaven"><circle cx="314.04" cy="151.29" r="4" fill="#3d3629" stroke="#fff" stroke-width="1"/></g><g id="cd-the-sundered-reach-tornquay"><circle cx="281.61" cy="326.96" r="3" fill="#3d3629" stroke="#fff" stroke-width="1"/></g><g id="cd-the-sundered-reach-ghorvakh"><rect x="111.87" y="40.12" width="12" height="12" fill="#3d3629" transform="rotate(45 117.87 46.12)"/></g><g id="cd-the-sundered-reach-khundrumgate"><rect x="634.63" y="332.25" width="12" height="12" fill="#3d3629" transform="rotate(45 640.63 338.25)"/></g><g id="cd-the-sundered-reach-deepwatch"><circle cx="789.93" cy="225.25" r="4" fill="#3d3629" stroke="#fff" stroke-width="1"/></g><g id="cd-the-sundered-reach-ssurath"><rect x="552.63" y="409.12" width="12" height="12" fill="#3d3629" transform="rotate(45 558.63 415.12)"/></g><g id="cd-the-sundered-reach-reedhome"><circle cx="512.98" cy="361.03" r="4" fill="#3d3629" stroke="#fff" stroke-width="1"/></g><g id="cd-the-sundered-reach-ilvarien"><rect x="398.87" y="257.42" width="12" height="12" fill="#3d3629" transform="rotate(45 404.87 263.42)"/></g><g id="cd-the-sundered-reach-the-drowned-throne"><title>The old world's capital. What sleeps beneath still dreams of unity.</title><circle cx="422.81" cy="240.87" r="3" fill="#3d3629" stroke="#fff" stroke-width="1"/></g><g id="cd-the-sundered-reach-elder-aums-seat"><circle cx="220.37" cy="169.12" r="3" fill="#3d3629" stroke="#fff" stroke-width="1"/></g><g id="cd-the-sundered-reach-the-echo-stair"><circle cx="589.38" cy="328" r="3" fill="#3d3629" stroke="#fff" stroke-width="1"/></g><g id="cd-the-sundered-reach-the-sundering-stone"><circle cx="358.75" cy="279.31" r="3" fill="#3d3629" stroke="#fff" stroke-width="1"/></g><text x="119.08" y="293.42" font-size="14" letter-spacing="4" fill="#5a7a96" opacity="0.6" text-anchor="middle" font-family="sans-serif">THE WHALEGREY DEEP</text><text x="731.22" y="265.04" font-size="14" letter-spacing="4" fill="#5a7a96" opacity="0.6" text-anchor="middle" font-family="sans-serif">THE DAWNWATER</text><path id="cdlp-the-sundered-reach-0" d="M123 87.12L130.27 93.07L140.12 101L151.85 110.44L164.8 120.92L178.29 131.98L191.65 143.16L204.19 153.99L215.25 164L225.47 173.92L235.79 184.5L245.92 195.32L255.61 205.96L264.57 216L272.55 225.02L279.26 232.6L284.44 238.31" fill="none"/><text font-size="10" fill="#3d3629" opacity="0.75" font-style="italic" font-family="sans-serif"><textPath href="#cdlp-the-sundered-reach-0" startOffset="38%"><tspan dy="-4">The Spine of Aum</tspan></textPath></text><path id="cdlp-the-sundered-reach-1" d="M534.03 282.9L539.85 287.77L547.57 294.26L556.76 301.99L566.99 310.57L577.84 319.64L588.88 328.81L599.7 337.7L609.88 345.94L620.18 354.12L631.34 362.86L642.89 371.82L654.33 380.63L665.18 388.95L674.95 396.42L683.16 402.7L689.31 407.44" fill="none"/><text font-size="10" fill="#3d3629" opacity="0.75" font-style="italic" font-family="sans-serif"><textPath href="#cdlp-the-sundered-reach-1" startOffset="38%"><tspan dy="-4">The Broken Spine</tspan></textPath></text><path id="cdlp-the-sundered-reach-2" d="M87.12 61.5L91.87 64.19L98.18 68.11L105.68 72.81L114.03 77.84L122.86 82.75L131.81 87.08L140.52 90.4L148.63 92.25L156.73 92.43L165.44 91.29L174.39 89.19L183.22 86.48L191.57 83.54L199.07 80.72L205.38 78.38L210.12 76.88" fill="none"/><text font-size="10" fill="#3d3629" opacity="0.75" font-style="italic" font-family="sans-serif"><textPath href="#cdlp-the-sundered-reach-2" startOffset="38%"><tspan dy="-4">The Vakh Teeth</tspan></textPath></text><text x="332.1" y="232.93" font-size="11" fill="#3d3629" opacity="0.8" text-anchor="middle" font-style="italic" font-family="sans-serif">Skarnholt</text><text x="404.87" y="291.62" font-size="11" fill="#3d3629" opacity="0.8" text-anchor="middle" font-style="italic" font-family="sans-serif">Ilvarien Isle</text><text x="485.85" y="262.65" font-size="11" fill="#3d3629" opacity="0.8" text-anchor="middle" font-style="italic" font-family="sans-serif">Vessel Isle</text><text x="376.69" y="328.01" font-size="11" fill="#3d3629" opacity="0.8" text-anchor="middle" font-style="italic" font-family="sans-serif">Thornshoal</text><text x="143.5" y="206.27" font-size="11" fill="#3d3629" opacity="0.8" text-anchor="middle" font-style="italic" font-family="sans-serif">The Kingswood</text><text x="128.13" y="402.32" font-size="11" fill="#3d3629" opacity="0.8" text-anchor="middle" font-style="italic" font-family="sans-serif">Thornmark Weald</text><text x="666.25" y="62.78" font-size="11" fill="#3d3629" opacity="0.8" text-anchor="middle" font-style="italic" font-family="sans-serif">The White Reach</text><text x="579.13" y="466.39" font-size="11" fill="#3d3629" opacity="0.8" text-anchor="middle" font-style="italic" font-family="sans-serif">The Sathriss Sink</text><text x="707.25" y="447.15" font-size="11" fill="#3d3629" opacity="0.8" text-anchor="middle" font-style="italic" font-family="sans-serif">The Green Throat</text><text x="179.08" y="258.21" font-size="10" letter-spacing="2" fill="#5a7a96" opacity="0.6" text-anchor="middle" font-family="sans-serif">LAKE VAEL</text><path id="cdlp-the-sundered-reach-3" d="M182.25 251.54L182.93 249.31L183.73 246.53L184.67 243.25L185.78 239.48L187.06 235.28L188.55 230.67L190.25 225.69L192.19 220.37L194.6 214.15L197.57 206.73L200.89 198.6L204.34 190.24L207.71 182.12L210.8 174.72L213.38 168.52L215.25 164" fill="none"/><text font-size="10" fill="#3d3629" opacity="0.75" font-style="italic" font-family="sans-serif"><textPath href="#cdlp-the-sundered-reach-3" startOffset="38%"><tspan dy="-4">The Vael</tspan></textPath></text><path id="cdlp-the-sundered-reach-4" d="M21.61 329.36L25.94 328.03L31.75 326.2L38.69 324.03L46.36 321.64L54.39 319.16L62.41 316.75L70.03 314.52L76.88 312.63L83.09 311.08L89.1 309.77L94.94 308.61L100.65 307.52L106.27 306.43L111.84 305.27L117.4 303.94L123 302.38L128.9 300.45L135.16 298.19L141.56 295.72L147.84 293.2L153.76 290.75L159.08 288.53L163.54 286.67L166.91 285.3" fill="none"/><text font-size="10" fill="#3d3629" opacity="0.75" font-style="italic" font-family="sans-serif"><textPath href="#cdlp-the-sundered-reach-4" startOffset="38%"><tspan dy="-4">The Serren</tspan></textPath></text><path id="cdlp-the-sundered-reach-5" d="M156.64 114.31L161.6 112.56L168.26 110.19L176.19 107.36L184.98 104.24L194.21 101L203.46 97.81L212.32 94.84L220.37 92.25L228.05 90.02L235.92 87.96L243.8 86.04L251.5 84.21L258.84 82.42L265.62 80.64L271.65 78.8L276.75 76.88L280.85 74.76L284.1 72.46L286.65 70.07L288.62 67.7L290.15 65.45L291.37 63.42L292.42 61.72L293.44 60.45" fill="none"/><text font-size="10" fill="#3d3629" opacity="0.75" font-style="italic" font-family="sans-serif"><textPath href="#cdlp-the-sundered-reach-5" startOffset="38%"><tspan dy="-4">The Coldrun</tspan></textPath></text><path id="cdlp-the-sundered-reach-6" d="M570.77 401.59L570.12 400.14L569.12 398.53L567.92 396.65L566.66 394.38L565.47 391.61L564.5 388.24L563.88 384.16L563.75 379.25L564.22 372.86L565.21 364.82L566.57 355.72L568.13 346.19L569.75 336.83L571.26 328.26L572.53 321.09L573.39 315.92" fill="none"/><text font-size="10" fill="#3d3629" opacity="0.75" font-style="italic" font-family="sans-serif"><textPath href="#cdlp-the-sundered-reach-6" startOffset="38%"><tspan dy="-4">The Sathwater</tspan></textPath></text><path id="cdlp-the-sundered-reach-7" d="M609.88 345.94L615.48 341.73L623.01 336.09L631.98 329.36L641.91 321.91L652.32 314.11L662.73 306.3L672.66 298.85L681.62 292.13L689.89 285.77L698.02 279.3L705.99 272.85L713.81 266.57L721.44 260.6L728.88 255.09L736.11 250.17L743.12 246L750.17 242.62L757.37 239.92L764.52 237.8L771.39 236.14L777.79 234.84L783.49 233.8L788.29 232.9L791.97 232.04" fill="none"/><text font-size="10" fill="#3d3629" opacity="0.75" font-style="italic" font-family="sans-serif"><textPath href="#cdlp-the-sundered-reach-7" startOffset="38%"><tspan dy="-4">The Deepflow</tspan></textPath></text><path id="cdlp-the-sundered-reach-8" d="M513.13 358.63L514.2 356.26L515.55 353.1L517.14 349.34L518.96 345.16L520.97 340.76L523.15 336.3L525.46 331.99L527.88 328L530.65 324.05L533.92 319.84L537.47 315.53L541.12 311.3L544.64 307.3L547.85 303.71L550.55 300.7L552.51 298.42" fill="none"/><text font-size="10" fill="#3d3629" opacity="0.75" font-style="italic" font-family="sans-serif"><textPath href="#cdlp-the-sundered-reach-8" startOffset="38%"><tspan dy="-4">The Reedrun</tspan></textPath></text><text x="162.75" y="178.25" font-size="15" font-weight="bold" fill="#3d3629" text-anchor="start" font-family="sans-serif">Corven</text><text x="178.12" y="362.75" font-size="15" font-weight="bold" fill="#3d3629" text-anchor="start" font-family="sans-serif">Marrowgate</text><text x="321.04" y="155.29" font-size="11" font-weight="normal" fill="#3d3629" text-anchor="start" font-family="sans-serif">Fairhaven</text><text x="287.61" y="330.96" font-size="10" font-weight="normal" fill="#3d3629" text-anchor="start" font-family="sans-serif">Tornquay</text><text x="126.87" y="50.12" font-size="15" font-weight="bold" fill="#3d3629" text-anchor="start" font-family="sans-serif">Ghor Vakh Hold</text><text x="649.63" y="342.25" font-size="15" font-weight="bold" fill="#3d3629" text-anchor="start" font-family="sans-serif">Khundrum Gate</text><text x="796.93" y="229.25" font-size="11" font-weight="normal" fill="#3d3629" text-anchor="start" font-family="sans-serif">Deepwatch</text><text x="567.63" y="419.12" font-size="15" font-weight="bold" fill="#3d3629" text-anchor="start" font-family="sans-serif">Ssurath</text><text x="519.98" y="365.03" font-size="11" font-weight="normal" fill="#3d3629" text-anchor="start" font-family="sans-serif">Reedhome</text><text x="413.87" y="304.42" font-size="15" font-weight="bold" fill="#3d3629" text-anchor="start" font-family="sans-serif">Ilvarien</text><path id="cdlp-the-sundered-reach-9" d="M153.75 174.25L154.97 179.86L156.63 187.38L158.61 196.35L160.8 206.28L163.06 216.69L165.28 227.1L167.34 237.03L169.12 246L170.79 254.25L172.53 262.34L174.24 270.26L175.85 278.03L177.26 285.64L178.37 293.09L179.11 300.37L179.37 307.5L179 314.75L178.01 322.23L176.58 329.72L174.89 336.97L173.12 343.74L171.45 349.78L170.06 354.87L169.12 358.75" fill="none"/><text font-size="10" fill="#3d3629" opacity="0.75" font-style="italic" font-family="sans-serif"><textPath href="#cdlp-the-sundered-reach-9" startOffset="38%"><tspan dy="-4">The Long Kingsway</tspan></textPath></text><path id="cdlp-the-sundered-reach-10" d="M117.87 46.12L119.96 51.3L122.84 58.22L126.28 66.45L130.05 75.59L133.89 85.21L137.57 94.89L140.86 104.21L143.5 112.75L145.59 121.1L147.38 129.93L148.92 138.89L150.23 147.66L151.33 155.92L152.27 163.32L153.06 169.54L153.75 174.25" fill="none"/><text font-size="10" fill="#3d3629" opacity="0.75" font-style="italic" font-family="sans-serif"><textPath href="#cdlp-the-sundered-reach-10" startOffset="38%"><tspan dy="-4">The Vakh Path</tspan></textPath></text><path id="cdlp-the-sundered-reach-11" d="M194.75 133.25L233.19 194.75" fill="none"/><text font-size="10" fill="#3d3629" opacity="0.75" font-style="italic" font-family="sans-serif"><textPath href="#cdlp-the-sundered-reach-11" startOffset="38%"><tspan dy="-4">Aumgap Pass</tspan></textPath></text><path id="cdlp-the-sundered-reach-12" d="M558.63 415.12L562.25 412.39L567.15 408.8L572.99 404.52L579.45 399.75L586.18 394.66L592.86 389.42L599.16 384.22L604.75 379.25L609.97 374.09L615.28 368.4L620.53 362.45L625.57 356.51L630.25 350.85L634.42 345.74L637.93 341.45L640.63 338.25" fill="none"/><text font-size="10" fill="#3d3629" opacity="0.75" font-style="italic" font-family="sans-serif"><textPath href="#cdlp-the-sundered-reach-12" startOffset="38%"><tspan dy="-4">The Understone Way</tspan></textPath></text><path id="cdlp-the-sundered-reach-13" d="M640.63 338.25L644.11 334.26L648.67 328.92L654.09 322.56L660.16 315.51L666.68 308.1L673.42 300.65L680.18 293.51L686.75 287L693.37 280.78L700.35 274.39L707.56 267.99L714.89 261.71L722.23 255.71L729.46 250.14L736.47 245.15L743.12 240.87L749.75 237.36L756.6 234.46L763.44 232.1L770.05 230.18L776.23 228.63L781.75 227.34L786.39 226.25L789.93 225.25" fill="none"/><text font-size="10" fill="#3d3629" opacity="0.75" font-style="italic" font-family="sans-serif"><textPath href="#cdlp-the-sundered-reach-13" startOffset="38%"><tspan dy="-4">The Deep Road</tspan></textPath></text><text x="428.81" y="244.87" font-size="10" font-weight="normal" fill="#3d3629" text-anchor="start" font-family="sans-serif">The Drowned Throne</text><text x="226.37" y="173.12" font-size="10" font-weight="normal" fill="#3d3629" text-anchor="start" font-family="sans-serif">Elder Aum's Seat</text><text x="583.38" y="332" font-size="10" font-weight="normal" fill="#3d3629" text-anchor="end" font-family="sans-serif">The Echo Stair</text><text x="352.75" y="283.31" font-size="10" font-weight="normal" fill="#3d3629" text-anchor="end" font-family="sans-serif">The Sundering Stone</text><text x="167.29" y="155.92" font-size="15" letter-spacing="5" fill="#6b5d4a" opacity="0.6" text-anchor="middle" font-family="sans-serif">VALEMARK</text><text x="190.91" y="386.3" font-size="15" letter-spacing="5" fill="#6b5d4a" opacity="0.6" text-anchor="middle" font-family="sans-serif">CARROWEN</text><text x="159.61" y="74.14" font-size="15" letter-spacing="5" fill="#6b5d4a" opacity="0.6" text-anchor="middle" font-family="sans-serif">GHOR VAKH</text><text x="657.99" y="197.95" font-size="15" letter-spacing="5" fill="#6b5d4a" opacity="0.6" text-anchor="middle" font-family="sans-serif">KHUNDRUM</text><text x="634.55" y="395.62" font-size="15" letter-spacing="5" fill="#6b5d4a" opacity="0.6" text-anchor="middle" font-family="sans-serif">SATHRISS</text><text x="413.84" y="321.36" font-size="15" letter-spacing="5" fill="#6b5d4a" opacity="0.6" text-anchor="middle" font-family="sans-serif">ILVARIEN</text><text x="417.69" y="123" font-size="16" letter-spacing="8" fill="#5a7a96" opacity="0.85" text-anchor="middle" font-family="sans-serif" transform="rotate(90 417.69 123)">THE SUNDERED SEA</text><text x="14" y="22" font-size="16" font-weight="bold" fill="#3d3629" font-family="sans-serif">The Sundered Reach</text><g><circle cx="786" cy="40" r="14" fill="none" stroke="#3d3629" stroke-width="1"/><polygon points="786,29 782,46 790,46" fill="#3d3629"/><text x="786" y="23" font-size="9" fill="#3d3629" text-anchor="middle" font-family="sans-serif">N</text></g><g><line x1="14" y1="496.5" x2="116.5" y2="496.5" stroke="#3d3629" stroke-width="2"/><line x1="14" y1="492.5" x2="14" y2="500.5" stroke="#3d3629" stroke-width="2"/><line x1="116.5" y1="492.5" x2="116.5" y2="500.5" stroke="#3d3629" stroke-width="2"/><text x="65.25" y="490.5" font-size="9" fill="#3d3629" text-anchor="middle" font-family="sans-serif">200mi</text></g></svg>