<svg xmlns="http://www.w3.org/2000/svg" viewBox="0 0 820 512.5" width="820" height="512.5" font-family="sans-serif"><rect x="0" y="0" width="820" height="512.5" fill="#f9f5ea"/><g id="cd-the-sundered-reach-the-sundered-sea"><polygon points="307.5,0 287,92.25 317.75,215.25 276.75,358.75 302.38,451 266.5,512.5 553.5,512.5 512.5,440.75 543.25,348.5 507.37,230.62 553.5,112.75 522.75,0" fill="#b9d3e6" stroke="#94a9b8" stroke-width="1.5" stroke-linejoin="round"/></g><g id="cd-the-sundered-reach-the-whalegrey-deep"><polygon points="0,0 30.75,0 51.25,153.75 20.5,317.75 56.37,435.62 41,512.5 0,512.5" fill="#b9d3e6" stroke="#94a9b8" stroke-width="1.5" stroke-linejoin="round"/></g><g id="cd-the-sundered-reach-the-dawnwater"><polygon points="820,0 789.25,0 768.75,143.5 799.5,276.75 763.62,410 794.37,512.5 820,512.5" fill="#b9d3e6" stroke="#94a9b8" stroke-width="1.5" stroke-linejoin="round"/></g><g id="cd-the-sundered-reach-valemark"><polygon points="56.37,123 220.37,66.63 256.25,174.25 240.87,287 179.37,266.5 82,307.5 51.25,164" fill="#d8d3c5" opacity="0.12" stroke="#ada99e" stroke-width="1" stroke-dasharray="10 6" stroke-opacity="0.35"/></g><g id="cd-the-sundered-reach-carrowen"><polygon points="82,307.5 179.37,266.5 240.87,287 276.75,399.75 302.38,451 266.5,507.37 58.94,507.37 56.37,435.62" fill="#d8d3c5" opacity="0.12" stroke="#ada99e" stroke-width="1" stroke-dasharray="10 6" stroke-opacity="0.35"/></g><g id="cd-the-sundered-reach-ghor-vakh"><polygon points="43.56,15.37 287,15.37 284.44,89.69 215.25,82 153.75,102.5 92.25,71.75 51.25,48.69" fill="#d8d3c5" opacity="0.12" stroke="#ada99e" stroke-width="1" stroke-dasharray="10 6" stroke-opacity="0.35"/></g><g id="cd-the-sundered-reach-khundrum"><polygon points="525.31,5.13 786.69,5.13 768.75,143.5 794.37,271.63 584.25,266.5 554.53,115.31" fill="#d8d3c5" opacity="0.12" stroke="#ada99e" stroke-width="1" stroke-dasharray="10 6" stroke-opacity="0.35"/></g><g id="cd-the-sundered-reach-sathriss"><polygon points="507.37,233.19 584.25,269.06 794.37,279.31 763.62,410 791.81,507.37 556.06,507.37 513.53,439.73 542.22,348.5" fill="#d8d3c5" opacity="0.12" stroke="#ada99e" stroke-width="1" stroke-dasharray="10 6" stroke-opacity="0.35"/></g><g id="cd-the-sundered-reach-ilvarien"><polygon points="358.75,87.12 456.12,87.12 466.37,415.12 361.31,420.25" fill="#d8d3c5" opacity="0.12" stroke="#ada99e" stroke-width="1" stroke-dasharray="10 6" stroke-opacity="0.35"/></g><g id="cd-the-sundered-reach-skarnholt"><polygon points="402.84,112.75 399.77,117.69 396.5,121.53 392.49,125.86 387.18,122.89 382.5,121.53 377.65,118.46 376.54,112.75 378.75,107.57 383.36,105.04 387.19,102.65 392.06,101.52 397.58,102.62 400.34,107.53" fill="#e9e2cc" stroke="#bab5a3" stroke-width="1"/><polygon points="394.84,112.83 392.54,114.27 391.52,115.27 390.77,118.04 389.08,115.12 387.59,115.35 384.9,115.08 384.54,112.83 385.94,111.08 388.35,111.29 389.04,110.43 390.39,109.34 392.68,108.94 393.18,111.11" fill="#e9e2cc"/></g><g><polygon points="374.94,184.5 374.83,187.31 372.64,189.06 370.12,189.42 367.73,190.07 365.17,189.3 362.74,187.51 362.09,184.5 364.29,182.23 365.88,180.58 367.51,177.98 370.61,177.43 373.37,179.02 374.29,181.95" fill="#e9e2cc" stroke="#bab5a3" stroke-width="1"/><polygon points="369.61,184.36 369.6,184.64 369.38,184.82 369.13,184.86 368.89,184.92 368.63,184.84 368.39,184.66 368.32,184.36 368.54,184.14 368.7,183.97 368.86,183.71 369.18,183.66 369.45,183.82 369.54,184.11" fill="#e9e2cc"/></g><g id="cd-the-sundered-reach-ilvarien-isle"><polygon points="428.08,251.12 423.82,257.78 419.59,263.14 413.86,268.04 407.08,263.9 401.6,261.66 394.46,258.61 395.04,251.12 393.69,243.27 399.9,238.46 407.27,239.18 412.92,238.34 420.15,238.4 425.54,243.64" fill="#e9e2cc" stroke="#bab5a3" stroke-width="1"/><polygon points="420.08,251.15 416.62,254.29 414.65,256.85 412.17,260.22 409,256.14 406.68,255.48 401.7,255.2 403.04,251.16 400.9,246.73 404.93,244.67 409.17,246.95 411.27,246.17 415.24,244.72 418.36,247.18" fill="#e9e2cc"/></g><g><polygon points="446.96,297.25 445.75,299.66 443.5,300.7 441.94,302.46 439.55,302.52 437.22,301.67 436.79,299.16 434.32,297.25 435.9,294.91 437.01,292.57 439.33,291.04 442.21,290.84 443.73,293.51 445.19,295.11" fill="#e9e2cc" stroke="#bab5a3" stroke-width="1"/><polygon points="441.3,297.07 441.18,297.31 440.96,297.41 440.8,297.59 440.56,297.59 440.33,297.51 440.28,297.26 440.04,297.07 440.2,296.83 440.31,296.6 440.54,296.45 440.83,296.43 440.98,296.69 441.12,296.85" fill="#e9e2cc"/></g><g id="cd-the-sundered-reach-vessel-isle"><polygon points="403.24,338.25 402.85,342.21 400.84,346.05 396.93,348.37 392.92,345.73 388.63,345.77 385.85,342.47 384.76,338.25 388.11,335.11 389.81,332.21 392.5,328.93 396.31,330.87 400.39,331.02 403.77,333.84" fill="#e9e2cc" stroke="#bab5a3" stroke-width="1"/><polygon points="395.63,338.48 395.59,338.88 395.83,339.81 395.23,340.55 394.59,339.23 393.8,339.67 393.16,339.23 392.76,338.45 394.11,338.17 394.28,337.88 394.35,336.72 394.93,337.74 395.59,337.42 396.67,337.53" fill="#e9e2cc"/></g><g id="cd-the-sundered-reach-thornshoal"><polygon points="441.13,399.75 439.89,403.04 437.44,405.24 434.59,406.43 431.34,407.29 429.41,404.34 426.34,402.99 425.65,399.75 426,396.35 427.95,393.33 431.46,392.74 434.6,393.03 437.84,393.75 440.35,396.24" fill="#e9e2cc" stroke="#bab5a3" stroke-width="1"/><polygon points="433.94,399.61 433.82,399.94 433.57,400.16 433.29,400.28 432.96,400.36 432.77,400.07 432.46,399.93 432.39,399.61 432.43,399.27 432.62,398.97 432.97,398.91 433.29,398.94 433.61,399.01 433.86,399.26" fill="#e9e2cc"/></g><g id="cd-the-sundered-reach-the-kingswood"><polygon points="178.76,215.25 171.21,228.6 159.21,234.94 151.24,249.16 136.47,246.06 125.99,237.2 115.45,228.76 113.05,215.25 111.2,199.69 124.67,191.64 136.75,185.68 150.81,183.21 160.07,194.48 165.27,204.77" fill="#a9c79c" stroke="#879f7d" stroke-width="1"/><polygon points="170.76,215.27 163.97,225.21 154.08,228.8 149.32,241.39 138.1,238.23 130.88,230.87 122.64,225.24 121.05,215.27 118.37,203.24 129.54,197.99 138.37,193.51 148.89,190.97 154.98,200.65 158.03,208.18" fill="#a9c79c"/></g><g id="cd-the-sundered-reach-thornmark-weald"><polygon points="145.2,369 141.45,377.89 141.25,391.88 128.4,392.66 117.08,394.93 108.57,387.09 100.28,379.94 99.91,369 104.31,360 110.24,353 117.8,346.22 129.55,340.32 136.6,351.95 147.67,357.12" fill="#a9c79c" stroke="#879f7d" stroke-width="1"/><polygon points="137.2,369.13 134.22,374.46 136.29,385.61 126.74,384.84 119.02,387.16 113.71,380.96 107.55,376.62 107.91,369.12 111.5,363.52 115.27,359.22 119.7,354 127.9,348.15 131.78,358.33 140.53,360.73" fill="#a9c79c"/></g><g id="cd-the-sundered-reach-the-sathriss-sink"><polygon points="646.48,420.25 630.31,432.56 628.58,450.14 613.76,459.73 597.36,452.64 583.4,447.02 567.69,438.1 575.56,420.25 577.38,407.07 586.41,397.25 596.3,383.25 613.54,381.75 626.46,393.03 636.68,404.87" fill="#c2d2c0" stroke="#9ba89a" stroke-width="1"/><polygon points="638.48,420.31 623.12,429.06 623.69,443.81 612.15,451.9 599.37,444.9 588.56,440.91 574.95,434.75 583.56,420.33 584.61,410.51 591.51,403.42 598.26,391 611.96,389.59 621.65,399.42 629.55,408.49" fill="#c2d2c0"/></g><g id="cd-the-sundered-reach-the-green-throat"><polygon points="718.46,451 717.67,463.42 711.23,475.28 698.72,480.97 686.86,472.96 674.5,472.78 667.69,462.65 661.43,451 672.05,441.45 675.67,430.68 685.94,424.98 698.53,421.82 705.74,433.61 714.58,440.06" fill="#8fbc8b" stroke="#72966f" stroke-width="1"/><polygon points="710.46,451.19 710.41,460.07 706.2,469.06 696.95,473.17 688.76,465.19 679.61,466.63 674.98,459.35 669.43,451.16 679.18,445.07 680.61,436.98 687.73,432.77 696.84,429.64 700.91,439.98 707.47,443.72" fill="#8fbc8b"/></g><g id="cd-the-sundered-reach-the-white-reach"><polygon points="694.23,71.75 691.75,84.03 683.9,93.88 673.35,102.84 657.56,109.84 643.9,99.77 638.15,85.28 634.07,71.75 639.49,58.86 647.23,47.9 659.1,40.4 672.46,44.54 687.43,45.19 694.36,58.21" fill="#dfe4dd" stroke="#b2b6b1" stroke-width="1"/><polygon points="686.23,71.94 684.43,80.8 678.69,87.81 671.35,95.09 659.22,102.01 648.86,93.49 645.39,81.88 642.06,71.93 646.58,62.56 652,54.31 660.66,48.25 670.52,52.3 682.41,51.42 687.18,61.75" fill="#dfe4dd"/></g><g id="cd-the-sundered-reach-lake-vael"><polygon points="197.22,266.5 194.33,273.7 190.17,280.04 182.91,281.99 174.96,285.86 167.08,281.92 160.57,275.56 161.7,266.5 160.32,257.32 166.26,250.05 175.5,249.52 183.4,248.86 189.28,254.08 194.48,259.23" fill="#b9d3e6" stroke="#94a9b8" stroke-width="1.5" stroke-linejoin="round"/></g><g id="cd-the-sundered-reach-westshore"><polyline points="307.5,0 303.54,23.31 298.21,46.34 291.03,68.91 287,92.25 299.8,121.62 303.73,153.41 306.75,185.24 317.75,215.25 304.01,250.12 297.06,286.94 288.16,323.2 276.75,358.75 288.38,380.12 292.21,404.14 294.91,428.09 302.38,451 300.18,469.48 289.4,484.65 280.4,500.59 266.5,512.5" fill="none" stroke="#8fa8b8" stroke-width="2" stroke-linejoin="round" stroke-linecap="round"/></g><g id="cd-the-sundered-reach-eastshore"><polyline points="522.75,0 534.16,27.04 541.14,55.55 544.77,84.7 553.5,112.75 543.6,142.83 531.77,172.21 515.58,199.75 507.37,230.62 510.97,261.53 517.41,291.97 526.74,321.87 543.25,348.5 541.75,373.22 535.71,397.24 526.46,420.25 512.5,440.75 525.42,457.49 530.6,477.99 540.87,496.03 553.5,512.5" fill="none" stroke="#8fa8b8" stroke-width="2" stroke-linejoin="round" stroke-linecap="round"/></g><g id="cd-the-sundered-reach-farwest"><polyline points="30.75,0 42.32,37.32 45.83,76.23 44.45,115.28 51.25,153.75 46.07,195.27 42.1,236.92 28.83,276.67 20.5,317.75 26.27,348.12 36.9,377.16 45.22,406.86 56.37,435.62 56.25,455.4 52.44,474.81 46.92,493.72 41,512.5" fill="none" stroke="#8fa8b8" stroke-width="2" stroke-linejoin="round" stroke-linecap="round"/></g><g id="cd-the-sundered-reach-fareast"><polyline points="789.25,0 780.68,35.32 777.29,71.51 775.59,107.81 768.75,143.5 781.78,175.46 793.1,208.05 800.03,242.05 799.5,276.75 790.54,310.09 783.34,343.85 777.74,378.2 763.62,410 770.15,436.06 774.79,462.51 784.63,487.49 794.37,512.5" fill="none" stroke="#8fa8b8" stroke-width="2" stroke-linejoin="round" stroke-linecap="round"/></g><g id="cd-the-sundered-reach-westspine"><polyline points="220.37,61.5 232.65,88.55 243.23,116.31 247.93,145.69 256.25,174.25 250.83,202.29 250.19,230.85 246.14,259.02 240.87,287 249.68,315.24 258.96,343.33 267.2,371.75 276.75,399.75" fill="none" stroke="#a99a85" stroke-width="14" opacity="0.5" stroke-linejoin="round" stroke-linecap="round"/><polyline points="220.37,61.5 232.65,88.55 243.23,116.31 247.93,145.69 256.25,174.25 250.83,202.29 250.19,230.85 246.14,259.02 240.87,287 249.68,315.24 258.96,343.33 267.2,371.75 276.75,399.75" fill="none" stroke="#8d8171" stroke-width="2.5" stroke-linejoin="round"/></g><g id="cd-the-sundered-reach-eastspine"><polyline points="574,41 582.08,69.08 589.07,97.46 598.34,125.21 604.75,153.75 596.67,181.32 591.84,209.64 585.04,237.67 584.25,266.5 592.98,294.42 602.35,322.13 611.2,350.13 615,379.25" fill="none" stroke="#a99a85" stroke-width="14" opacity="0.5" stroke-linejoin="round" stroke-linecap="round"/><polyline points="574,41 582.08,69.08 589.07,97.46 598.34,125.21 604.75,153.75 596.67,181.32 591.84,209.64 585.04,237.67 584.25,266.5 592.98,294.42 602.35,322.13 611.2,350.13 615,379.25" fill="none" stroke="#8d8171" stroke-width="2.5" stroke-linejoin="round"/></g><g id="cd-the-sundered-reach-spur"><polyline points="92.25,71.75 107.91,78.91 123.79,85.55 138.11,95.19 153.75,102.5 169.21,97.63 184.59,92.52 199.44,85.86 215.25,82" fill="none" stroke="#a99a85" stroke-width="14" opacity="0.5" stroke-linejoin="round" stroke-linecap="round"/><polyline points="92.25,71.75 107.91,78.91 123.79,85.55 138.11,95.19 153.75,102.5 169.21,97.63 184.59,92.52 199.44,85.86 215.25,82" fill="none" stroke="#8d8171" stroke-width="2.5" stroke-linejoin="round"/></g><g id="cd-the-sundered-reach-vael"><polyline points="240.87,287 232.51,282.65 223.53,279.82 214.13,279.09 205,276.75 198.95,273.28 192.14,271.76 185.65,269.39 179.37,266.5" fill="none" stroke="#7fa8cf" stroke-width="2" stroke-linejoin="round" stroke-linecap="round"/></g><g id="cd-the-sundered-reach-serren"><polyline points="179.37,266.5 167,272.95 155.24,280.46 141.82,284.31 128.13,287 118.04,294.91 106.44,300.35 94.27,304.09 82,307.5 71.39,314.57 59.26,318.47 47.91,324.07 35.88,328" fill="none" stroke="#7fa8cf" stroke-width="2" stroke-linejoin="round" stroke-linecap="round"/></g><g id="cd-the-sundered-reach-coldrun"><polyline points="256.25,174.25 264.62,170.23 272.5,165.31 280.36,160.29 287,153.75 293.49,150.19 299.12,145.37 303.77,139.63 307.5,133.25" fill="none" stroke="#7fa8cf" stroke-width="2" stroke-linejoin="round" stroke-linecap="round"/></g><g id="cd-the-sundered-reach-sathwater"><polyline points="584.25,266.5 588.37,286.79 589.8,307.45 592.37,327.95 594.5,348.5 597.08,366.52 597.26,384.71 599.5,402.8 604.75,420.25" fill="none" stroke="#7fa8cf" stroke-width="2" stroke-linejoin="round" stroke-linecap="round"/></g><g id="cd-the-sundered-reach-deepflow"><polyline points="604.75,153.75 622.97,153.79 641.1,155.58 658.45,161.26 676.5,164 691.75,160.19 707.46,160.16 722.87,157.59 738,153.75 746.69,157.24 755.82,159.28 765.07,160.79 773.87,164" fill="none" stroke="#7fa8cf" stroke-width="2" stroke-linejoin="round" stroke-linecap="round"/></g><g id="cd-the-sundered-reach-kingsway"><polyline points="153.75,174.25 157.79,192.17 162.93,209.8 166.12,227.89 169.12,246 176.36,261.62 182.97,277.51 192.11,292.12 199.87,307.5 192.09,320.25 184.49,333.12 175.54,345.18 169.12,358.75" fill="none" stroke="#c3a878" stroke-width="2" stroke-linejoin="round" stroke-linecap="round"/></g><g id="cd-the-sundered-reach-the-vakh-path"><polyline points="123,51.25 137.36,69.01 152.55,86.05 165.99,104.51 179.37,123 172.18,135.46 167.35,149.02 161.04,161.9 153.75,174.25" fill="none" stroke="#c3a878" stroke-width="2" stroke-dasharray="6 4" stroke-linejoin="round" stroke-linecap="round"/></g><g id="cd-the-sundered-reach-aumgap-pass"><polyline points="230.62,220.37 237.18,227.03 244.66,232.64 253.25,236.28 261.38,240.87" fill="none" stroke="#a89880" stroke-width="2" stroke-dasharray="4 4" stroke-linejoin="round" stroke-linecap="round"/></g><g id="cd-the-sundered-reach-stoneway"><polyline points="630.38,133.25 629.03,153.84 630.5,174.42 627,194.72 625.25,215.25 616.44,261.44 610.1,308.04 599.24,353.78 589.38,399.75" fill="none" stroke="#c3a878" stroke-width="2" stroke-linejoin="round" stroke-linecap="round"/></g><g><polyline points="153.75,174.25 157.79,192.17 162.93,209.8 166.12,227.89 169.12,246 176.36,261.62 182.97,277.51 192.11,292.12 199.87,307.5 192.09,320.25 184.49,333.12 175.54,345.18 169.12,358.75" fill="none" stroke="#a05a5a" stroke-width="2" stroke-dasharray="8 4" stroke-linejoin="round" stroke-linecap="round"/></g><g><polyline points="220.37,61.5 232.65,88.55 243.23,116.31 247.93,145.69 256.25,174.25 250.83,202.29 250.19,230.85 246.14,259.02 240.87,287 249.68,315.24 258.96,343.33 267.2,371.75 276.75,399.75" fill="none" stroke="#a05a5a" stroke-width="2" stroke-dasharray="8 4" stroke-linejoin="round" stroke-linecap="round"/></g><g><polyline points="574,41 582.08,69.08 589.07,97.46 598.34,125.21 604.75,153.75 596.67,181.32 591.84,209.64 585.04,237.67 584.25,266.5 592.98,294.42 602.35,322.13 611.2,350.13 615,379.25" fill="none" stroke="#a05a5a" stroke-width="2" stroke-dasharray="8 4" stroke-linejoin="round" stroke-linecap="round"/></g><g id="cd-the-sundered-reach-corven"><rect x="147.75" y="168.25" width="12" height="12" fill="#3d3629" transform="rotate(45 153.75 174.25)"/></g><g id="cd-the-sundered-reach-marrowgate"><rect x="163.12" y="352.75" width="12" height="12" fill="#3d3629" transform="rotate(45 169.12 358.75)"/></g><g id="cd-the-sundered-reach-fairhaven"><circle cx="315.68" cy="220.5" r="4" fill="#3d3629" stroke="#fff" stroke-width="1"/></g><g id="cd-the-sundered-reach-ghorvakh"><rect x="117" y="45.25" width="12" height="12" fill="#3d3629" transform="rotate(45 123 51.25)"/></g><g id="cd-the-sundered-reach-khundrumgate"><rect x="624.38" y="127.25" width="12" height="12" fill="#3d3629" transform="rotate(45 630.38 133.25)"/></g><g id="cd-the-sundered-reach-ssurath"><rect x="583.38" y="393.75" width="12" height="12" fill="#3d3629" transform="rotate(45 589.38 399.75)"/></g><g id="cd-the-sundered-reach-reedhome"><circle cx="529.8" cy="326.81" r="4" fill="#3d3629" stroke="#fff" stroke-width="1"/></g><g id="cd-the-sundered-reach-ilvarien"><rect x="404" y="245.12" width="12" height="12" fill="#3d3629" transform="rotate(45 410 251.12)"/></g><g id="cd-the-sundered-reach-the-drowned-throne"><circle cx="404.87" cy="287" r="3" fill="#3d3629" stroke="#fff" stroke-width="1"/></g><g id="cd-the-sundered-reach-elder-aums-seat"><circle cx="235.75" cy="230.62" r="3" fill="#3d3629" stroke="#fff" stroke-width="1"/></g><g id="cd-the-sundered-reach-the-echo-stair"><circle cx="594.5" cy="205" r="3" fill="#3d3629" stroke="#fff" stroke-width="1"/></g><g id="cd-the-sundered-reach-the-sundering-stone"><circle cx="420.25" cy="153.75" r="3" fill="#3d3629" stroke="#fff" stroke-width="1"/></g><text x="119.08" y="293.42" font-size="14" letter-spacing="4" fill="#5a7a96" opacity="0.6" text-anchor="middle" font-family="sans-serif">THE WHALEGREY DEEP</text><text x="731.22" y="265.04" font-size="14" letter-spacing="4" fill="#5a7a96" opacity="0.6" text-anchor="middle" font-family="sans-serif">THE DAWNWATER</text><text x="254.19" y="239.85" font-size="10" fill="#3d3629" opacity="0.75" font-style="italic" font-family="sans-serif">The Spine of Aum</text><text x="595.84" y="192.64" font-size="10" fill="#3d3629" opacity="0.75" font-style="italic" font-family="sans-serif">The Broken Spine</text><text x="157.75" y="98.5" font-size="10" fill="#3d3629" opacity="0.75" font-style="italic" font-family="sans-serif">The Vakh Teeth</text><text x="389.5" y="98.65" font-size="11" fill="#3d3629" opacity="0.8" text-anchor="middle" font-style="italic" font-family="sans-serif">Skarnholt</text><text x="410" y="237.02" font-size="11" fill="#3d3629" opacity="0.8" text-anchor="middle" font-style="italic" font-family="sans-serif">Ilvarien Isle</text><text x="394.62" y="324.15" font-size="11" fill="#3d3629" opacity="0.8" text-anchor="middle" font-style="italic" font-family="sans-serif">Vessel Isle</text><text x="433.06" y="385.65" font-size="11" fill="#3d3629" opacity="0.8" text-anchor="middle" font-style="italic" font-family="sans-serif">Thornshoal</text><text x="143.5" y="201.15" font-size="11" fill="#3d3629" opacity="0.8" text-anchor="middle" font-style="italic" font-family="sans-serif">The Kingswood</text><text x="123" y="397.2" font-size="11" fill="#3d3629" opacity="0.8" text-anchor="middle" font-style="italic" font-family="sans-serif">Thornmark Weald</text><text x="604.75" y="448.45" font-size="11" fill="#3d3629" opacity="0.8" text-anchor="middle" font-style="italic" font-family="sans-serif">The Sathriss Sink</text><text x="691.87" y="479.2" font-size="11" fill="#3d3629" opacity="0.8" text-anchor="middle" font-style="italic" font-family="sans-serif">The Green Throat</text><text x="666.25" y="57.65" font-size="11" fill="#3d3629" opacity="0.8" text-anchor="middle" font-style="italic" font-family="sans-serif">The White Reach</text><text x="178.44" y="253.51" font-size="10" letter-spacing="2" fill="#5a7a96" opacity="0.6" text-anchor="middle" font-family="sans-serif">LAKE VAEL</text><text x="209" y="272.75" font-size="10" fill="#3d3629" opacity="0.75" font-style="italic" font-family="sans-serif">The Vael</text><text x="110.44" y="309.35" font-size="10" fill="#3d3629" opacity="0.75" font-style="italic" font-family="sans-serif">The Serren</text><text x="291" y="149.75" font-size="10" fill="#3d3629" opacity="0.75" font-style="italic" font-family="sans-serif">The Coldrun</text><text x="598.5" y="344.5" font-size="10" fill="#3d3629" opacity="0.75" font-style="italic" font-family="sans-serif">The Sathwater</text><text x="711.46" y="156.16" font-size="10" fill="#3d3629" opacity="0.75" font-style="italic" font-family="sans-serif">The Deepflow</text><text x="162.75" y="178.25" font-size="15" font-weight="bold" fill="#3d3629" text-anchor="start" font-family="sans-serif">Corven</text><text x="178.12" y="362.75" font-size="15" font-weight="bold" fill="#3d3629" text-anchor="start" font-family="sans-serif">Marrowgate</text><text x="322.68" y="224.5" font-size="11" font-weight="normal" fill="#3d3629" text-anchor="start" font-family="sans-serif">Fairhaven</text><text x="132" y="55.25" font-size="15" font-weight="bold" fill="#3d3629" text-anchor="start" font-family="sans-serif">Ghor Vakh Hold</text><text x="639.38" y="137.25" font-size="15" font-weight="bold" fill="#3d3629" text-anchor="start" font-family="sans-serif">Khundrum Gate</text><text x="598.38" y="403.75" font-size="15" font-weight="bold" fill="#3d3629" text-anchor="start" font-family="sans-serif">Ssurath</text><text x="536.8" y="330.81" font-size="11" font-weight="normal" fill="#3d3629" text-anchor="start" font-family="sans-serif">Reedhome</text><text x="419" y="255.12" font-size="15" font-weight="bold" fill="#3d3629" text-anchor="start" font-family="sans-serif">Ilvarien</text><text x="186.97" y="312.51" font-size="10" fill="#3d3629" opacity="0.75" font-style="italic" font-family="sans-serif">The Long Kingsway</text><text x="183.37" y="119" font-size="10" fill="#3d3629" opacity="0.75" font-style="italic" font-family="sans-serif">The Vakh Path</text><text x="248.66" y="254.64" font-size="10" fill="#3d3629" opacity="0.75" font-style="italic" font-family="sans-serif">Aumgap Pass</text><text x="629.25" y="211.25" font-size="10" fill="#3d3629" opacity="0.75" font-style="italic" font-family="sans-serif">The Understone Way</text><text x="410.87" y="291" font-size="10" font-weight="normal" fill="#3d3629" text-anchor="start" font-family="sans-serif">The Drowned Throne</text><text x="229.75" y="234.62" font-size="10" font-weight="normal" fill="#3d3629" text-anchor="end" font-family="sans-serif">Elder Aum's Seat</text><text x="588.5" y="209" font-size="10" font-weight="normal" fill="#3d3629" text-anchor="end" font-family="sans-serif">The Echo Stair</text><text x="426.25" y="157.75" font-size="10" font-weight="normal" fill="#3d3629" text-anchor="start" font-family="sans-serif">The Sundering Stone</text><text x="155.21" y="161.41" font-size="15" letter-spacing="5" fill="#6b5d4a" opacity="0.6" text-anchor="middle" font-family="sans-serif">VALEMARK</text><text x="182.9" y="413.77" font-size="15" letter-spacing="5" fill="#6b5d4a" opacity="0.6" text-anchor="middle" font-family="sans-serif">CARROWEN</text><text x="161.07" y="79.27" font-size="15" letter-spacing="5" fill="#6b5d4a" opacity="0.6" text-anchor="middle" font-family="sans-serif">GHOR VAKH</text><text x="668.98" y="116.03" font-size="15" letter-spacing="5" fill="#6b5d4a" opacity="0.6" text-anchor="middle" font-family="sans-serif">KHUNDRUM</text><text x="631.66" y="374.32" font-size="15" letter-spacing="5" fill="#6b5d4a" opacity="0.6" text-anchor="middle" font-family="sans-serif">SATHRISS</text><text x="410.64" y="307.91" font-size="15" letter-spacing="5" fill="#6b5d4a" opacity="0.6" text-anchor="middle" font-family="sans-serif">ILVARIEN</text><text x="410" y="261.37" font-size="16" letter-spacing="8" fill="#5a7a96" opacity="0.85" text-anchor="middle" font-family="sans-serif" transform="rotate(90 410 261.37)">THE SUNDERED SEA</text><text x="14" y="22" font-size="16" font-weight="bold" fill="#3d3629" font-family="sans-serif">The Sundered Reach</text><g><circle cx="786" cy="40" r="14" fill="none" stroke="#3d3629" stroke-width="1"/><polygon points="786,29 782,46 790,46" fill="#3d3629"/><text x="786" y="23" font-size="9" fill="#3d3629" text-anchor="middle" font-family="sans-serif">N</text></g><g><line x1="14" y1="496.5" x2="116.5" y2="496.5" stroke="#3d3629" stroke-width="2"/><line x1="14" y1="492.5" x2="14" y2="500.5" stroke="#3d3629" stroke-width="2"/><line x1="116.5" y1="492.5" x2="116.5" y2="500.5" stroke="#3d3629" stroke-width="2"/><text x="65.25" y="490.5" font-size="9" fill="#3d3629" text-anchor="middle" font-family="sans-serif">200mi</text></g></svg>