<svg xmlns="http://www.w3.org/2000/svg" viewBox="0 0 820 512.5" width="820" height="512.5" font-family="sans-serif"><rect x="0" y="0" width="820" height="512.5" fill="#f9f5ea"/><g id="cd-the-sundered-reach-the-sundered-sea"><polygon points="307.5,0 305.78,6 303.14,14.05 299.95,23.65 296.61,34.27 293.51,45.42 291.04,56.58 289.6,67.23 289.56,76.88 291.42,85.84 294.99,94.76 299.71,103.56 305,112.17 310.28,120.54 314.98,128.6 318.51,136.27 320.31,143.5 320.32,149.87 319.06,155.28 316.82,160.1 313.91,164.7 310.61,169.48 307.22,174.8 304.04,181.05 301.35,188.6 298.73,197.43 295.72,207.15 292.55,217.65 289.47,228.77 286.72,240.38 284.55,252.33 283.19,264.51 282.9,276.75 284.18,289.48 287.03,303.01 290.89,317.03 295.23,331.27 299.5,345.41 303.16,359.17 305.67,372.26 306.47,384.37 305.41,395.63 302.92,406.36 299.37,416.58 295.17,426.34 290.68,435.65 286.28,444.55 282.37,453.08 279.31,461.25 276.94,469.23 274.8,477.07 272.89,484.6 271.21,491.68 269.74,498.16 268.47,503.89 267.39,508.72 266.5,512.5 553.5,512.5 552.48,507.76 551.23,501.45 549.76,493.94 548.05,485.59 546.14,476.77 544.01,467.82 541.68,459.11 539.15,451 536.03,443.39 532.14,435.89 527.81,428.43 523.39,420.95 519.21,413.39 515.61,405.67 512.92,397.73 511.48,389.5 511.65,380.96 513.28,372.17 515.91,363.17 519.07,354.01 522.3,344.74 525.16,335.4 527.17,326.05 527.88,316.72 526.86,307.75 524.39,299.2 521.01,290.8 517.27,282.26 513.74,273.28 510.97,263.59 509.52,252.88 509.94,240.87 512.85,227.26 518.01,212.16 524.64,195.98 531.94,179.12 539.16,161.97 545.5,144.93 550.2,128.39 552.47,112.75 552.01,97.15 549.43,80.84 545.31,64.39 540.27,48.37 534.9,33.35 529.78,19.9 525.54,8.59 522.75,0" fill="#b9d3e6" stroke-linejoin="round"/></g><g id="cd-the-sundered-reach-the-whalegrey-deep"><polygon points="0,0 30.75,0 32.68,11.79 35.63,27.39 39.19,45.94 42.92,66.63 46.42,88.59 49.25,110.99 51,132.99 51.25,153.75 49.4,174.07 45.6,195.11 40.54,216.53 34.91,237.99 29.4,259.18 24.7,279.75 21.51,299.39 20.5,317.75 22.15,334.97 25.99,351.42 31.33,367.13 37.48,382.13 43.75,396.45 49.45,410.12 53.89,423.17 56.37,435.62 56.8,447.72 55.77,459.53 53.69,470.83 50.93,481.43 47.89,491.1 44.96,499.65 42.54,506.85 41,512.5 0,512.5" fill="#b9d3e6" stroke-linejoin="round"/></g><g id="cd-the-sundered-reach-the-dawnwater"><polygon points="820,0 789.25,0 787.32,11.14 784.37,26.03 780.81,43.75 777.08,63.42 773.58,84.13 770.75,104.98 769,125.07 768.75,143.5 770.6,160.65 774.4,177.53 779.46,194.22 785.09,210.77 790.6,227.23 795.3,243.68 798.49,260.16 799.5,276.75 797.75,293.62 793.65,310.78 788,328.07 781.56,345.3 775.13,362.28 769.47,378.85 765.38,394.82 763.62,410 764.49,424.98 767.35,440.19 771.63,455.19 776.76,469.58 782.17,482.92 787.29,494.8 791.55,504.8 794.37,512.5 820,512.5" fill="#b9d3e6" stroke-linejoin="round"/></g><g id="cd-the-sundered-reach-valemark"><polygon points="56.37,123 123,87.12 129.69,90.85 138.56,95.78 149.11,101.64 160.86,108.17 173.32,115.11 186.01,122.21 198.44,129.2 210.12,135.81 221.96,142.58 234.78,149.96 248.04,157.63 261.18,165.25 273.64,172.49 284.86,179.02 294.28,184.5 301.35,188.6 282.9,276.75 179.37,271.63 82,307.5 51.25,164" fill="#d8d3c5" opacity="0.2"/></g><g id="cd-the-sundered-reach-carrowen"><polygon points="82,307.5 179.37,271.63 282.9,276.75 306.47,384.37 279.31,461.25 266.5,507.37 58.94,507.37 56.37,435.62" fill="#d8d3c5" opacity="0.2"/></g><g id="cd-the-sundered-reach-ghor-vakh"><polygon points="43.56,15.37 287,15.37 289.56,84.56 210.12,76.88 205.38,78.38 199.07,80.72 191.57,83.54 183.22,86.48 174.39,89.19 165.44,91.29 156.73,92.43 148.63,92.25 140.52,90.4 131.81,87.08 122.86,82.75 114.03,77.84 105.68,72.81 98.18,68.11 91.87,64.19 87.12,61.5 51.25,43.56" fill="#d8d3c5" opacity="0.2"/></g><g id="cd-the-sundered-reach-khundrum"><polygon points="525.31,7.69 784.12,7.69 766.19,146.06 796.94,274.19 689.31,407.44 682.97,403.92 674.52,399.23 664.46,393.65 653.28,387.45 641.48,380.9 629.55,374.26 618,367.81 607.31,361.83 596.72,355.85 585.41,349.46 573.84,342.89 562.47,336.42 551.73,330.31 542.09,324.82 533.99,320.2 527.88,316.72 552.47,113.78" fill="#d8d3c5" opacity="0.2"/></g><g id="cd-the-sundered-reach-sathriss"><polygon points="511.48,390.53 547.24,327.75 551.73,330.31 562.47,336.42 573.84,342.89 585.41,349.46 596.72,355.85 607.31,361.83 618,367.81 629.55,374.26 641.48,380.9 653.28,387.45 664.46,393.65 674.52,399.23 682.97,403.92 689.31,407.44 763.62,411.03 789.25,504.81 556.06,504.81 540.17,451" fill="#d8d3c5" opacity="0.2"/></g><g id="cd-the-sundered-reach-ilvarien"><polygon points="315.19,179.37 486.87,266.5 479.19,330.56 307.5,240.87" fill="#d8d3c5" opacity="0.2"/></g><polyline points="56.37,123 123,87.12 129.69,90.85 138.56,95.78 149.11,101.64 160.86,108.17 173.32,115.11 186.01,122.21 198.44,129.2 210.12,135.81 221.96,142.58 234.78,149.96 248.04,157.63 261.18,165.25 273.64,172.49 284.86,179.02 294.28,184.5 301.35,188.6 282.9,276.75" fill="none" stroke="#ada99e" stroke-width="1" stroke-dasharray="10 6" stroke-opacity="0.5" stroke-linejoin="round"/><polyline points="82,307.5 51.25,164 56.37,123" fill="none" stroke="#ada99e" stroke-width="1" stroke-dasharray="10 6" stroke-opacity="0.5" stroke-linejoin="round"/><polyline points="282.9,276.75 306.47,384.37 279.31,461.25 266.5,507.37 58.94,507.37 56.37,435.62 82,307.5" fill="none" stroke="#ada99e" stroke-width="1" stroke-dasharray="10 6" stroke-opacity="0.5" stroke-linejoin="round"/><polyline points="43.56,15.37 287,15.37 289.56,84.56 210.12,76.88 205.38,78.38 199.07,80.72 191.57,83.54 183.22,86.48 174.39,89.19 165.44,91.29 156.73,92.43 148.63,92.25 140.52,90.4 131.81,87.08 122.86,82.75 114.03,77.84 105.68,72.81 98.18,68.11 91.87,64.19 87.12,61.5 51.25,43.56 43.56,15.37" fill="none" stroke="#ada99e" stroke-width="1" stroke-dasharray="10 6" stroke-opacity="0.5" stroke-linejoin="round"/><polyline points="525.31,7.69 784.12,7.69" fill="none" stroke="#ada99e" stroke-width="1" stroke-dasharray="10 6" stroke-opacity="0.5" stroke-linejoin="round"/><polyline points="796.94,274.19 689.31,407.44" fill="none" stroke="#ada99e" stroke-width="1" stroke-dasharray="10 6" stroke-opacity="0.5" stroke-linejoin="round"/><polyline points="542.09,324.82 533.99,320.2 527.88,316.72 552.47,113.78 525.31,7.69" fill="none" stroke="#ada99e" stroke-width="1" stroke-dasharray="10 6" stroke-opacity="0.5" stroke-linejoin="round"/><polyline points="511.48,390.53 547.24,327.75" fill="none" stroke="#ada99e" stroke-width="1" stroke-dasharray="10 6" stroke-opacity="0.5" stroke-linejoin="round"/><polyline points="689.31,407.44 763.62,411.03 789.25,504.81 556.06,504.81 540.17,451 511.48,390.53" fill="none" stroke="#ada99e" stroke-width="1" stroke-dasharray="10 6" stroke-opacity="0.5" stroke-linejoin="round"/><polyline points="315.19,179.37 486.87,266.5 479.19,330.56 307.5,240.87 315.19,179.37" fill="none" stroke="#ada99e" stroke-width="1" stroke-dasharray="10 6" stroke-opacity="0.5" stroke-linejoin="round"/><g id="cd-the-sundered-reach-skarnholt"><polygon points="344.76,208.08 344.42,208.71 343.8,209.32 343.04,209.89 342.28,210.43 341.66,210.95 341.21,211.44 340.83,211.88 340.48,212.31 340.12,212.72 339.72,213.13 339.28,213.59 338.83,214.06 338.35,214.52 337.85,214.9 337.3,215.16 336.71,215.29 336.05,215.32 335.38,215.27 334.72,215.16 334.11,214.99 333.55,214.74 333.02,214.42 332.52,214.05 332.04,213.64 331.57,213.24 331.12,212.85 330.69,212.44 330.28,212.02 329.87,211.56 329.47,211.07 329.04,210.54 328.59,209.97 328.15,209.37 327.79,208.74 327.55,208.08 327.39,207.33 327.31,206.5 327.32,205.66 327.45,204.89 327.74,204.25 328.25,203.78 328.97,203.45 329.78,203.18 330.59,202.91 331.3,202.57 331.87,202.11 332.37,201.57 332.85,201.04 333.35,200.59 333.92,200.31 334.56,200.22 335.25,200.27 335.96,200.42 336.67,200.62 337.34,200.82 337.98,201.03 338.59,201.27 339.19,201.55 339.78,201.86 340.37,202.21 340.98,202.57 341.61,202.96 342.22,203.39 342.79,203.87 343.28,204.42 343.74,205.07 344.19,205.82 344.57,206.6 344.78,207.37" fill="#f9f5ea" stroke="#8fa8b8" stroke-width="1.2" stroke-linejoin="round"/></g><g><polygon points="374.56,227.55 374.7,228.02 374.89,228.52 375.07,229.04 375.19,229.55 375.19,230.04 375.07,230.54 374.85,231.06 374.56,231.56 374.21,231.99 373.83,232.32 373.37,232.52 372.84,232.62 372.27,232.66 371.7,232.65 371.18,232.62 370.72,232.55 370.3,232.41 369.89,232.26 369.46,232.12 369,232.04 368.48,232.06 367.9,232.17 367.32,232.28 366.78,232.32 366.3,232.22 365.88,231.95 365.49,231.55 365.15,231.08 364.9,230.58 364.76,230.09 364.78,229.6 364.95,229.08 365.18,228.55 365.41,228.03 365.58,227.55 365.65,227.11 365.67,226.71 365.68,226.32 365.71,225.92 365.78,225.51 365.88,225.06 366,224.59 366.15,224.12 366.34,223.67 366.59,223.24 366.91,222.8 367.3,222.33 367.73,221.9 368.18,221.59 368.63,221.46 369.09,221.6 369.56,221.97 370.04,222.43 370.53,222.86 371.03,223.13 371.59,223.16 372.19,223.05 372.79,222.89 373.31,222.81 373.72,222.92 373.97,223.27 374.1,223.78 374.16,224.38 374.2,224.99 374.25,225.51 374.33,225.95 374.38,226.35 374.43,226.73 374.49,227.12" fill="#f9f5ea" stroke="#8fa8b8" stroke-width="1.2" stroke-linejoin="round"/></g><g id="cd-the-sundered-reach-ilvarien-isle"><polygon points="422.51,249.08 422.53,250.38 422.37,251.73 422.07,253.09 421.65,254.41 421.14,255.67 420.55,256.94 419.85,258.23 419.05,259.45 418.14,260.47 417.1,261.19 415.87,261.51 414.45,261.51 412.96,261.33 411.49,261.1 410.15,260.97 409,260.91 407.96,260.86 406.96,260.8 405.92,260.76 404.77,260.75 403.44,260.86 401.97,261.11 400.48,261.31 399.09,261.33 397.93,261 397.06,260.24 396.43,259.14 395.89,257.85 395.35,256.5 394.67,255.22 393.7,254.01 392.49,252.77 391.32,251.52 390.46,250.28 390.17,249.08 390.64,247.89 391.7,246.72 393.06,245.57 394.42,244.44 395.51,243.33 396.25,242.19 396.82,241.01 397.35,239.89 397.95,238.91 398.74,238.17 399.77,237.76 400.96,237.62 402.24,237.62 403.54,237.6 404.78,237.43 405.97,236.98 407.16,236.37 408.34,235.75 409.49,235.31 410.6,235.21 411.67,235.54 412.71,236.18 413.72,237.01 414.71,237.91 415.66,238.76 416.61,239.53 417.56,240.32 418.46,241.14 419.3,242.03 420.04,243.01 420.72,244.09 421.35,245.28 421.89,246.52 422.3,247.8" fill="#f9f5ea" stroke="#8fa8b8" stroke-width="1.2" stroke-linejoin="round"/></g><g><polygon points="451.71,270.09 451.7,270.69 451.63,271.33 451.49,271.96 451.28,272.54 450.99,273.04 450.59,273.45 450.08,273.78 449.51,274.07 448.93,274.31 448.4,274.54 447.91,274.74 447.43,274.9 446.96,275.04 446.5,275.15 446.02,275.23 445.55,275.3 445.08,275.35 444.6,275.37 444.13,275.35 443.66,275.3 443.18,275.21 442.7,275.08 442.22,274.92 441.77,274.72 441.36,274.46 441.03,274.14 440.76,273.76 440.52,273.34 440.25,272.9 439.93,272.46 439.48,272.01 438.94,271.56 438.4,271.09 437.96,270.6 437.73,270.09 437.72,269.52 437.88,268.9 438.16,268.27 438.52,267.7 438.91,267.22 439.37,266.9 439.93,266.69 440.54,266.52 441.13,266.34 441.64,266.06 442.04,265.65 442.36,265.15 442.66,264.63 443,264.16 443.42,263.8 443.94,263.55 444.54,263.37 445.17,263.26 445.81,263.23 446.4,263.28 446.98,263.43 447.55,263.68 448.11,264 448.63,264.37 449.09,264.77 449.49,265.2 449.83,265.69 450.14,266.2 450.42,266.74 450.68,267.28 450.95,267.82 451.22,268.37 451.45,268.94 451.62,269.51" fill="#f9f5ea" stroke="#8fa8b8" stroke-width="1.2" stroke-linejoin="round"/></g><g id="cd-the-sundered-reach-vessel-isle"><polygon points="491.83,292.13 491.75,292.9 491.78,293.64 491.84,294.35 491.84,295.03 491.7,295.68 491.39,296.29 490.97,296.84 490.48,297.38 489.95,297.93 489.42,298.53 488.91,299.26 488.4,300.09 487.85,300.92 487.25,301.6 486.58,302.04 485.78,302.2 484.87,302.16 483.93,301.96 483.02,301.65 482.22,301.29 481.56,300.83 480.99,300.23 480.47,299.57 479.94,298.92 479.36,298.34 478.64,297.89 477.83,297.5 477.03,297.13 476.36,296.71 475.92,296.17 475.77,295.47 475.84,294.65 476.05,293.78 476.29,292.92 476.49,292.13 476.63,291.41 476.78,290.73 476.94,290.07 477.14,289.43 477.38,288.79 477.66,288.12 477.96,287.42 478.3,286.76 478.71,286.17 479.19,285.7 479.77,285.4 480.44,285.25 481.17,285.16 481.92,285.06 482.66,284.87 483.38,284.52 484.11,284.07 484.85,283.61 485.61,283.24 486.38,283.07 487.18,283.12 488.02,283.31 488.86,283.62 489.67,284.02 490.42,284.47 491.15,284.99 491.9,285.6 492.57,286.27 493.09,287 493.38,287.76 493.34,288.58 493.02,289.47 492.57,290.38 492.13,291.29" fill="#f9f5ea" stroke="#8fa8b8" stroke-width="1.2" stroke-linejoin="round"/></g><g id="cd-the-sundered-reach-thornshoal"><polygon points="362.8,271.63 362.89,272.07 363.05,272.53 363.23,272.99 363.35,273.43 363.35,273.84 363.19,274.24 362.94,274.63 362.61,274.99 362.25,275.3 361.88,275.55 361.49,275.7 361.06,275.77 360.61,275.8 360.15,275.82 359.72,275.87 359.31,275.96 358.92,276.06 358.53,276.16 358.13,276.24 357.68,276.3 357.17,276.36 356.6,276.43 356.03,276.46 355.49,276.42 355.05,276.26 354.72,275.94 354.45,275.5 354.24,274.98 354.07,274.45 353.93,273.95 353.8,273.48 353.7,273 353.64,272.52 353.64,272.06 353.71,271.63 353.87,271.23 354.14,270.88 354.44,270.53 354.73,270.18 354.97,269.8 355.11,269.36 355.19,268.87 355.26,268.38 355.37,267.96 355.59,267.66 355.94,267.54 356.39,267.55 356.89,267.62 357.39,267.69 357.85,267.68 358.25,267.56 358.64,267.39 359.01,267.2 359.4,267.03 359.82,266.94 360.3,266.91 360.82,266.9 361.35,266.94 361.84,267.05 362.23,267.26 362.54,267.58 362.78,268.02 362.96,268.52 363.09,269.03 363.17,269.5 363.16,269.93 363.07,270.35 362.95,270.77 362.84,271.2" fill="#f9f5ea" stroke="#8fa8b8" stroke-width="1.2" stroke-linejoin="round"/></g><g id="cd-the-sundered-reach-the-kingswood"><polygon points="177.89,220.37 177.49,223.26 176.64,226.15 175.48,229 174.14,231.78 172.76,234.47 171.4,237.18 169.96,239.95 168.37,242.57 166.56,244.87 164.46,246.66 161.97,247.72 159.13,248.18 156.11,248.35 153.03,248.55 150.05,249.09 147.15,250.24 144.22,251.79 141.3,253.33 138.43,254.45 135.66,254.72 132.97,253.96 130.32,252.44 127.76,250.45 125.28,248.27 122.92,246.18 120.56,244.2 118.17,242.14 115.95,239.97 114.08,237.67 112.75,235.19 111.99,232.41 111.68,229.35 111.77,226.2 112.18,223.15 112.87,220.37 114.01,217.95 115.63,215.75 117.47,213.67 119.28,211.6 120.79,209.44 121.86,207.14 122.67,204.76 123.42,202.39 124.34,200.11 125.64,197.98 127.36,195.94 129.34,193.93 131.55,192.07 133.92,190.48 136.4,189.27 139.08,188.44 142.01,187.9 145.03,187.68 148.02,187.79 150.83,188.24 153.47,189.14 156.02,190.46 158.49,192.07 160.9,193.84 163.24,195.62 165.6,197.39 167.99,199.24 170.26,201.2 172.31,203.34 173.99,205.69 175.36,208.34 176.48,211.26 177.31,214.32 177.8,217.4" fill="#a9c79c" stroke="#879f7d" stroke-width="1"/><polygon points="169.89,220.51 169.51,222.71 168.74,224.88 167.73,227 166.62,229.05 165.54,231.04 164.54,233.07 163.53,235.19 162.42,237.23 161.11,239.02 159.52,240.36 157.56,241.04 155.31,241.15 152.94,241.01 150.62,240.93 148.45,241.25 146.38,242.28 144.24,243.79 142.04,245.37 139.81,246.57 137.65,246.97 135.57,246.39 133.57,245.13 131.67,243.47 129.85,241.7 128.1,240.07 126.28,238.6 124.39,237.1 122.6,235.52 121.08,233.8 120.04,231.9 119.53,229.73 119.43,227.36 119.66,224.93 120.17,222.6 120.87,220.52 121.97,218.74 123.5,217.17 125.19,215.76 126.77,214.4 127.98,212.96 128.68,211.33 129.07,209.55 129.4,207.71 129.88,205.88 130.69,204.19 131.84,202.56 133.22,200.93 134.78,199.39 136.5,198.05 138.34,197.03 140.35,196.34 142.56,195.88 144.86,195.68 147.13,195.74 149.27,196.09 151.26,196.83 153.15,197.93 154.96,199.25 156.72,200.66 158.45,202.03 160.24,203.33 162.09,204.64 163.9,206.05 165.54,207.6 166.88,209.35 167.94,211.35 168.82,213.57 169.47,215.9 169.84,218.24" fill="#a9c79c"/></g><g id="cd-the-sundered-reach-thornmark-weald"><polygon points="151.56,374.12 151.06,375.99 150.13,377.79 148.97,379.55 147.76,381.31 146.7,383.07 145.87,384.95 145.15,386.92 144.4,388.83 143.49,390.54 142.29,391.88 140.72,392.71 138.87,393.11 136.85,393.33 134.76,393.61 132.71,394.2 130.62,395.38 128.44,397 126.25,398.62 124.14,399.8 122.2,400.1 120.45,399.25 118.85,397.56 117.34,395.41 115.88,393.2 114.43,391.3 112.92,389.79 111.39,388.41 109.93,387.05 108.62,385.62 107.56,384.03 106.87,382.26 106.48,380.4 106.22,378.44 105.92,376.35 105.43,374.12 104.4,371.56 102.95,368.65 101.58,365.73 100.79,363.11 101.09,361.1 102.89,360 105.85,359.57 109.36,359.41 112.77,359.1 115.46,358.24 117.22,356.51 118.48,354.21 119.54,351.77 120.68,349.64 122.22,348.25 124.28,347.69 126.66,347.66 129.17,348.04 131.59,348.72 133.73,349.58 135.52,350.75 137.1,352.3 138.56,354.05 139.99,355.81 141.46,357.41 143.05,358.76 144.72,360 146.33,361.22 147.79,362.55 148.98,364.08 149.93,365.89 150.72,367.91 151.3,370.03 151.6,372.13" fill="#a9c79c" stroke="#879f7d" stroke-width="1"/><polygon points="143.56,373.98 143.1,375.2 142.26,376.36 141.26,377.44 140.28,378.48 139.52,379.55 139.06,380.75 138.76,382.11 138.46,383.48 138,384.73 137.26,385.67 136.17,386.13 134.85,386.19 133.43,386.1 132.04,386.09 130.76,386.44 129.5,387.46 128.14,389.01 126.67,390.63 125.18,391.87 123.79,392.26 122.59,391.54 121.59,390.05 120.74,388.17 119.99,386.33 119.21,384.89 118.3,383.87 117.3,383.02 116.3,382.22 115.39,381.36 114.67,380.35 114.26,379.2 114.1,377.97 114.02,376.7 113.86,375.37 113.43,373.96 112.37,372.29 110.79,370.25 109.23,368.07 108.23,366.05 108.31,364.54 109.88,363.88 112.56,363.93 115.65,364.35 118.47,364.72 120.39,364.53 121.35,363.37 121.86,361.46 122.29,359.28 122.88,357.33 123.86,356.08 125.28,355.62 126.94,355.65 128.67,356.02 130.31,356.62 131.74,357.33 132.89,358.31 133.84,359.61 134.65,361.03 135.42,362.38 136.26,363.49 137.29,364.31 138.46,364.98 139.67,365.65 140.78,366.41 141.68,367.35 142.37,368.52 142.96,369.84 143.39,371.24 143.62,372.65" fill="#a9c79c"/></g><g id="cd-the-sundered-reach-the-white-reach"><polygon points="695.23,76.88 695.07,79.46 694.74,82.01 694.27,84.55 693.65,87.11 692.91,89.71 692.11,92.44 691.23,95.28 690.19,98.1 688.89,100.78 687.23,103.19 685.13,105.51 682.64,107.84 679.9,109.89 677.07,111.38 674.27,112.02 671.46,111.5 668.53,110.02 665.58,108.04 662.7,106.01 659.96,104.42 657.47,103.33 655.15,102.45 652.89,101.64 650.55,100.78 648.01,99.75 645.01,98.66 641.66,97.58 638.31,96.36 635.33,94.84 633.1,92.84 631.75,90.23 631.04,87.13 630.76,83.73 630.71,80.24 630.67,76.88 630.54,73.54 630.46,70.1 630.59,66.69 631.08,63.42 632.08,60.42 633.68,57.57 635.79,54.8 638.27,52.27 640.96,50.16 643.75,48.66 646.72,48.08 649.96,48.3 653.33,48.85 656.69,49.23 659.88,48.97 662.94,47.63 665.96,45.52 668.9,43.31 671.73,41.65 674.4,41.19 676.91,42.23 679.29,44.36 681.55,47.09 683.67,49.97 685.66,52.53 687.57,54.74 689.4,56.91 691.08,59.08 692.52,61.32 693.65,63.68 694.44,66.19 694.93,68.83 695.19,71.52 695.26,74.23" fill="#dfe4dd" stroke="#b2b6b1" stroke-width="1"/><polygon points="687.23,76.78 687.11,78.67 686.88,80.55 686.55,82.43 686.15,84.33 685.68,86.29 685.21,88.38 684.73,90.62 684.12,92.89 683.28,95.07 682.12,97.03 680.58,98.93 678.72,100.87 676.65,102.58 674.46,103.82 672.26,104.28 670.02,103.64 667.71,102.06 665.45,100.04 663.33,98.04 661.4,96.55 659.65,95.63 658.01,94.97 656.38,94.44 654.65,93.92 652.74,93.3 650.38,92.73 647.6,92.23 644.73,91.6 642.14,90.64 640.22,89.2 639.15,87.19 638.68,84.74 638.59,82.08 638.66,79.38 638.67,76.79 638.51,74.23 638.33,71.56 638.28,68.88 638.54,66.29 639.27,63.93 640.53,61.71 642.22,59.56 644.2,57.64 646.36,56.07 648.61,55.01 651.05,54.8 653.73,55.36 656.45,56.22 659.03,56.88 661.36,56.83 663.52,55.61 665.73,53.52 667.98,51.26 670.22,49.51 672.35,48.92 674.29,49.79 676.05,51.67 677.64,54.07 679.08,56.52 680.45,58.6 681.82,60.3 683.17,61.92 684.43,63.53 685.52,65.19 686.35,66.95 686.89,68.84 687.18,70.82 687.29,72.83 687.29,74.83" fill="#dfe4dd"/></g><g id="cd-the-sundered-reach-the-sathriss-sink"><polygon points="610.41,438.19 609.72,440.75 608.56,443.23 607.13,445.63 605.61,447.97 604.17,450.25 602.85,452.41 601.53,454.45 600.16,456.46 598.69,458.51 597.07,460.69 595.33,463.29 593.51,466.27 591.55,469.17 589.42,471.55 587.06,472.96 584.41,473.09 581.51,472.25 578.44,470.89 575.31,469.47 572.22,468.46 568.91,468.13 565.33,468.18 561.84,468.19 558.81,467.75 556.6,466.43 555.48,463.92 555.2,460.49 555.37,456.62 555.61,452.81 555.52,449.55 555.14,447 554.73,444.82 554.24,442.79 553.61,440.66 552.8,438.19 551.42,435.19 549.5,431.83 547.63,428.39 546.36,425.14 546.26,422.36 547.66,420.07 550.17,418.08 553.32,416.37 556.63,414.93 559.63,413.74 562.34,412.87 565.08,412.32 567.81,412 570.49,411.82 573.08,411.7 575.52,411.67 577.85,411.8 580.14,412.02 582.5,412.25 585,412.44 587.78,412.39 590.77,412.16 593.8,412.02 596.67,412.21 599.21,413 601.44,414.52 603.49,416.58 605.31,419.01 606.88,421.62 608.16,424.21 609.17,426.86 609.95,429.69 610.44,432.6 610.61,435.47" fill="#c2d2c0" stroke="#9ba89a" stroke-width="1"/><polygon points="602.41,438.32 601.73,440.22 600.66,442.02 599.37,443.72 598.05,445.34 596.9,446.91 595.92,448.42 594.98,449.86 594.04,451.31 593.06,452.83 592,454.5 590.92,456.62 589.8,459.18 588.52,461.77 587.02,463.92 585.25,465.17 583.19,465.19 580.93,464.27 578.6,462.89 576.29,461.53 574.02,460.66 571.53,460.57 568.71,460.93 565.88,461.29 563.39,461.19 561.64,460.22 560.95,458.08 561.12,455.1 561.76,451.8 562.47,448.7 562.79,446.21 562.71,444.39 562.49,442.88 562.14,441.5 561.59,440.05 560.8,438.35 559.35,436.21 557.29,433.65 555.23,430.88 553.75,428.2 553.42,425.93 554.54,424.16 556.68,422.73 559.36,421.61 562.12,420.75 564.55,420.05 566.69,419.58 568.83,419.39 570.92,419.37 572.92,419.44 574.81,419.51 576.57,419.6 578.22,419.79 579.83,420.01 581.47,420.19 583.25,420.24 585.27,419.99 587.55,419.49 589.94,419.02 592.25,418.88 594.28,419.3 596.02,420.39 597.57,421.96 598.92,423.82 600.07,425.81 601,427.78 601.73,429.79 602.27,431.94 602.59,434.13 602.65,436.29" fill="#c2d2c0"/></g><g id="cd-the-sundered-reach-the-green-throat"><polygon points="728.74,461.25 729.21,463.32 729.7,465.47 730.11,467.71 730.31,469.99 730.21,472.31 729.86,474.9 729.32,477.79 728.52,480.6 727.38,482.97 725.81,484.52 723.62,484.96 720.86,484.51 717.82,483.66 714.81,482.87 712.13,482.62 709.84,483.08 707.75,483.94 705.75,484.93 703.73,485.78 701.56,486.19 699.04,486.25 696.24,486.16 693.48,485.77 691.08,484.99 689.36,483.69 688.64,481.61 688.71,478.84 689.08,475.76 689.27,472.74 688.77,470.15 687.28,468.14 685.13,466.46 682.78,464.89 680.68,463.22 679.3,461.25 678.66,458.84 678.45,456.13 678.64,453.31 679.19,450.59 680.05,448.15 681.33,445.93 683.04,443.78 685.06,441.83 687.24,440.18 689.46,438.94 691.77,438.31 694.28,438.22 696.87,438.37 699.47,438.44 701.97,438.13 704.44,437.12 706.92,435.61 709.34,434.08 711.64,433.02 713.72,432.9 715.58,434.02 717.27,436.04 718.81,438.56 720.21,441.14 721.5,443.38 722.65,445.24 723.65,447.01 724.53,448.73 725.33,450.44 726.07,452.19 726.75,453.95 727.33,455.7 727.85,457.47 728.32,459.31" fill="#8fbc8b" stroke="#72966f" stroke-width="1"/><polygon points="720.74,461.2 721.24,462.55 721.83,464.01 722.4,465.57 722.81,467.21 722.97,468.91 722.95,470.86 722.84,473.09 722.51,475.32 721.83,477.21 720.69,478.38 718.92,478.48 716.64,477.72 714.19,476.53 711.91,475.42 710.04,474.89 708.58,475.18 707.26,475.96 705.95,476.94 704.57,477.82 703.05,478.33 701.27,478.57 699.23,478.74 697.18,478.68 695.39,478.25 694.17,477.29 693.87,475.56 694.35,473.17 695.18,470.58 695.88,468.24 695.88,466.49 694.78,465.38 692.89,464.51 690.68,463.63 688.65,462.57 687.3,461.21 686.63,459.49 686.32,457.54 686.34,455.48 686.64,453.48 687.23,451.69 688.17,450.08 689.46,448.56 690.98,447.2 692.63,446.09 694.3,445.3 696.08,445.05 698,445.3 699.94,445.76 701.79,446.1 703.46,445.99 705.07,445.09 706.73,443.6 708.46,442.03 710.15,440.88 711.69,440.64 713,441.59 714.07,443.38 714.94,445.56 715.65,447.71 716.3,449.46 716.92,450.82 717.45,452.06 717.92,453.23 718.36,454.36 718.78,455.49 719.2,456.6 719.59,457.7 719.96,458.81 720.34,459.96" fill="#8fbc8b"/></g><g id="cd-the-sundered-reach-lake-vael"><polygon points="194.79,271.63 194.79,273.08 194.79,274.54 194.73,276 194.53,277.4 194.13,278.73 193.5,279.95 192.66,281.07 191.69,282.15 190.65,283.26 189.6,284.45 188.58,285.85 187.55,287.41 186.45,288.96 185.23,290.31 183.86,291.26 182.25,291.79 180.43,292.01 178.53,291.99 176.63,291.77 174.86,291.4 173.2,290.85 171.58,290.08 170.02,289.14 168.52,288.1 167.11,287.01 165.69,285.87 164.25,284.63 162.93,283.31 161.85,281.9 161.14,280.41 160.87,278.76 160.97,276.96 161.3,275.11 161.75,273.3 162.19,271.63 162.6,270.08 163.06,268.6 163.6,267.2 164.23,265.89 164.98,264.69 165.89,263.67 166.95,262.79 168.08,262 169.23,261.19 170.33,260.29 171.34,259.24 172.29,258.1 173.26,256.95 174.32,255.87 175.57,254.93 177.09,254 178.85,253 180.68,252.18 182.41,251.74 183.87,251.91 184.98,252.95 185.84,254.71 186.6,256.8 187.37,258.84 188.3,260.43 189.5,261.47 190.89,262.19 192.28,262.79 193.51,263.47 194.39,264.4 194.85,265.63 195.01,267.06 194.98,268.59 194.87,270.13" fill="#b9d3e6" stroke="#94a9b8" stroke-width="1.2" stroke-linejoin="round"/></g><g id="cd-the-sundered-reach-westshore"><polyline points="307.5,0 305.78,6 303.14,14.05 299.95,23.65 296.61,34.27 293.51,45.42 291.04,56.58 289.6,67.23 289.56,76.88 291.42,85.84 294.99,94.76 299.71,103.56 305,112.17 310.28,120.54 314.98,128.6 318.51,136.27 320.31,143.5 320.32,149.87 319.06,155.28 316.82,160.1 313.91,164.7 310.61,169.48 307.22,174.8 304.04,181.05 301.35,188.6 298.73,197.43 295.72,207.15 292.55,217.65 289.47,228.77 286.72,240.38 284.55,252.33 283.19,264.51 282.9,276.75 284.18,289.48 287.03,303.01 290.89,317.03 295.23,331.27 299.5,345.41 303.16,359.17 305.67,372.26 306.47,384.37 305.41,395.63 302.92,406.36 299.37,416.58 295.17,426.34 290.68,435.65 286.28,444.55 282.37,453.08 279.31,461.25 276.94,469.23 274.8,477.07 272.89,484.6 271.21,491.68 269.74,498.16 268.47,503.89 267.39,508.72 266.5,512.5" fill="none" stroke="#8fa8b8" stroke-width="1.2" stroke-linejoin="round" stroke-linecap="round"/></g><g id="cd-the-sundered-reach-eastshore"><polyline points="522.75,0 525.54,8.59 529.78,19.9 534.9,33.35 540.27,48.37 545.31,64.39 549.43,80.84 552.01,97.15 552.47,112.75 550.2,128.39 545.5,144.93 539.16,161.97 531.94,179.12 524.64,195.98 518.01,212.16 512.85,227.26 509.94,240.87 509.52,252.88 510.97,263.59 513.74,273.28 517.27,282.26 521.01,290.8 524.39,299.2 526.86,307.75 527.88,316.72 527.17,326.05 525.16,335.4 522.3,344.74 519.07,354.01 515.91,363.17 513.28,372.17 511.65,380.96 511.48,389.5 512.92,397.73 515.61,405.67 519.21,413.39 523.39,420.95 527.81,428.43 532.14,435.89 536.03,443.39 539.15,451 541.68,459.11 544.01,467.82 546.14,476.77 548.05,485.59 549.76,493.94 551.23,501.45 552.48,507.76 553.5,512.5" fill="none" stroke="#8fa8b8" stroke-width="1.2" stroke-linejoin="round" stroke-linecap="round"/></g><g id="cd-the-sundered-reach-farwest"><polyline points="30.75,0 32.68,11.79 35.63,27.39 39.19,45.94 42.92,66.63 46.42,88.59 49.25,110.99 51,132.99 51.25,153.75 49.4,174.07 45.6,195.11 40.54,216.53 34.91,237.99 29.4,259.18 24.7,279.75 21.51,299.39 20.5,317.75 22.15,334.97 25.99,351.42 31.33,367.13 37.48,382.13 43.75,396.45 49.45,410.12 53.89,423.17 56.37,435.62 56.8,447.72 55.77,459.53 53.69,470.83 50.93,481.43 47.89,491.1 44.96,499.65 42.54,506.85 41,512.5" fill="none" stroke="#8fa8b8" stroke-width="1.2" stroke-linejoin="round" stroke-linecap="round"/></g><g id="cd-the-sundered-reach-fareast"><polyline points="789.25,0 787.32,11.14 784.37,26.03 780.81,43.75 777.08,63.42 773.58,84.13 770.75,104.98 769,125.07 768.75,143.5 770.6,160.65 774.4,177.53 779.46,194.22 785.09,210.77 790.6,227.23 795.3,243.68 798.49,260.16 799.5,276.75 797.75,293.62 793.65,310.78 788,328.07 781.56,345.3 775.13,362.28 769.47,378.85 765.38,394.82 763.62,410 764.49,424.98 767.35,440.19 771.63,455.19 776.76,469.58 782.17,482.92 787.29,494.8 791.55,504.8 794.37,512.5" fill="none" stroke="#8fa8b8" stroke-width="1.2" stroke-linejoin="round" stroke-linecap="round"/></g><g id="cd-the-sundered-reach-westspine"><polyline points="123,87.12 129.69,90.85 138.56,95.78 149.11,101.64 160.86,108.17 173.32,115.11 186.01,122.21 198.44,129.2 210.12,135.81 221.96,142.58 234.78,149.96 248.04,157.63 261.18,165.25 273.64,172.49 284.86,179.02 294.28,184.5 301.35,188.6" fill="none" stroke="#a99a85" stroke-width="14" opacity="0.5" stroke-linejoin="round" stroke-linecap="round"/><polyline points="123,87.12 129.69,90.85 138.56,95.78 149.11,101.64 160.86,108.17 173.32,115.11 186.01,122.21 198.44,129.2 210.12,135.81 221.96,142.58 234.78,149.96 248.04,157.63 261.18,165.25 273.64,172.49 284.86,179.02 294.28,184.5 301.35,188.6" fill="none" stroke="#8d8171" stroke-width="2.5" stroke-linejoin="round"/></g><g id="cd-the-sundered-reach-eastspine"><polyline points="527.88,316.72 533.99,320.2 542.09,324.82 551.73,330.31 562.47,336.42 573.84,342.89 585.41,349.46 596.72,355.85 607.31,361.83 618,367.81 629.55,374.26 641.48,380.9 653.28,387.45 664.46,393.65 674.52,399.23 682.97,403.92 689.31,407.44" fill="none" stroke="#a99a85" stroke-width="14" opacity="0.5" stroke-linejoin="round" stroke-linecap="round"/><polyline points="527.88,316.72 533.99,320.2 542.09,324.82 551.73,330.31 562.47,336.42 573.84,342.89 585.41,349.46 596.72,355.85 607.31,361.83 618,367.81 629.55,374.26 641.48,380.9 653.28,387.45 664.46,393.65 674.52,399.23 682.97,403.92 689.31,407.44" fill="none" stroke="#8d8171" stroke-width="2.5" stroke-linejoin="round"/></g><g id="cd-the-sundered-reach-spur"><polyline points="87.12,61.5 91.87,64.19 98.18,68.11 105.68,72.81 114.03,77.84 122.86,82.75 131.81,87.08 140.52,90.4 148.63,92.25 156.73,92.43 165.44,91.29 174.39,89.19 183.22,86.48 191.57,83.54 199.07,80.72 205.38,78.38 210.12,76.88" fill="none" stroke="#a99a85" stroke-width="14" opacity="0.5" stroke-linejoin="round" stroke-linecap="round"/><polyline points="87.12,61.5 91.87,64.19 98.18,68.11 105.68,72.81 114.03,77.84 122.86,82.75 131.81,87.08 140.52,90.4 148.63,92.25 156.73,92.43 165.44,91.29 174.39,89.19 183.22,86.48 191.57,83.54 199.07,80.72 205.38,78.38 210.12,76.88" fill="none" stroke="#8d8171" stroke-width="2.5" stroke-linejoin="round"/></g><g id="cd-the-sundered-reach-vael"><polyline points="210.12,135.81 208.44,141.3 206.1,148.77 203.29,157.67 200.23,167.47 197.13,177.65 194.19,187.65 191.62,196.94 189.62,205 188.16,212.25 187.02,219.39 186.14,226.29 185.47,232.78 184.96,238.74 184.56,244.01 184.22,248.45 183.87,251.91" fill="none" stroke="#7fa8cf" stroke-width="2" stroke-linejoin="round" stroke-linecap="round"/></g><g id="cd-the-sundered-reach-serren"><polyline points="161.85,281.9 158.9,283.55 155.04,285.82 150.45,288.53 145.31,291.5 139.81,294.55 134.13,297.5 128.47,300.17 123,302.38 117.64,304.1 112.19,305.5 106.64,306.68 100.96,307.73 95.16,308.76 89.22,309.85 83.13,311.1 76.88,312.63 70.03,314.52 62.41,316.75 54.39,319.16 46.36,321.64 38.69,324.03 31.75,326.2 25.94,328.03 21.61,329.36" fill="none" stroke="#7fa8cf" stroke-width="2" stroke-linejoin="round" stroke-linecap="round"/></g><g id="cd-the-sundered-reach-coldrun"><polyline points="164.11,109.98 169.38,107.77 176.54,104.78 185.08,101.21 194.49,97.27 204.25,93.18 213.87,89.13 222.83,85.33 230.62,82 237.57,79.02 244.3,76.13 250.75,73.36 256.86,70.71 262.58,68.19 267.84,65.8 272.58,63.57 276.75,61.5 280.28,59.57 283.18,57.76 285.56,56.09 287.49,54.56 289.05,53.2 290.35,52.01 291.45,51 292.46,50.19" fill="none" stroke="#7fa8cf" stroke-width="2" stroke-linejoin="round" stroke-linecap="round"/></g><g id="cd-the-sundered-reach-sathwater"><polyline points="563.78,337.17 562.87,341.4 561.51,347.24 559.89,354.22 558.16,361.85 556.49,369.67 555.05,377.2 554,383.97 553.5,389.5 553.65,394 554.33,398 555.4,401.54 556.69,404.64 558.06,407.34 559.37,409.65 560.45,411.61 561.16,413.25" fill="none" stroke="#7fa8cf" stroke-width="2" stroke-linejoin="round" stroke-linecap="round"/></g><g id="cd-the-sundered-reach-deepflow"><polyline points="607.31,361.83 613.13,357.18 620.97,350.95 630.3,343.53 640.63,335.3 651.43,326.68 662.21,318.05 672.44,309.82 681.62,302.38 690,295.32 698.17,288.12 706.12,280.93 713.88,273.93 721.45,267.28 728.84,261.15 736.07,255.71 743.12,251.12 750.28,247.47 757.65,244.61 764.98,242.41 772.07,240.75 778.67,239.49 784.57,238.49 789.53,237.64 793.33,236.78" fill="none" stroke="#7fa8cf" stroke-width="2" stroke-linejoin="round" stroke-linecap="round"/></g><g id="cd-the-sundered-reach-reedrun"><polyline points="553.4,331.26 551.13,333.39 548.01,336.22 544.29,339.59 540.21,343.34 536.03,347.3 531.98,351.29 528.33,355.17 525.31,358.75 522.81,362.3 520.54,366.09 518.5,369.96 516.68,373.77 515.08,377.37 513.7,380.6 512.52,383.31 511.56,385.36" fill="none" stroke="#7fa8cf" stroke-width="2" stroke-linejoin="round" stroke-linecap="round"/></g><g id="cd-the-sundered-reach-kingsway"><polyline points="153.75,174.25 154.97,179.86 156.63,187.38 158.61,196.35 160.8,206.28 163.06,216.69 165.28,227.1 167.34,237.03 169.12,246 170.79,254.25 172.53,262.34 174.24,270.26 175.85,278.03 177.26,285.64 178.37,293.09 179.11,300.37 179.37,307.5 179,314.75 178.01,322.23 176.58,329.72 174.89,336.97 173.12,343.74 171.45,349.78 170.06,354.87 169.12,358.75" fill="none" stroke="#c3a878" stroke-width="2" stroke-linejoin="round" stroke-linecap="round"/></g><g id="cd-the-sundered-reach-the-vakh-path"><polyline points="117.87,46.12 119.96,51.3 122.84,58.22 126.28,66.45 130.05,75.59 133.89,85.21 137.57,94.89 140.86,104.21 143.5,112.75 145.59,121.1 147.38,129.93 148.92,138.89 150.23,147.66 151.33,155.92 152.27,163.32 153.06,169.54 153.75,174.25" fill="none" stroke="#c3a878" stroke-width="2" stroke-dasharray="6 4" stroke-linejoin="round" stroke-linecap="round"/></g><g id="cd-the-sundered-reach-aumgap-pass"><polyline points="158.88,82 189.62,158.88" fill="none" stroke="#a89880" stroke-width="2" stroke-dasharray="4 4" stroke-linejoin="round" stroke-linecap="round"/></g><g id="cd-the-sundered-reach-stoneway"><polyline points="643.19,330.56 640.27,334.41 636.46,339.61 631.93,345.82 626.85,352.66 621.42,359.79 615.8,366.84 610.19,373.44 604.75,379.25 599.04,384.59 592.68,389.96 585.99,395.22 579.29,400.23 572.88,404.86 567.09,408.98 562.24,412.44 558.63,415.12" fill="none" stroke="#c3a878" stroke-width="2" stroke-linejoin="round" stroke-linecap="round"/></g><g id="cd-the-sundered-reach-the-deep-road"><polyline points="643.19,330.56 646.46,327.65 650.71,323.84 655.77,319.3 661.45,314.23 667.56,308.79 673.94,303.18 680.39,297.56 686.75,292.13 693.24,286.51 700.13,280.41 707.3,274.03 714.63,267.6 722,261.36 729.28,255.53 736.37,250.33 743.12,246 749.9,242.53 756.95,239.7 764.03,237.42 770.92,235.6 777.36,234.13 783.12,232.93 787.97,231.91 791.66,230.96" fill="none" stroke="#c3a878" stroke-width="2" stroke-linejoin="round" stroke-linecap="round"/></g><g><title>The Accord line - contested at every ford.</title><polyline points="282.9,276.75 179.37,271.63 82,307.5" fill="none" stroke="#ada99e" stroke-width="2" stroke-dasharray="5 3" opacity="0.85" stroke-linejoin="round" stroke-linecap="round"/></g><g><title>The Accord line - contested at every ford.</title><polyline points="82,307.5 179.37,271.63 282.9,276.75" fill="none" stroke="#ada99e" stroke-width="2" stroke-dasharray="5 3" opacity="0.85" stroke-linejoin="round" stroke-linecap="round"/></g><g><title>Deepwatch keeps the Dawnwater under glass.</title><polyline points="784.12,7.69 766.19,146.06 796.94,274.19" fill="none" stroke="#ada99e" stroke-width="2" stroke-dasharray="5 3" opacity="0.85" stroke-linejoin="round" stroke-linecap="round"/></g><g><polyline points="689.31,407.44 682.97,403.92 674.52,399.23 664.46,393.65 653.28,387.45 641.48,380.9 629.55,374.26 618,367.81 607.31,361.83 596.72,355.85 585.41,349.46 573.84,342.89 562.47,336.42 551.73,330.31 542.09,324.82" fill="none" stroke="#ada99e" stroke-width="2" stroke-dasharray="5 3" opacity="0.85" stroke-linejoin="round" stroke-linecap="round"/></g><g><polyline points="547.24,327.75 551.73,330.31 562.47,336.42 573.84,342.89 585.41,349.46 596.72,355.85 607.31,361.83 618,367.81 629.55,374.26 641.48,380.9 653.28,387.45 664.46,393.65 674.52,399.23 682.97,403.92 689.31,407.44" fill="none" stroke="#ada99e" stroke-width="2" stroke-dasharray="5 3" opacity="0.85" stroke-linejoin="round" stroke-linecap="round"/></g><g id="cd-the-sundered-reach-corven"><rect x="147.75" y="168.25" width="12" height="12" fill="#3d3629" transform="rotate(45 153.75 174.25)"/></g><g id="cd-the-sundered-reach-marrowgate"><rect x="163.12" y="352.75" width="12" height="12" fill="#3d3629" transform="rotate(45 169.12 358.75)"/></g><g id="cd-the-sundered-reach-fairhaven"><circle cx="311.95" cy="123.4" r="4" fill="#3d3629" stroke="#fff" stroke-width="1"/></g><g id="cd-the-sundered-reach-tornquay"><circle cx="295.49" cy="332.11" r="3" fill="#3d3629" stroke="#fff" stroke-width="1"/></g><g id="cd-the-sundered-reach-ghorvakh"><rect x="111.87" y="40.12" width="12" height="12" fill="#3d3629" transform="rotate(45 117.87 46.12)"/></g><g id="cd-the-sundered-reach-khundrumgate"><rect x="637.19" y="324.56" width="12" height="12" fill="#3d3629" transform="rotate(45 643.19 330.56)"/></g><g id="cd-the-sundered-reach-deepwatch"><circle cx="791.66" cy="230.96" r="4" fill="#3d3629" stroke="#fff" stroke-width="1"/></g><g id="cd-the-sundered-reach-ssurath"><rect x="552.63" y="409.12" width="12" height="12" fill="#3d3629" transform="rotate(45 558.63 415.12)"/></g><g id="cd-the-sundered-reach-reedhome"><circle cx="534.43" cy="440.31" r="4" fill="#3d3629" stroke="#fff" stroke-width="1"/></g><g id="cd-the-sundered-reach-ilvarien"><rect x="401.44" y="243.08" width="12" height="12" fill="#3d3629" transform="rotate(45 407.44 249.08)"/></g><g id="cd-the-sundered-reach-the-drowned-throne"><title>The old world's capital. What sleeps beneath still dreams of unity.</title><circle cx="440.75" cy="276.75" r="3" fill="#3d3629" stroke="#fff" stroke-width="1"/></g><g id="cd-the-sundered-reach-elder-aums-seat"><circle cx="199.87" cy="153.75" r="3" fill="#3d3629" stroke="#fff" stroke-width="1"/></g><g id="cd-the-sundered-reach-the-echo-stair"><circle cx="584.25" cy="348.5" r="3" fill="#3d3629" stroke="#fff" stroke-width="1"/></g><g id="cd-the-sundered-reach-the-sundering-stone"><circle cx="358.75" cy="220.37" r="3" fill="#3d3629" stroke="#fff" stroke-width="1"/></g><text x="56.26" y="288.6" font-size="8" letter-spacing="0.5" fill="#5a7a96" opacity="0.6" text-anchor="middle" font-family="sans-serif">THE WHALEGREY DEEP</text><text x="776.59" y="270.69" font-size="8" letter-spacing="0.5" fill="#5a7a96" opacity="0.6" text-anchor="middle" font-family="sans-serif">THE DAWNWATER</text><text x="109.41" y="142.47" font-size="12" letter-spacing="5" fill="#6b5d4a" opacity="0.6" text-anchor="middle" font-family="sans-serif">VALEMARK</text><text x="239" y="393.98" font-size="15" letter-spacing="5" fill="#6b5d4a" opacity="0.6" text-anchor="middle" font-family="sans-serif">CARROWEN</text><text x="152.29" y="128.58" font-size="15" letter-spacing="5" fill="#6b5d4a" opacity="0.6" text-anchor="middle" font-family="sans-serif">GHOR VAKH</text><text x="625.46" y="267.66" font-size="15" letter-spacing="5" fill="#6b5d4a" opacity="0.6" text-anchor="middle" font-family="sans-serif">KHUNDRUM</text><text x="621.94" y="419.47" font-size="12" letter-spacing="5" fill="#6b5d4a" opacity="0.6" text-anchor="middle" font-family="sans-serif">SATHRISS</text><text x="456.98" y="269.53" font-size="12" letter-spacing="5" fill="#6b5d4a" opacity="0.6" text-anchor="middle" font-family="sans-serif">ILVARIEN</text><text x="339.18" y="195.08" font-size="10" fill="#3d3629" opacity="0.8" text-anchor="middle" font-style="italic" font-family="sans-serif">Skarnholt</text><text x="413.91" y="236.08" font-size="10" fill="#3d3629" opacity="0.8" text-anchor="middle" font-style="italic" font-family="sans-serif">Ilvarien Isle</text><text x="484.31" y="318.13" font-size="10" fill="#3d3629" opacity="0.8" text-anchor="middle" font-style="italic" font-family="sans-serif">Vessel Isle</text><text x="358.75" y="258.63" font-size="10" fill="#3d3629" opacity="0.8" text-anchor="middle" font-style="italic" font-family="sans-serif">Thornshoal</text><text x="130.26" y="241.97" font-size="8" fill="#3d3629" opacity="0.8" text-anchor="middle" font-style="italic" font-family="sans-serif">The Kingswood</text><text x="128.13" y="402.32" font-size="11" fill="#3d3629" opacity="0.8" text-anchor="middle" font-style="italic" font-family="sans-serif">Thornmark Weald</text><text x="666.25" y="62.78" font-size="11" fill="#3d3629" opacity="0.8" text-anchor="middle" font-style="italic" font-family="sans-serif">The White Reach</text><text x="591.99" y="461.99" font-size="9" fill="#3d3629" opacity="0.8" text-anchor="middle" font-style="italic" font-family="sans-serif">The Sathriss Sink</text><text x="707.25" y="447.15" font-size="11" fill="#3d3629" opacity="0.8" text-anchor="middle" font-style="italic" font-family="sans-serif">The Green Throat</text><text x="178.94" y="293.97" font-size="8" letter-spacing="0.5" fill="#5a7a96" opacity="0.6" text-anchor="middle" font-family="sans-serif">LAKE VAEL</text><path id="cdlp-the-sundered-reach-0" d="M123 87.12L129.69 90.85L138.56 95.78L149.11 101.64L160.86 108.17L173.32 115.11L186.01 122.21L198.44 129.2L210.12 135.81L221.96 142.58L234.78 149.96L248.04 157.63L261.18 165.25L273.64 172.49L284.86 179.02L294.28 184.5L301.35 188.6" fill="none"/><text font-size="10" fill="#3d3629" opacity="0.75" font-style="italic" text-anchor="middle" font-family="sans-serif"><textPath href="#cdlp-the-sundered-reach-0" startOffset="50%"><tspan dy="-14">The Spine of Aum</tspan></textPath></text><path id="cdlp-the-sundered-reach-1" d="M527.88 316.72L533.99 320.2L542.09 324.82L551.73 330.31L562.47 336.42L573.84 342.89L585.41 349.46L596.72 355.85L607.31 361.83L618 367.81L629.55 374.26L641.48 380.9L653.28 387.45L664.46 393.65L674.52 399.23L682.97 403.92L689.31 407.44" fill="none"/><text font-size="10" fill="#3d3629" opacity="0.75" font-style="italic" text-anchor="middle" font-family="sans-serif"><textPath href="#cdlp-the-sundered-reach-1" startOffset="50%"><tspan dy="20">The Broken Spine</tspan></textPath></text><path id="cdlp-the-sundered-reach-2" d="M87.12 61.5L91.87 64.19L98.18 68.11L105.68 72.81L114.03 77.84L122.86 82.75L131.81 87.08L140.52 90.4L148.63 92.25L156.73 92.43L165.44 91.29L174.39 89.19L183.22 86.48L191.57 83.54L199.07 80.72L205.38 78.38L210.12 76.88" fill="none"/><text font-size="10" fill="#3d3629" opacity="0.75" font-style="italic" text-anchor="middle" font-family="sans-serif"><textPath href="#cdlp-the-sundered-reach-2" startOffset="68%"><tspan dy="-14">The Vakh Teeth</tspan></textPath></text><path id="cdlp-the-sundered-reach-3" d="M183.87 251.91L184.22 248.45L184.56 244.01L184.96 238.74L185.47 232.78L186.14 226.29L187.02 219.39L188.16 212.25L189.62 205L191.62 196.94L194.19 187.65L197.13 177.65L200.23 167.47L203.29 157.67L206.1 148.77L208.44 141.3L210.12 135.81" fill="none"/><text font-size="10" fill="#3d3629" opacity="0.75" font-style="italic" text-anchor="middle" font-family="sans-serif"><textPath href="#cdlp-the-sundered-reach-3" startOffset="19.42%"><tspan dy="12">The Vael</tspan></textPath></text><path id="cdlp-the-sundered-reach-4" d="M21.61 329.36L25.94 328.03L31.75 326.2L38.69 324.03L46.36 321.64L54.39 319.16L62.41 316.75L70.03 314.52L76.88 312.63L83.13 311.1L89.22 309.85L95.16 308.76L100.96 307.73L106.64 306.68L112.19 305.5L117.64 304.1L123 302.38L128.47 300.17L134.13 297.5L139.81 294.55L145.31 291.5L150.45 288.53L155.04 285.82L158.9 283.55L161.85 281.9" fill="none"/><text font-size="10" fill="#3d3629" opacity="0.75" font-style="italic" text-anchor="middle" font-family="sans-serif"><textPath href="#cdlp-the-sundered-reach-4" startOffset="50%"><tspan dy="12">The Serren</tspan></textPath></text><path id="cdlp-the-sundered-reach-5" d="M164.11 109.98L169.38 107.77L176.54 104.78L185.08 101.21L194.49 97.27L204.25 93.18L213.87 89.13L222.83 85.33L230.62 82L237.57 79.02L244.3 76.13L250.75 73.36L256.86 70.71L262.58 68.19L267.84 65.8L272.58 63.57L276.75 61.5L280.28 59.57L283.18 57.76L285.56 56.09L287.49 54.56L289.05 53.2L290.35 52.01L291.45 51L292.46 50.19" fill="none"/><text font-size="10" fill="#3d3629" opacity="0.75" font-style="italic" text-anchor="middle" font-family="sans-serif"><textPath href="#cdlp-the-sundered-reach-5" startOffset="50%"><tspan dy="12">The Coldrun</tspan></textPath></text><path id="cdlp-the-sundered-reach-6" d="M561.16 413.25L560.45 411.61L559.37 409.65L558.06 407.34L556.69 404.64L555.4 401.54L554.33 398L553.65 394L553.5 389.5L554 383.97L555.05 377.2L556.49 369.67L558.16 361.85L559.89 354.22L561.51 347.24L562.87 341.4L563.78 337.17" fill="none"/><text font-size="10" fill="#3d3629" opacity="0.75" font-style="italic" text-anchor="middle" font-family="sans-serif"><textPath href="#cdlp-the-sundered-reach-6" startOffset="50%"><tspan dy="-5">The Sathwater</tspan></textPath></text><path id="cdlp-the-sundered-reach-7" d="M607.31 361.83L613.13 357.18L620.97 350.95L630.3 343.53L640.63 335.3L651.43 326.68L662.21 318.05L672.44 309.82L681.62 302.38L690 295.32L698.17 288.12L706.12 280.93L713.88 273.93L721.45 267.28L728.84 261.15L736.07 255.71L743.12 251.12L750.28 247.47L757.65 244.61L764.98 242.41L772.07 240.75L778.67 239.49L784.57 238.49L789.53 237.64L793.33 236.78" fill="none"/><text font-size="8" fill="#3d3629" opacity="0.75" font-style="italic" text-anchor="middle" font-family="sans-serif"><textPath href="#cdlp-the-sundered-reach-7" startOffset="50%"><tspan dy="12">The Deepflow</tspan></textPath></text><path id="cdlp-the-sundered-reach-8" d="M511.56 385.36L512.52 383.31L513.7 380.6L515.08 377.37L516.68 373.77L518.5 369.96L520.54 366.09L522.81 362.3L525.31 358.75L528.33 355.17L531.98 351.29L536.03 347.3L540.21 343.34L544.29 339.59L548.01 336.22L551.13 333.39L553.4 331.26" fill="none"/><text font-size="8" fill="#3d3629" opacity="0.75" font-style="italic" text-anchor="middle" font-family="sans-serif"><textPath href="#cdlp-the-sundered-reach-8" startOffset="36.79%"><tspan dy="12">The Reedrun</tspan></textPath></text><path id="cdlp-the-sundered-reach-9" d="M153.75 174.25L154.97 179.86L156.63 187.38L158.61 196.35L160.8 206.28L163.06 216.69L165.28 227.1L167.34 237.03L169.12 246L170.79 254.25L172.53 262.34L174.24 270.26L175.85 278.03L177.26 285.64L178.37 293.09L179.11 300.37L179.37 307.5L179 314.75L178.01 322.23L176.58 329.72L174.89 336.97L173.12 343.74L171.45 349.78L170.06 354.87L169.12 358.75" fill="none"/><text font-size="9" fill="#3d3629" opacity="0.75" font-style="italic" text-anchor="middle" font-family="sans-serif"><textPath href="#cdlp-the-sundered-reach-9" startOffset="32%"><tspan dy="12">The Long Kingsway</tspan></textPath></text><path id="cdlp-the-sundered-reach-10" d="M643.19 330.56L646.46 327.65L650.71 323.84L655.77 319.3L661.45 314.23L667.56 308.79L673.94 303.18L680.39 297.56L686.75 292.13L693.24 286.51L700.13 280.41L707.3 274.03L714.63 267.6L722 261.36L729.28 255.53L736.37 250.33L743.12 246L749.9 242.53L756.95 239.7L764.03 237.42L770.92 235.6L777.36 234.13L783.12 232.93L787.97 231.91L791.66 230.96" fill="none"/><text font-size="10" fill="#3d3629" opacity="0.75" font-style="italic" text-anchor="middle" font-family="sans-serif"><textPath href="#cdlp-the-sundered-reach-10" startOffset="50%"><tspan dy="-5">The Deep Road</tspan></textPath></text><text x="144.75" y="178.25" font-size="13" font-weight="bold" fill="#3d3629" text-anchor="end" font-family="sans-serif">Corven</text><text x="178.12" y="362.75" font-size="13" font-weight="bold" fill="#3d3629" text-anchor="start" font-family="sans-serif">Marrowgate</text><text x="126.87" y="50.12" font-size="13" font-weight="bold" fill="#3d3629" text-anchor="start" font-family="sans-serif">Ghor Vakh Hold</text><text x="652.19" y="350.86" font-size="13" font-weight="bold" fill="#3d3629" text-anchor="start" font-family="sans-serif">Khundrum Gate</text><text x="567.63" y="433.23" font-size="11" font-weight="bold" fill="#3d3629" text-anchor="start" font-family="sans-serif">Ssurath</text><text x="416.44" y="253.08" font-size="13" font-weight="bold" fill="#3d3629" text-anchor="start" font-family="sans-serif">Ilvarien</text><text x="318.95" y="127.4" font-size="10" font-weight="normal" fill="#3d3629" text-anchor="start" font-family="sans-serif">Fairhaven</text><text x="301.49" y="336.11" font-size="10" font-weight="normal" fill="#3d3629" text-anchor="start" font-family="sans-serif">Tornquay</text><text x="791.66" y="224.16" font-size="8" font-weight="normal" fill="#3d3629" text-anchor="middle" font-family="sans-serif">Deepwatch</text><text x="527.43" y="444.31" font-size="10" font-weight="normal" fill="#3d3629" text-anchor="end" font-family="sans-serif">Reedhome</text><text x="434.75" y="293.75" font-size="10" font-weight="normal" fill="#3d3629" text-anchor="end" font-family="sans-serif">The Drowned Throne</text><text x="193.87" y="157.75" font-size="10" font-weight="normal" fill="#3d3629" text-anchor="end" font-family="sans-serif">Elder Aum's Seat</text><text x="590.25" y="352.5" font-size="8" font-weight="normal" fill="#3d3629" text-anchor="start" font-family="sans-serif">The Echo Stair</text><text x="364.75" y="211.37" font-size="10" font-weight="normal" fill="#3d3629" text-anchor="start" font-family="sans-serif">The Sundering Stone</text><text x="404.87" y="118.61" font-size="12" letter-spacing="1.04" fill="#5a7a96" opacity="0.85" text-anchor="middle" font-family="sans-serif" transform="rotate(90 404.87 118.61)">THE SUNDERED SEA</text><text x="404.87" y="386.01" font-size="12" letter-spacing="1.04" fill="#5a7a96" opacity="0.85" text-anchor="middle" font-family="sans-serif" transform="rotate(90 404.87 386.01)">THE SUNDERED SEA</text><text x="14" y="22" font-size="16" font-weight="bold" fill="#3d3629" font-family="sans-serif">The Sundered Reach</text><g><circle cx="786" cy="40" r="14" fill="none" stroke="#3d3629" stroke-width="1"/><polygon points="786,29 782,46 790,46" fill="#3d3629"/><text x="786" y="23" font-size="9" fill="#3d3629" text-anchor="middle" font-family="sans-serif">N</text></g><g><line x1="14" y1="496.5" x2="116.5" y2="496.5" stroke="#3d3629" stroke-width="2"/><line x1="14" y1="492.5" x2="14" y2="500.5" stroke="#3d3629" stroke-width="2"/><line x1="116.5" y1="492.5" x2="116.5" y2="500.5" stroke="#3d3629" stroke-width="2"/><text x="65.25" y="490.5" font-size="9" fill="#3d3629" text-anchor="middle" font-family="sans-serif">200mi</text></g></svg>