<svg xmlns="http://www.w3.org/2000/svg" viewBox="0 0 820 546.67" width="820" height="546.67" font-family="sans-serif"><rect x="0" y="0" width="820" height="546.67" fill="#f9f5ea"/><g id="cd-vessany-the-argen-sea"><polygon points="191.33,0 186.43,8.89 179.16,20.43 170.43,34.14 161.15,49.54 152.23,66.15 144.57,83.49 139.08,101.09 136.67,118.44 138.38,136.56 143.78,156.31 151.61,177.06 160.58,198.17 169.41,218.99 176.81,238.88 181.51,257.21 182.22,273.33 177.97,286.82 169.55,298.1 158.36,307.82 145.78,316.61 133.2,325.12 122,333.98 113.59,343.84 109.33,355.33 109.86,368.71 114.1,383.45 120.94,399.08 129.26,415.13 137.94,431.1 145.85,446.52 151.87,460.9 154.89,473.78 154.77,485.57 152.54,496.91 148.78,507.65 144.07,517.62 139.01,526.67 134.18,534.64 130.16,541.35 127.56,546.67 0,546.67 0,0" fill="#b9d3e6" opacity="1"/></g><g id="cd-vessany-vessany"><polygon points="637.78,54.67 641.15,69.94 646.25,90.04 652.38,113.95 658.85,140.65 664.96,169.13 670.02,198.38 673.34,227.38 674.22,255.11 672.14,283.83 667.53,315.47 661.14,348.54 653.72,381.53 646.02,412.95 638.77,441.32 632.74,465.13 628.67,482.89 0,482.89 0,54.67" fill="#d8d3c5" opacity="0.2"/></g><g id="cd-vessany-khar"><polygon points="637.78,54.67 641.15,69.94 646.25,90.04 652.38,113.95 658.85,140.65 664.96,169.13 670.02,198.38 673.34,227.38 674.22,255.11 672.14,283.83 667.53,315.47 661.14,348.54 653.72,381.53 646.02,412.95 638.77,441.32 632.74,465.13 628.67,482.89 820,482.89 820,54.67" fill="#d8d3c5" opacity="0.2"/></g><g id="cd-vessany-thornwood"><polygon points="424.65,154.89 423.92,158.07 423.44,161.03 423,163.84 422.42,166.54 421.49,169.2 420.18,171.74 418.62,174.13 416.86,176.48 414.95,178.88 412.95,181.44 410.92,184.4 408.82,187.69 406.56,190.96 404.03,193.83 401.15,195.95 397.73,197.33 393.83,198.21 389.73,198.57 385.7,198.4 382.01,197.69 378.65,196.27 375.46,194.14 372.42,191.57 369.55,188.81 366.87,186.13 364.28,183.53 361.78,180.84 359.5,178.05 357.55,175.13 356.07,172.08 355.15,168.84 354.72,165.42 354.62,161.9 354.69,158.36 354.78,154.89 354.86,151.52 355.04,148.19 355.36,144.85 355.85,141.45 356.55,137.92 357.31,133.91 358.11,129.44 359.17,125.07 360.73,121.35 363.02,118.83 366.34,117.97 370.54,118.4 375.16,119.43 379.78,120.39 383.95,120.58 387.64,119.62 391.15,117.96 394.51,116.19 397.78,114.88 400.97,114.6 404.07,115.59 407.04,117.47 409.93,119.89 412.81,122.46 415.74,124.84 419.06,126.91 422.72,128.93 426.22,131.03 429.05,133.39 430.7,136.14 430.79,139.49 429.66,143.32 427.87,147.35 426.01,151.3" fill="#a9c79c" stroke="#879f7d" stroke-width="1"/><polygon points="416.65,154.83 415.96,157.25 415.58,159.5 415.31,161.64 414.93,163.73 414.26,165.77 413.26,167.72 412.06,169.55 410.72,171.34 409.3,173.22 407.85,175.28 406.43,177.78 404.98,180.67 403.37,183.62 401.47,186.25 399.2,188.19 396.44,189.43 393.27,190.23 389.92,190.57 386.62,190.45 383.61,189.85 380.89,188.59 378.35,186.68 375.98,184.41 373.78,182.02 371.71,179.76 369.69,177.63 367.72,175.48 365.9,173.26 364.36,170.94 363.22,168.49 362.59,165.88 362.39,163.13 362.46,160.33 362.65,157.55 362.78,154.84 362.83,152.21 362.91,149.61 363.07,146.99 363.33,144.28 363.74,141.44 364.11,138.12 364.44,134.33 365.01,130.54 366.09,127.29 367.92,125.15 370.78,124.63 374.44,125.38 378.41,126.75 382.22,128 385.52,128.42 388.35,127.58 391.07,125.96 393.74,124.15 396.39,122.76 399,122.35 401.49,123.16 403.83,124.8 406.07,126.89 408.29,129.06 410.61,130.97 413.35,132.51 416.49,133.94 419.57,135.47 422.06,137.28 423.44,139.51 423.31,142.32 421.98,145.56 420.02,148.9 418.05,152.06" fill="#a9c79c"/></g><g id="cd-vessany-the-vess-downs"><polygon points="530.12,364.44 529.46,369.24 528.19,373.98 526.5,378.66 524.57,383.31 522.59,387.95 520.67,392.67 518.69,397.46 516.48,402.17 513.89,406.67 510.76,410.82 506.99,414.87 502.69,418.92 498,422.59 493.09,425.46 488.09,427.16 482.94,427.32 477.54,426.2 471.99,424.35 466.42,422.31 460.96,420.62 455.46,419.54 449.86,418.68 444.34,417.7 439.09,416.23 434.32,413.93 429.73,410.64 425.21,406.6 421.16,402.03 418.02,397.15 416.19,392.18 416.04,386.87 417.29,381.08 419.41,375.18 421.82,369.51 424,364.44 426.07,360.19 428.4,356.51 430.78,353.09 433.02,349.6 434.92,345.73 436.1,341.06 436.7,335.81 437.27,330.59 438.37,326.04 440.55,322.78 444.12,321.34 448.71,321.29 453.85,321.86 459.1,322.24 464.01,321.65 468.61,319.45 473.22,316.16 477.76,312.74 482.16,310.15 486.35,309.34 490.25,310.81 493.88,313.91 497.4,317.91 500.97,322.07 504.73,325.63 508.98,328.39 513.62,330.85 518.21,333.31 522.3,336.11 525.46,339.56 527.61,343.85 529.06,348.79 529.9,354.06 530.22,359.38" fill="#d9cba6" stroke="#aea285" stroke-width="1"/><polygon points="522.13,364.9 521.46,369 520.25,373.03 518.67,376.99 516.93,380.92 515.22,384.83 513.64,388.85 512.06,392.98 510.3,397.08 508.21,401.03 505.62,404.69 502.46,408.28 498.84,411.91 494.86,415.23 490.64,417.85 486.31,419.36 481.82,419.4 477.12,418.21 472.34,416.36 467.59,414.39 462.94,412.87 458.21,412.02 453.33,411.47 448.46,410.84 443.8,409.76 439.56,407.88 435.5,405.09 431.48,401.63 427.88,397.69 425.1,393.44 423.56,389.07 423.64,384.37 425.08,379.25 427.33,374.08 429.82,369.22 431.99,364.94 433.98,361.4 436.18,358.38 438.38,355.61 440.36,352.78 441.92,349.6 442.68,345.61 442.82,340.96 442.94,336.23 443.62,332.08 445.38,329.16 448.51,328.03 452.6,328.28 457.14,329.15 461.68,329.82 465.79,329.45 469.59,327.39 473.42,324.16 477.28,320.73 481.1,318.08 484.76,317.18 488.11,318.52 491.16,321.44 494.05,325.18 496.95,328.98 500.05,332.12 503.7,334.4 507.79,336.32 511.92,338.25 515.62,340.51 518.45,343.41 520.31,347.12 521.5,351.39 522.13,355.96 522.31,360.55" fill="#d9cba6"/></g><g id="cd-vessany-coast"><polyline points="191.33,0 186.43,8.89 179.16,20.43 170.43,34.14 161.15,49.54 152.23,66.15 144.57,83.49 139.08,101.09 136.67,118.44 138.38,136.56 143.78,156.31 151.61,177.06 160.58,198.17 169.41,218.99 176.81,238.88 181.51,257.21 182.22,273.33 177.97,286.82 169.55,298.1 158.36,307.82 145.78,316.61 133.2,325.12 122,333.98 113.59,343.84 109.33,355.33 109.86,368.71 114.1,383.45 120.94,399.08 129.26,415.13 137.94,431.1 145.85,446.52 151.87,460.9 154.89,473.78 154.77,485.57 152.54,496.91 148.78,507.65 144.07,517.62 139.01,526.67 134.18,534.64 130.16,541.35 127.56,546.67" fill="none" stroke="#8fa8b8" stroke-width="1.2" stroke-linejoin="round" stroke-linecap="round"/></g><g id="cd-vessany-the-serpents-spine"><polyline points="637.78,54.67 641.15,69.94 646.25,90.04 652.38,113.95 658.85,140.65 664.96,169.13 670.02,198.38 673.34,227.38 674.22,255.11 672.14,283.83 667.53,315.47 661.14,348.54 653.72,381.53 646.02,412.95 638.77,441.32 632.74,465.13 628.67,482.89" fill="none" stroke="#a99a85" stroke-width="14" opacity="0.5" stroke-linejoin="round" stroke-linecap="round"/><polyline points="637.78,54.67 641.15,69.94 646.25,90.04 652.38,113.95 658.85,140.65 664.96,169.13 670.02,198.38 673.34,227.38 674.22,255.11 672.14,283.83 667.53,315.47 661.14,348.54 653.72,381.53 646.02,412.95 638.77,441.32 632.74,465.13 628.67,482.89" fill="none" stroke="#8d8171" stroke-width="2.5" stroke-linejoin="round"/></g><g id="cd-vessany-the-vess"><polyline points="672.13,216.82 664.58,221.29 654.55,227.34 642.61,234.56 629.33,242.51 615.27,250.79 600.98,258.97 587.04,266.63 574,273.33 561.88,279.33 550.16,285.1 538.57,290.65 526.87,295.94 514.79,300.97 502.09,305.73 488.5,310.19 473.78,314.33 457.55,318.11 439.9,321.52 421.25,324.61 402.03,327.43 382.67,330.04 363.59,332.48 345.23,334.82 328,337.11 311.76,339.32 296.04,341.38 280.78,343.3 265.93,345.08 251.44,346.72 237.24,348.22 223.3,349.57 209.56,350.78 195.47,351.81 180.87,352.66 166.23,353.35 152.04,353.91 138.78,354.36 126.91,354.73 116.94,355.04 109.33,355.33" fill="none" stroke="#7fa8cf" stroke-width="2" stroke-linejoin="round" stroke-linecap="round"/></g><g id="cd-vessany-coast-road"><polyline points="145.4,432 143.86,434.85 141.94,431.1 133.26,415.13 124.94,399.08 118.1,383.45 116.99,379.57 119.45,377.71" fill="none" stroke="#c3a878" stroke-width="2" stroke-linejoin="round" stroke-linecap="round"/></g><g id="cd-vessany-kings-way"><polyline points="328,300.67 145.4,432" fill="none" stroke="#c3a878" stroke-width="2" stroke-linejoin="round" stroke-linecap="round"/></g><g><title>Redrawn at the Treaty of Argen; Khar disputes the southern third.</title><polyline points="637.78,54.67 641.15,69.94 646.25,90.04 652.38,113.95 658.85,140.65 664.96,169.13 670.02,198.38 673.34,227.38 674.22,255.11 672.14,283.83 667.53,315.47 661.14,348.54 653.72,381.53 646.02,412.95 638.77,441.32 632.74,465.13 628.67,482.89" fill="none" stroke="#a05a5a" stroke-width="2" stroke-dasharray="8 4" stroke-linejoin="round" stroke-linecap="round"/></g><g id="cd-vessany-gull-bay"><circle cx="109.33" cy="355.33" r="3" fill="#3d3629" stroke="#fff" stroke-width="1"/></g><g id="cd-vessany-highkeep"><rect x="322" y="294.67" width="12" height="12" fill="#3d3629" transform="rotate(45 328 300.67)"/></g><g id="cd-vessany-argenport"><circle cx="145.4" cy="432" r="5" fill="#3d3629" stroke="#fff" stroke-width="1"/></g><g id="cd-vessany-merrows-rest"><circle cx="119.45" cy="377.71" r="4" fill="#3d3629" stroke="#fff" stroke-width="1"/></g><g id="cd-vessany-dunmere"><circle cx="391.78" cy="195.89" r="4" fill="#3d3629" stroke="#fff" stroke-width="1"/></g><g id="cd-vessany-gull-landing"><circle cx="116.33" cy="355.33" r="3" fill="#3d3629" stroke="#fff" stroke-width="1"/></g><g id="cd-vessany-sparrowdown"><circle cx="364.44" cy="300.67" r="3" fill="#3d3629" stroke="#fff" stroke-width="1"/></g><text x="585.25" y="218.95" font-size="18" letter-spacing="6" fill="#3d3629" opacity="0.55" text-anchor="middle" font-family="sans-serif">VESSANY</text><text x="671.56" y="284.35" font-size="18" letter-spacing="6" fill="#3d3629" opacity="0.55" text-anchor="middle" font-family="sans-serif">KHAR</text><text x="391.78" y="140.79" font-size="11" fill="#3d3629" opacity="0.8" text-anchor="middle" font-style="italic" font-family="sans-serif">Thornwood</text><text x="473.78" y="350.34" font-size="11" fill="#3d3629" opacity="0.8" text-anchor="middle" font-style="italic" font-family="sans-serif">The Vess Downs</text><path id="cdlp-vessany-0" d="M628.67 482.89L632.74 465.13L638.77 441.32L646.02 412.95L653.72 381.53L661.14 348.54L667.53 315.47L672.14 283.83L674.22 255.11L673.34 227.38L670.02 198.38L664.96 169.13L658.85 140.65L652.38 113.95L646.25 90.04L641.15 69.94L637.78 54.67" fill="none"/><text font-size="10" fill="#3d3629" opacity="0.75" font-style="italic" text-anchor="middle" font-family="sans-serif"><textPath href="#cdlp-vessany-0" startOffset="50%"><tspan dy="20">The Serpent's Spine</tspan></textPath></text><path id="cdlp-vessany-1" d="M109.33 355.33L116.94 355.04L126.91 354.73L138.78 354.36L152.04 353.91L166.23 353.35L180.87 352.66L195.47 351.81L209.56 350.78L223.3 349.57L237.24 348.22L251.44 346.72L265.93 345.08L280.78 343.3L296.04 341.38L311.76 339.32L328 337.11L345.23 334.82L363.59 332.48L382.67 330.04L402.03 327.43L421.25 324.61L439.9 321.52L457.55 318.11L473.78 314.33L488.5 310.19L502.09 305.73L514.79 300.97L526.87 295.94L538.57 290.65L550.16 285.1L561.88 279.33L574 273.33L587.04 266.63L600.98 258.97L615.27 250.79L629.33 242.51L642.61 234.56L654.55 227.34L664.58 221.29L672.13 216.82" fill="none"/><text font-size="10" fill="#3d3629" opacity="0.75" font-style="italic" text-anchor="middle" font-family="sans-serif"><textPath href="#cdlp-vessany-1" startOffset="50%"><tspan dy="-5">The Vess</tspan></textPath></text><path id="cdlp-vessany-2" d="M119.45 377.71L116.99 379.57L118.1 383.45L124.94 399.08L133.26 415.13L141.94 431.1L143.86 434.85L145.4 432" fill="none"/><text font-size="10" fill="#3d3629" opacity="0.75" font-style="italic" text-anchor="middle" font-family="sans-serif"><textPath href="#cdlp-vessany-2" startOffset="50%"><tspan dy="12">Coast Road</tspan></textPath></text><path id="cdlp-vessany-3" d="M145.4 432L328 300.67" fill="none"/><text font-size="10" fill="#3d3629" opacity="0.75" font-style="italic" text-anchor="middle" font-family="sans-serif"><textPath href="#cdlp-vessany-3" startOffset="50%"><tspan dy="12">King's Way</tspan></textPath></text><text x="319" y="304.67" font-size="13" font-weight="bold" fill="#3d3629" text-anchor="end" font-family="sans-serif">Highkeep</text><text x="153.4" y="436" font-size="11" font-weight="bold" fill="#3d3629" text-anchor="start" font-family="sans-serif">Argenport</text><text x="115.33" y="372.33" font-size="10" font-weight="normal" fill="#3d3629" text-anchor="start" font-family="sans-serif">Gull Bay</text><text x="126.45" y="394.71" font-size="10" font-weight="normal" fill="#3d3629" text-anchor="start" font-family="sans-serif">Merrow's Rest</text><text x="398.78" y="199.89" font-size="10" font-weight="normal" fill="#3d3629" text-anchor="start" font-family="sans-serif">Dunmere</text><text x="122.33" y="347.43" font-size="9" font-weight="normal" fill="#3d3629" text-anchor="start" font-family="sans-serif">Gull Landing</text><text x="370.44" y="304.67" font-size="9" font-weight="normal" fill="#3d3629" text-anchor="start" font-family="sans-serif">Sparrowdown</text><text x="82" y="296.11" font-size="16" letter-spacing="8" fill="#5a7a96" opacity="0.85" text-anchor="middle" font-family="sans-serif" transform="rotate(90 82 296.11)">THE ARGEN SEA</text><text x="14" y="22" font-size="16" font-weight="bold" fill="#3d3629" font-family="sans-serif">Vessany</text><g><circle cx="786" cy="40" r="14" fill="none" stroke="#3d3629" stroke-width="1"/><polygon points="786,29 782,46 790,46" fill="#3d3629"/><text x="786" y="23" font-size="9" fill="#3d3629" text-anchor="middle" font-family="sans-serif">N</text></g><g><line x1="14" y1="530.67" x2="114.22" y2="530.67" stroke="#3d3629" stroke-width="2"/><line x1="14" y1="526.67" x2="14" y2="534.67" stroke="#3d3629" stroke-width="2"/><line x1="114.22" y1="526.67" x2="114.22" y2="534.67" stroke="#3d3629" stroke-width="2"/><text x="64.11" y="524.67" font-size="9" fill="#3d3629" text-anchor="middle" font-family="sans-serif">110mi</text></g></svg>