<svg xmlns="http://www.w3.org/2000/svg" viewBox="0 0 820 546.67" width="820" height="546.67" font-family="sans-serif"><rect x="0" y="0" width="820" height="546.67" fill="#f9f5ea"/><g id="cd-vessany-the-argen-sea"><polygon points="191.33,0 186.43,8.89 179.16,20.43 170.43,34.14 161.15,49.54 152.23,66.15 144.57,83.49 139.08,101.09 136.67,118.44 138.38,136.56 143.78,156.31 151.61,177.06 160.58,198.17 169.41,218.99 176.81,238.88 181.51,257.21 182.22,273.33 177.97,286.82 169.55,298.1 158.36,307.82 145.78,316.61 133.2,325.12 122,333.98 113.59,343.84 109.33,355.33 109.86,368.71 114.1,383.45 120.94,399.08 129.26,415.13 137.94,431.1 145.85,446.52 151.87,460.9 154.89,473.78 154.77,485.57 152.54,496.91 148.78,507.65 144.07,517.62 139.01,526.67 134.18,534.64 130.16,541.35 127.56,546.67 0,546.67 0,0" fill="#b9d3e6" opacity="1"/></g><g id="cd-vessany-vessany"><polygon points="637.78,54.67 641.15,69.94 646.25,90.04 652.38,113.95 658.85,140.65 664.96,169.13 670.02,198.38 673.34,227.38 674.22,255.11 672.14,283.83 667.53,315.47 661.14,348.54 653.72,381.53 646.02,412.95 638.77,441.32 632.74,465.13 628.67,482.89 0,482.89 0,54.67" fill="#d8d3c5" opacity="0.14"/></g><g id="cd-vessany-khar"><polygon points="637.78,54.67 641.15,69.94 646.25,90.04 652.38,113.95 658.85,140.65 664.96,169.13 670.02,198.38 673.34,227.38 674.22,255.11 672.14,283.83 667.53,315.47 661.14,348.54 653.72,381.53 646.02,412.95 638.77,441.32 632.74,465.13 628.67,482.89 820,482.89 820,54.67" fill="#d8d3c5" opacity="0.14"/></g><g id="cd-vessany-thornwood"><polygon points="425.23,154.89 426.17,158.55 427.72,162.4 429.31,166.29 430.37,170.03 430.32,173.45 428.93,176.55 426.58,179.43 423.63,182.12 420.42,184.62 417.33,186.93 414.32,189.15 411.16,191.27 407.88,193.16 404.51,194.68 401.09,195.67 397.48,196.16 393.67,196.21 389.85,195.85 386.19,195.07 382.88,193.88 380.17,192.01 377.92,189.46 375.79,186.63 373.4,183.92 370.38,181.72 366.16,180.37 360.97,179.61 355.69,178.93 351.21,177.82 348.4,175.78 347.8,172.53 348.82,168.41 350.66,163.82 352.52,159.18 353.58,154.89 353.52,150.89 352.87,146.91 352.13,143.04 351.81,139.35 352.4,135.93 354.07,132.68 356.48,129.56 359.4,126.7 362.57,124.23 365.77,122.27 369.05,121.15 372.57,120.78 376.24,120.68 379.98,120.39 383.69,119.45 387.48,117.27 391.41,114.16 395.32,111 399.05,108.68 402.46,108.08 405.5,109.71 408.27,112.97 410.83,117.12 413.26,121.38 415.62,124.99 418.04,127.86 420.47,130.48 422.73,133.02 424.61,135.62 425.92,138.45 426.39,141.51 426.16,144.71 425.62,148.02 425.18,151.42" fill="#a9c79c" stroke="#879f7d" stroke-width="1"/><polygon points="417.23,154.85 418.21,157.68 419.89,160.77 421.65,163.98 422.91,167.13 423.1,170.01 422,172.55 420.01,174.87 417.5,176.97 414.82,178.91 412.27,180.73 409.84,182.52 407.31,184.26 404.68,185.83 401.96,187.09 399.19,187.9 396.26,188.25 393.17,188.23 390.08,187.85 387.15,187.13 384.52,186.05 382.41,184.33 380.76,181.98 379.25,179.42 377.54,177.07 375.25,175.37 371.74,174.63 367.14,174.52 362.3,174.42 358.13,173.81 355.58,172.24 355.2,169.49 356.43,165.94 358.47,162.07 360.46,158.27 361.58,154.86 361.48,151.7 360.7,148.52 359.79,145.34 359.26,142.27 359.59,139.43 360.94,136.78 362.95,134.27 365.39,132 368.03,130.07 370.69,128.58 373.44,127.84 376.4,127.8 379.44,128.01 382.44,128 385.33,127.28 388.24,125.24 391.34,122.16 394.54,118.96 397.69,116.56 400.57,115.85 403.06,117.32 405.22,120.37 407.11,124.2 408.83,128.04 410.53,131.16 412.37,133.51 414.3,135.57 416.13,137.54 417.66,139.58 418.67,141.84 418.9,144.32 418.47,146.91 417.77,149.54 417.21,152.19" fill="#a9c79c"/></g><g id="cd-vessany-the-vess-downs"><polygon points="522.67,364.44 522.61,368.96 522.47,373.48 522.13,377.98 521.47,382.45 520.36,386.88 518.86,391.54 517.05,396.43 514.85,401.16 512.17,405.32 508.92,408.51 504.85,410.59 500.01,411.82 494.79,412.41 489.57,412.58 484.75,412.52 480.42,412.02 476.34,410.94 472.33,409.62 468.26,408.35 463.96,407.46 459.25,407.31 454.22,407.69 449.17,408.05 444.38,407.87 440.14,406.62 436.5,404.09 433.26,400.61 430.36,396.53 427.71,392.16 425.25,387.82 422.86,383.47 420.59,378.92 418.61,374.19 417.09,369.35 416.2,364.44 415.89,359.29 416.05,353.84 416.76,348.39 418.07,343.21 420.07,338.58 422.99,334.67 426.8,331.31 431.11,328.23 435.56,325.15 439.77,321.81 443.67,317.66 447.5,312.88 451.37,308.3 455.42,304.71 459.74,302.95 464.49,303.6 469.59,306.12 474.82,309.62 479.98,313.21 484.84,315.99 489.44,317.74 493.94,319.03 498.27,320.24 502.36,321.72 506.15,323.85 509.76,326.69 513.21,330.02 516.36,333.71 519.02,337.64 521.05,341.68 522.29,345.92 522.84,350.45 522.94,355.13 522.81,359.83" fill="#d9cba6" stroke="#aea285" stroke-width="1"/><polygon points="514.68,364.23 514.66,368.04 514.63,371.86 514.46,375.68 514.02,379.51 513.19,383.32 512.03,387.36 510.64,391.65 508.89,395.82 506.68,399.5 503.91,402.28 500.33,403.98 496.06,404.86 491.48,405.13 486.95,405.02 482.81,404.75 479.13,404.12 475.68,402.97 472.35,401.62 468.99,400.38 465.46,399.6 461.53,399.65 457.24,400.28 452.85,400.95 448.63,401.09 444.91,400.2 441.77,398.07 439.04,395.08 436.62,391.55 434.42,387.8 432.33,384.1 430.26,380.43 428.24,376.58 426.44,372.58 425.03,368.45 424.19,364.25 423.87,359.83 423.95,355.14 424.49,350.44 425.58,345.96 427.31,341.97 429.92,338.66 433.36,335.89 437.22,333.39 441.14,330.89 444.73,328.08 447.95,324.42 451.05,320.05 454.24,315.76 457.65,312.39 461.39,310.78 465.55,311.53 469.99,314.11 474.47,317.61 478.78,321.12 482.8,323.73 486.63,325.23 490.43,326.22 494.14,327.09 497.67,328.2 500.94,329.91 504.03,332.28 507,335.06 509.71,338.16 512,341.47 513.73,344.91 514.72,348.53 515.08,352.4 515.04,356.37 514.83,360.35" fill="#d9cba6"/></g><g id="cd-vessany-coast"><polyline points="191.33,0 186.43,8.89 179.16,20.43 170.43,34.14 161.15,49.54 152.23,66.15 144.57,83.49 139.08,101.09 136.67,118.44 138.38,136.56 143.78,156.31 151.61,177.06 160.58,198.17 169.41,218.99 176.81,238.88 181.51,257.21 182.22,273.33 177.97,286.82 169.55,298.1 158.36,307.82 145.78,316.61 133.2,325.12 122,333.98 113.59,343.84 109.33,355.33 109.86,368.71 114.1,383.45 120.94,399.08 129.26,415.13 137.94,431.1 145.85,446.52 151.87,460.9 154.89,473.78 154.77,485.57 152.54,496.91 148.78,507.65 144.07,517.62 139.01,526.67 134.18,534.64 130.16,541.35 127.56,546.67" fill="none" stroke="#8fa8b8" stroke-width="2" stroke-linejoin="round" stroke-linecap="round"/></g><g id="cd-vessany-the-serpents-spine"><polyline points="637.78,54.67 641.15,69.94 646.25,90.04 652.38,113.95 658.85,140.65 664.96,169.13 670.02,198.38 673.34,227.38 674.22,255.11 672.14,283.83 667.53,315.47 661.14,348.54 653.72,381.53 646.02,412.95 638.77,441.32 632.74,465.13 628.67,482.89" fill="none" stroke="#a99a85" stroke-width="14" opacity="0.5" stroke-linejoin="round" stroke-linecap="round"/><polyline points="637.78,54.67 641.15,69.94 646.25,90.04 652.38,113.95 658.85,140.65 664.96,169.13 670.02,198.38 673.34,227.38 674.22,255.11 672.14,283.83 667.53,315.47 661.14,348.54 653.72,381.53 646.02,412.95 638.77,441.32 632.74,465.13 628.67,482.89" fill="none" stroke="#8d8171" stroke-width="2.5" stroke-linejoin="round"/></g><g id="cd-vessany-the-vess"><polyline points="672.13,216.82 664.58,221.29 654.55,227.34 642.61,234.56 629.33,242.51 615.27,250.79 600.98,258.97 587.04,266.63 574,273.33 561.88,279.33 550.16,285.1 538.57,290.65 526.87,295.94 514.79,300.97 502.09,305.73 488.5,310.19 473.78,314.33 457.55,318.11 439.9,321.52 421.25,324.61 402.03,327.43 382.67,330.04 363.59,332.48 345.23,334.82 328,337.11 311.76,339.32 296.04,341.38 280.78,343.3 265.93,345.08 251.44,346.72 237.24,348.22 223.3,349.57 209.56,350.78 195.47,351.81 180.87,352.66 166.23,353.35 152.04,353.91 138.78,354.36 126.91,354.73 116.94,355.04 109.33,355.33" fill="none" stroke="#7fa8cf" stroke-width="2" stroke-linejoin="round" stroke-linecap="round"/></g><g id="cd-vessany-coast-road"><polyline points="145.4,432 143.86,434.85 141.94,431.1 133.26,415.13 124.94,399.08 118.1,383.45 116.99,379.57 119.45,377.71" fill="none" stroke="#c3a878" stroke-width="2" stroke-linejoin="round" stroke-linecap="round"/></g><g id="cd-vessany-kings-way"><polyline points="328,300.67 145.4,432" fill="none" stroke="#c3a878" stroke-width="2" stroke-linejoin="round" stroke-linecap="round"/></g><g><polyline points="637.78,54.67 641.15,69.94 646.25,90.04 652.38,113.95 658.85,140.65 664.96,169.13 670.02,198.38 673.34,227.38 674.22,255.11 672.14,283.83 667.53,315.47 661.14,348.54 653.72,381.53 646.02,412.95 638.77,441.32 632.74,465.13 628.67,482.89" fill="none" stroke="#a05a5a" stroke-width="2" stroke-dasharray="8 4" stroke-linejoin="round" stroke-linecap="round"/></g><g id="cd-vessany-gull-bay"><circle cx="109.33" cy="355.33" r="3" fill="#3d3629" stroke="#fff" stroke-width="1"/></g><g id="cd-vessany-highkeep"><rect x="322" y="294.67" width="12" height="12" fill="#3d3629" transform="rotate(45 328 300.67)"/></g><g id="cd-vessany-argenport"><circle cx="145.4" cy="432" r="5" fill="#3d3629" stroke="#fff" stroke-width="1"/></g><g id="cd-vessany-merrows-rest"><circle cx="119.45" cy="377.71" r="4" fill="#3d3629" stroke="#fff" stroke-width="1"/></g><g id="cd-vessany-dunmere"><circle cx="391.78" cy="195.89" r="4" fill="#3d3629" stroke="#fff" stroke-width="1"/></g><g id="cd-vessany-gull-landing"><circle cx="116.33" cy="355.33" r="3" fill="#3d3629" stroke="#fff" stroke-width="1"/></g><g id="cd-vessany-sparrowdown"><circle cx="364.44" cy="300.67" r="3" fill="#3d3629" stroke="#fff" stroke-width="1"/></g><text x="103.33" y="359.33" font-size="10" font-weight="normal" fill="#3d3629" text-anchor="end" font-family="sans-serif">Gull Bay</text><path id="cdlp-vessany-0" d="M628.67 482.89L632.74 465.13L638.77 441.32L646.02 412.95L653.72 381.53L661.14 348.54L667.53 315.47L672.14 283.83L674.22 255.11L673.34 227.38L670.02 198.38L664.96 169.13L658.85 140.65L652.38 113.95L646.25 90.04L641.15 69.94L637.78 54.67" fill="none"/><text font-size="10" fill="#3d3629" opacity="0.75" font-style="italic" font-family="sans-serif"><textPath href="#cdlp-vessany-0" startOffset="38%"><tspan dy="-4">The Serpent's Spine</tspan></textPath></text><text x="391.78" y="140.79" font-size="11" fill="#3d3629" opacity="0.8" text-anchor="middle" font-style="italic" font-family="sans-serif">Thornwood</text><text x="473.78" y="350.34" font-size="11" fill="#3d3629" opacity="0.8" text-anchor="middle" font-style="italic" font-family="sans-serif">The Vess Downs</text><text x="319" y="304.67" font-size="15" font-weight="bold" fill="#3d3629" text-anchor="end" font-family="sans-serif">Highkeep</text><text x="153.4" y="436" font-size="13" font-weight="bold" fill="#3d3629" text-anchor="start" font-family="sans-serif">Argenport</text><text x="126.45" y="381.71" font-size="11" font-weight="normal" fill="#3d3629" text-anchor="start" font-family="sans-serif">Merrow's Rest</text><text x="398.78" y="199.89" font-size="11" font-weight="normal" fill="#3d3629" text-anchor="start" font-family="sans-serif">Dunmere</text><text x="122.33" y="359.33" font-size="10" font-weight="normal" fill="#3d3629" text-anchor="start" font-family="sans-serif">Gull Landing</text><text x="370.44" y="304.67" font-size="10" font-weight="normal" fill="#3d3629" text-anchor="start" font-family="sans-serif">Sparrowdown</text><path id="cdlp-vessany-1" d="M109.33 355.33L116.94 355.04L126.91 354.73L138.78 354.36L152.04 353.91L166.23 353.35L180.87 352.66L195.47 351.81L209.56 350.78L223.3 349.57L237.24 348.22L251.44 346.72L265.93 345.08L280.78 343.3L296.04 341.38L311.76 339.32L328 337.11L345.23 334.82L363.59 332.48L382.67 330.04L402.03 327.43L421.25 324.61L439.9 321.52L457.55 318.11L473.78 314.33L488.5 310.19L502.09 305.73L514.79 300.97L526.87 295.94L538.57 290.65L550.16 285.1L561.88 279.33L574 273.33L587.04 266.63L600.98 258.97L615.27 250.79L629.33 242.51L642.61 234.56L654.55 227.34L664.58 221.29L672.13 216.82" fill="none"/><text font-size="10" fill="#3d3629" opacity="0.75" font-style="italic" font-family="sans-serif"><textPath href="#cdlp-vessany-1" startOffset="38%"><tspan dy="-4">The Vess</tspan></textPath></text><path id="cdlp-vessany-2" d="M119.45 377.71L116.99 379.57L118.1 383.45L124.94 399.08L133.26 415.13L141.94 431.1L143.86 434.85L145.4 432" fill="none"/><text font-size="10" fill="#3d3629" opacity="0.75" font-style="italic" font-family="sans-serif"><textPath href="#cdlp-vessany-2" startOffset="38%"><tspan dy="-4">Coast Road</tspan></textPath></text><path id="cdlp-vessany-3" d="M145.4 432L328 300.67" fill="none"/><text font-size="10" fill="#3d3629" opacity="0.75" font-style="italic" font-family="sans-serif"><textPath href="#cdlp-vessany-3" startOffset="38%"><tspan dy="-4">King's Way</tspan></textPath></text><text x="585.25" y="262.55" font-size="18" letter-spacing="6" fill="#3d3629" opacity="0.55" text-anchor="middle" font-family="sans-serif">VESSANY</text><text x="671.56" y="284.35" font-size="18" letter-spacing="6" fill="#3d3629" opacity="0.55" text-anchor="middle" font-family="sans-serif">KHAR</text><text x="82" y="296.11" font-size="16" letter-spacing="8" fill="#5a7a96" opacity="0.85" text-anchor="middle" font-family="sans-serif" transform="rotate(90 82 296.11)">THE ARGEN SEA</text><text x="14" y="22" font-size="16" font-weight="bold" fill="#3d3629" font-family="sans-serif">Vessany</text><g><circle cx="786" cy="40" r="14" fill="none" stroke="#3d3629" stroke-width="1"/><polygon points="786,29 782,46 790,46" fill="#3d3629"/><text x="786" y="23" font-size="9" fill="#3d3629" text-anchor="middle" font-family="sans-serif">N</text></g><g><line x1="14" y1="530.67" x2="114.22" y2="530.67" stroke="#3d3629" stroke-width="2"/><line x1="14" y1="526.67" x2="14" y2="534.67" stroke="#3d3629" stroke-width="2"/><line x1="114.22" y1="526.67" x2="114.22" y2="534.67" stroke="#3d3629" stroke-width="2"/><text x="64.11" y="524.67" font-size="9" fill="#3d3629" text-anchor="middle" font-family="sans-serif">110mi</text></g></svg>