<svg xmlns="http://www.w3.org/2000/svg" viewBox="0 0 820 546.67" width="820" height="546.67" font-family="sans-serif"><rect x="0" y="0" width="820" height="546.67" fill="#f9f5ea"/><g id="cd-vessany-the-argen-sea"><polygon points="191.33,0 183.34,32.05 173.41,63.56 155.34,91.2 136.67,118.44 155.06,154.78 168.36,193.27 174.74,233.4 182.22,273.33 158.72,288.55 138.21,307.61 125.97,332.8 109.33,355.33 122.24,384.62 128.17,416.07 138.99,446.1 154.89,473.78 147.66,491.85 140.8,510.06 137.2,529.46 127.56,546.67 0,546.67 0,0" fill="#b9d3e6" opacity="1"/></g><g id="cd-vessany-thornwood"><polygon points="438.15,154.89 423.41,170.12 413.19,181.73 399.46,188.54 383.6,190.72 366.24,186.92 351.71,174.19 358.58,154.89 349.48,134.52 366.18,122.79 382.39,113.77 401.38,112.84 421.59,117.5 429.82,136.57" fill="#a9c79c" stroke="#879f7d" stroke-width="1"/><polygon points="430.16,154.54 416.39,166.29 408.42,175.31 397.78,180.72 385.29,182.9 371.04,180.52 358.77,170.43 366.56,154.4 356.82,137.7 371.37,128.88 384.26,121.55 399.51,120.62 416.44,123.62 422.46,139.72" fill="#a9c79c"/></g><g id="cd-vessany-the-vess-downs"><polygon points="536.56,364.44 528.5,390.8 500.91,398.47 484.12,409.74 462.55,413.63 441.39,405.05 434.96,383.14 429.21,364.44 420.23,338.66 442.16,324.8 462.21,313.78 485.55,312.88 513.26,314.93 526.05,339.27" fill="#d9cba6" stroke="#aea285" stroke-width="1"/><polygon points="528.57,364.18 521.47,386.98 496.39,391.86 482.81,401.85 464.62,405.9 446.46,398.86 442.11,379.55 437.2,364.1 427.59,341.78 447.53,330.73 464.43,321.46 484.07,320.75 508.35,321.24 518.8,342.65" fill="#d9cba6"/></g><g id="cd-vessany-vessany"><polygon points="637.78,54.67 647.62,104.65 657.98,154.53 667.64,204.57 674.22,255.11 660.79,311.75 654.54,369.62 643.48,426.68 628.67,482.89 0,482.89 0,54.67" fill="#d8d3c5" opacity="0.14"/></g><g id="cd-vessany-khar"><polygon points="637.78,54.67 647.62,104.65 657.98,154.53 667.64,204.57 674.22,255.11 660.79,311.75 654.54,369.62 643.48,426.68 628.67,482.89 820,482.89 820,54.67" fill="#d8d3c5" opacity="0.14"/></g><g id="cd-vessany-coast"><polyline points="191.33,0 183.34,32.05 173.41,63.56 155.34,91.2 136.67,118.44 155.06,154.78 168.36,193.27 174.74,233.4 182.22,273.33 158.72,288.55 138.21,307.61 125.97,332.8 109.33,355.33 122.24,384.62 128.17,416.07 138.99,446.1 154.89,473.78 147.66,491.85 140.8,510.06 137.2,529.46 127.56,546.67" fill="none" stroke="#8fa8b8" stroke-width="2" stroke-linejoin="round" stroke-linecap="round"/></g><g id="cd-vessany-the-serpents-spine"><polyline points="637.78,54.67 647.62,104.65 657.98,154.53 667.64,204.57 674.22,255.11 660.79,311.75 654.54,369.62 643.48,426.68 628.67,482.89" fill="none" stroke="#a99a85" stroke-width="14" opacity="0.5" stroke-linejoin="round" stroke-linecap="round"/><polyline points="637.78,54.67 647.62,104.65 657.98,154.53 667.64,204.57 674.22,255.11 660.79,311.75 654.54,369.62 643.48,426.68 628.67,482.89" fill="none" stroke="#8d8171" stroke-width="2.5" stroke-linejoin="round"/></g><g id="cd-vessany-the-vess"><polyline points="656,218.67 630.91,224.04 611.7,241.05 594.67,259.32 574,273.33 552.24,290.38 525.91,298.78 499.25,304.56 473.78,314.33 438.24,324.78 401.59,330.2 365.47,340.83 328,337.11 298.17,343.42 270.08,355.27 240.31,346.39 209.56,350.78 184.56,356.97 159.97,364.62 135.58,354.91 109.33,355.33" fill="none" stroke="#7fa8cf" stroke-width="2" stroke-linejoin="round" stroke-linecap="round"/></g><g id="cd-vessany-coast-road"><polyline points="141.07,432.44 138.87,434.67 132.17,416.07 126.24,384.62 124.55,380.79 126.41,378.2" fill="none" stroke="#c3a878" stroke-width="2" stroke-linejoin="round" stroke-linecap="round"/></g><g id="cd-vessany-kings-way"><polyline points="328,300.67 280.96,333.17 234.43,366.41 187.07,398.47 141.07,432.44" fill="none" stroke="#c3a878" stroke-width="2" stroke-linejoin="round" stroke-linecap="round"/></g><g><title>Redrawn at the Treaty of Argen; Khar disputes the southern third.</title><polyline points="637.78,54.67 647.62,104.65 657.98,154.53 667.64,204.57 674.22,255.11 660.79,311.75 654.54,369.62 643.48,426.68 628.67,482.89" fill="none" stroke="#a05a5a" stroke-width="2" stroke-dasharray="8 4" stroke-linejoin="round" stroke-linecap="round"/></g><g id="cd-vessany-gull-bay"><circle cx="109.33" cy="355.33" r="3" fill="#3d3629" stroke="#fff" stroke-width="1"/></g><g id="cd-vessany-highkeep"><rect x="322" y="294.67" width="12" height="12" fill="#3d3629" transform="rotate(45 328 300.67)"/></g><g id="cd-vessany-argenport"><circle cx="141.07" cy="432.44" r="5" fill="#3d3629" stroke="#fff" stroke-width="1"/></g><g id="cd-vessany-merrows-rest"><circle cx="126.41" cy="378.2" r="4" fill="#3d3629" stroke="#fff" stroke-width="1"/></g><g id="cd-vessany-dunmere"><circle cx="391.78" cy="195.89" r="4" fill="#3d3629" stroke="#fff" stroke-width="1"/></g><g id="cd-vessany-gull-landing"><circle cx="116.33" cy="355.33" r="3" fill="#3d3629" stroke="#fff" stroke-width="1"/></g><g id="cd-vessany-sparrowdown"><circle cx="364.44" cy="300.67" r="3" fill="#3d3629" stroke="#fff" stroke-width="1"/></g><text x="103.33" y="359.33" font-size="10" font-weight="normal" fill="#3d3629" text-anchor="end" font-family="sans-serif">Gull Bay</text><text x="678.22" y="251.11" font-size="10" fill="#3d3629" opacity="0.75" font-style="italic" font-family="sans-serif">The Serpent's Spine</text><text x="391.78" y="140.79" font-size="11" fill="#3d3629" opacity="0.8" text-anchor="middle" font-style="italic" font-family="sans-serif">Thornwood</text><text x="473.78" y="350.34" font-size="11" fill="#3d3629" opacity="0.8" text-anchor="middle" font-style="italic" font-family="sans-serif">The Vess Downs</text><text x="319" y="304.67" font-size="15" font-weight="bold" fill="#3d3629" text-anchor="end" font-family="sans-serif">Highkeep</text><text x="149.07" y="436.44" font-size="13" font-weight="bold" fill="#3d3629" text-anchor="start" font-family="sans-serif">Argenport</text><text x="133.41" y="382.2" font-size="11" font-weight="normal" fill="#3d3629" text-anchor="start" font-family="sans-serif">Merrow's Rest</text><text x="398.78" y="199.89" font-size="11" font-weight="normal" fill="#3d3629" text-anchor="start" font-family="sans-serif">Dunmere</text><text x="122.33" y="359.33" font-size="10" font-weight="normal" fill="#3d3629" text-anchor="start" font-family="sans-serif">Gull Landing</text><text x="370.44" y="304.67" font-size="10" font-weight="normal" fill="#3d3629" text-anchor="start" font-family="sans-serif">Sparrowdown</text><text x="405.59" y="326.2" font-size="10" fill="#3d3629" opacity="0.75" font-style="italic" font-family="sans-serif">The Vess</text><text x="130.24" y="406.62" font-size="10" fill="#3d3629" opacity="0.75" font-style="italic" font-family="sans-serif">Coast Road</text><text x="238.43" y="362.41" font-size="10" fill="#3d3629" opacity="0.75" font-style="italic" font-family="sans-serif">King's Way</text><text x="533.88" y="263.82" font-size="18" letter-spacing="6" fill="#3d3629" opacity="0.55" text-anchor="middle" font-family="sans-serif">VESSANY</text><text x="682.97" y="285.62" font-size="18" letter-spacing="6" fill="#3d3629" opacity="0.55" text-anchor="middle" font-family="sans-serif">KHAR</text><text x="82" y="296.11" font-size="16" letter-spacing="8" fill="#5a7a96" opacity="0.85" text-anchor="middle" font-family="sans-serif" transform="rotate(90 82 296.11)">THE ARGEN SEA</text><text x="14" y="22" font-size="16" font-weight="bold" fill="#3d3629" font-family="sans-serif">Vessany</text><g><circle cx="786" cy="40" r="14" fill="none" stroke="#3d3629" stroke-width="1"/><polygon points="786,29 782,46 790,46" fill="#3d3629"/><text x="786" y="23" font-size="9" fill="#3d3629" text-anchor="middle" font-family="sans-serif">N</text></g><g><line x1="14" y1="530.67" x2="114.22" y2="530.67" stroke="#3d3629" stroke-width="2"/><line x1="14" y1="526.67" x2="14" y2="534.67" stroke="#3d3629" stroke-width="2"/><line x1="114.22" y1="526.67" x2="114.22" y2="534.67" stroke="#3d3629" stroke-width="2"/><text x="64.11" y="524.67" font-size="9" fill="#3d3629" text-anchor="middle" font-family="sans-serif">110mi</text></g></svg>