<svg xmlns="http://www.w3.org/2000/svg" viewBox="0 0 820 546.67" width="820" height="546.67" font-family="sans-serif"><rect x="0" y="0" width="820" height="546.67" fill="#f9f5ea"/><g id="cd-vessany-the-argen-sea"><polygon points="191.33,0 180.33,30.8 168.43,61.27 152.7,89.94 136.67,118.44 151.38,156.11 163.65,194.65 172.68,234.05 182.22,273.33 161.43,291.41 142.21,311.16 126.74,333.97 109.33,355.33 121.42,384.73 130.25,415.27 141.35,445.04 154.89,473.78 147.87,491.93 141.02,510.15 135.71,528.93 127.56,546.67 0,546.67 0,0" fill="#b9d3e6" opacity="1"/></g><g id="cd-vessany-thornwood"><polygon points="438.15,154.89 423.41,170.12 413.19,181.73 399.46,188.54 383.6,190.72 366.24,186.92 351.71,174.19 358.58,154.89 349.48,134.52 366.18,122.79 382.39,113.77 401.38,112.84 421.59,117.5 429.82,136.57" fill="#a9c79c" stroke="#879f7d" stroke-width="1"/></g><g id="cd-vessany-the-vess-downs"><polygon points="536.56,364.44 528.5,390.8 500.91,398.47 484.12,409.74 462.55,413.63 441.39,405.05 434.96,383.14 429.21,364.44 420.23,338.66 442.16,324.8 462.21,313.78 485.55,312.88 513.26,314.93 526.05,339.27" fill="#d9cba6" stroke="#aea285" stroke-width="1"/></g><g id="cd-vessany-vessany"><polygon points="637.78,54.67 647.27,104.71 657.04,154.7 666.43,204.77 674.22,255.11 661.76,311.87 653.07,369.32 641.85,426.32 628.67,482.89 0,482.89 0,54.67" fill="#d8d3c5" opacity="0.14"/></g><g id="cd-vessany-khar"><polygon points="637.78,54.67 647.27,104.71 657.04,154.7 666.43,204.77 674.22,255.11 661.76,311.87 653.07,369.32 641.85,426.32 628.67,482.89 820,482.89 820,54.67" fill="#d8d3c5" opacity="0.14"/></g><g id="cd-vessany-coast"><polyline points="191.33,0 180.33,30.8 168.43,61.27 152.7,89.94 136.67,118.44 151.38,156.11 163.65,194.65 172.68,234.05 182.22,273.33 161.43,291.41 142.21,311.16 126.74,333.97 109.33,355.33 121.42,384.73 130.25,415.27 141.35,445.04 154.89,473.78 147.87,491.93 141.02,510.15 135.71,528.93 127.56,546.67" fill="none" stroke="#8fa8b8" stroke-width="2" stroke-linejoin="round" stroke-linecap="round"/></g><g id="cd-vessany-the-serpents-spine"><polyline points="637.78,54.67 647.27,104.71 657.04,154.7 666.43,204.77 674.22,255.11 661.76,311.87 653.07,369.32 641.85,426.32 628.67,482.89" fill="none" stroke="#a99a85" stroke-width="14" opacity="0.5" stroke-linejoin="round" stroke-linecap="round"/><polyline points="637.78,54.67 647.27,104.71 657.04,154.7 666.43,204.77 674.22,255.11 661.76,311.87 653.07,369.32 641.85,426.32 628.67,482.89" fill="none" stroke="#8d8171" stroke-width="2.5" stroke-linejoin="round"/></g><g id="cd-vessany-the-vess"><polyline points="656,218.67 519.3,252.74 382.21,285.17 245.95,320.95 109.33,355.33" fill="none" stroke="#7fa8cf" stroke-width="2" stroke-linejoin="round" stroke-linecap="round"/></g><g id="cd-vessany-coast-road"><polyline points="121.42,384.73 130.25,415.27 141.35,445.04" fill="none" stroke="#c3a878" stroke-width="2" stroke-linejoin="round" stroke-linecap="round"/></g><g id="cd-vessany-kings-way"><polyline points="328,300.67 281.49,335.43 233.2,367.66 184.43,399.14 136.39,431.72" fill="none" stroke="#c3a878" stroke-width="2" stroke-linejoin="round" stroke-linecap="round"/></g><g><polyline points="637.78,54.67 647.27,104.71 657.04,154.7 666.43,204.77 674.22,255.11 661.76,311.87 653.07,369.32 641.85,426.32 628.67,482.89" fill="none" stroke="#a05a5a" stroke-width="2" stroke-dasharray="8 4" stroke-linejoin="round" stroke-linecap="round"/></g><g id="cd-vessany-gull-bay"><circle cx="109.33" cy="355.33" r="3" fill="#3d3629" stroke="#fff" stroke-width="1"/></g><g id="cd-vessany-highkeep"><rect x="322" y="294.67" width="12" height="12" fill="#3d3629" transform="rotate(45 328 300.67)"/></g><g id="cd-vessany-argenport"><circle cx="136.39" cy="431.72" r="5" fill="#3d3629" stroke="#fff" stroke-width="1"/></g><g id="cd-vessany-merrows-rest"><circle cx="117.68" cy="375.64" r="4" fill="#3d3629" stroke="#fff" stroke-width="1"/></g><g id="cd-vessany-dunmere"><circle cx="391.78" cy="195.89" r="4" fill="#3d3629" stroke="#fff" stroke-width="1"/></g><g id="cd-vessany-gull-landing"><circle cx="109.33" cy="365.33" r="3" fill="#3d3629" stroke="#fff" stroke-width="1"/></g><g id="cd-vessany-sparrowdown"><circle cx="364.44" cy="300.67" r="3" fill="#3d3629" stroke="#fff" stroke-width="1"/></g><text x="115.33" y="359.33" font-size="10" font-weight="normal" fill="#3d3629" font-family="sans-serif">Gull Bay</text><text x="678.22" y="251.11" font-size="10" fill="#3d3629" opacity="0.75" font-style="italic" font-family="sans-serif">The Serpent's Spine</text><text x="391.78" y="154.89" font-size="11" fill="#3d3629" opacity="0.8" text-anchor="middle" font-style="italic" font-family="sans-serif">Thornwood</text><text x="473.78" y="364.44" font-size="11" fill="#3d3629" opacity="0.8" text-anchor="middle" font-style="italic" font-family="sans-serif">The Vess Downs</text><text x="337" y="304.67" font-size="15" font-weight="bold" fill="#3d3629" font-family="sans-serif">Highkeep</text><text x="144.39" y="435.72" font-size="13" font-weight="bold" fill="#3d3629" font-family="sans-serif">Argenport</text><text x="124.68" y="379.64" font-size="11" font-weight="normal" fill="#3d3629" font-family="sans-serif">Merrow's Rest</text><text x="398.78" y="199.89" font-size="11" font-weight="normal" fill="#3d3629" font-family="sans-serif">Dunmere</text><text x="115.33" y="395.33" font-size="10" font-weight="normal" fill="#3d3629" font-family="sans-serif">Gull Landing</text><text x="370.44" y="317.67" font-size="10" font-weight="normal" fill="#3d3629" font-family="sans-serif">Sparrowdown</text><text x="386.21" y="281.17" font-size="10" fill="#3d3629" opacity="0.75" font-style="italic" font-family="sans-serif">The Vess</text><text x="134.25" y="411.27" font-size="10" fill="#3d3629" opacity="0.75" font-style="italic" font-family="sans-serif">Coast Road</text><text x="237.2" y="363.66" font-size="10" fill="#3d3629" opacity="0.75" font-style="italic" font-family="sans-serif">King's Way</text><text x="533.46" y="263.81" font-size="18" letter-spacing="6" fill="#3d3629" opacity="0.55" text-anchor="middle" font-family="sans-serif">VESSANY</text><text x="682.55" y="263.81" font-size="18" letter-spacing="6" fill="#3d3629" opacity="0.55" text-anchor="middle" font-family="sans-serif">KHAR</text><text x="82" y="296.11" font-size="16" letter-spacing="8" fill="#5a7a96" opacity="0.85" text-anchor="middle" font-family="sans-serif" transform="rotate(90 82 296.11)">THE ARGEN SEA</text><text x="14" y="22" font-size="16" font-weight="bold" fill="#3d3629" font-family="sans-serif">Vessany</text><g><circle cx="786" cy="40" r="14" fill="none" stroke="#3d3629" stroke-width="1"/><polygon points="786,29 782,46 790,46" fill="#3d3629"/><text x="786" y="23" font-size="9" fill="#3d3629" text-anchor="middle" font-family="sans-serif">N</text></g><g><line x1="14" y1="530.67" x2="114.22" y2="530.67" stroke="#3d3629" stroke-width="2"/><line x1="14" y1="526.67" x2="14" y2="534.67" stroke="#3d3629" stroke-width="2"/><line x1="114.22" y1="526.67" x2="114.22" y2="534.67" stroke="#3d3629" stroke-width="2"/><text x="64.11" y="524.67" font-size="9" fill="#3d3629" text-anchor="middle" font-family="sans-serif">110mi</text></g></svg>