<svg xmlns="http://www.w3.org/2000/svg" viewBox="0 0 413.34 396" width="413.34" height="396" font-family="sans-serif"><rect x="0" y="0" width="413.34" height="396" fill="#f9f5ea"/><g><polygon points="71.57,42 71.57,66 50.78,78 30,66 30,42 50.78,30" fill="#b9d3e6" stroke="#c9c2b0" stroke-width="1"/></g><g><polygon points="113.14,42 113.14,66 92.35,78 71.57,66 71.57,42 92.35,30" fill="#b9d3e6" stroke="#c9c2b0" stroke-width="1"/></g><g><polygon points="154.71,42 154.71,66 133.92,78 113.14,66 113.14,42 133.92,30" fill="#d9cba6" stroke="#c9c2b0" stroke-width="1"/></g><g><polygon points="196.28,42 196.28,66 175.49,78 154.71,66 154.71,42 175.49,30" fill="#d9cba6" stroke="#c9c2b0" stroke-width="1"/></g><g><polygon points="237.85,42 237.85,66 217.06,78 196.28,66 196.28,42 217.06,30" fill="#c3b8a5" stroke="#c9c2b0" stroke-width="1"/></g><g><polygon points="279.42,42 279.42,66 258.63,78 237.85,66 237.85,42 258.63,30" fill="#c3b8a5" stroke="#c9c2b0" stroke-width="1"/></g><g><polygon points="320.98,42 320.98,66 300.2,78 279.42,66 279.42,42 300.2,30" fill="#ded8ca" stroke="#c9c2b0" stroke-width="1"/></g><g><polygon points="362.55,42 362.55,66 341.77,78 320.98,66 320.98,42 341.77,30" fill="#ded8ca" stroke="#c9c2b0" stroke-width="1"/></g><g><polygon points="92.35,78 92.35,102 71.57,114 50.78,102 50.78,78 71.57,66" fill="#b9d3e6" stroke="#c9c2b0" stroke-width="1"/></g><g><polygon points="133.92,78 133.92,102 113.14,114 92.35,102 92.35,78 113.14,66" fill="#e9e3c6" stroke="#c9c2b0" stroke-width="1"/></g><g><polygon points="175.49,78 175.49,102 154.71,114 133.92,102 133.92,78 154.71,66" fill="#e9e3c6" stroke="#c9c2b0" stroke-width="1"/></g><g><polygon points="217.06,78 217.06,102 196.28,114 175.49,102 175.49,78 196.28,66" fill="#e9e3c6" stroke="#c9c2b0" stroke-width="1"/></g><g><polygon points="258.63,78 258.63,102 237.85,114 217.06,102 217.06,78 237.85,66" fill="#d9cba6" stroke="#c9c2b0" stroke-width="1"/></g><g><polygon points="300.2,78 300.2,102 279.42,114 258.63,102 258.63,78 279.42,66" fill="#c3b8a5" stroke="#c9c2b0" stroke-width="1"/></g><g><polygon points="341.77,78 341.77,102 320.98,114 300.2,102 300.2,78 320.98,66" fill="#c3b8a5" stroke="#c9c2b0" stroke-width="1"/></g><g><polygon points="383.34,78 383.34,102 362.55,114 341.77,102 341.77,78 362.55,66" fill="#ded8ca" stroke="#c9c2b0" stroke-width="1"/></g><g><polygon points="71.57,114 71.57,138 50.78,150 30,138 30,114 50.78,102" fill="#b9d3e6" stroke="#c9c2b0" stroke-width="1"/></g><g><polygon points="113.14,114 113.14,138 92.35,150 71.57,138 71.57,114 92.35,102" fill="#e9e3c6" stroke="#c9c2b0" stroke-width="1"/></g><g><polygon points="154.71,114 154.71,138 133.92,150 113.14,138 113.14,114 133.92,102" fill="#e9e3c6" stroke="#c9c2b0" stroke-width="1"/></g><g><polygon points="196.28,114 196.28,138 175.49,150 154.71,138 154.71,114 175.49,102" fill="#a9c79c" stroke="#c9c2b0" stroke-width="1"/></g><g><polygon points="237.85,114 237.85,138 217.06,150 196.28,138 196.28,114 217.06,102" fill="#a9c79c" stroke="#c9c2b0" stroke-width="1"/></g><g><polygon points="279.42,114 279.42,138 258.63,150 237.85,138 237.85,114 258.63,102" fill="#d9cba6" stroke="#c9c2b0" stroke-width="1"/></g><g><polygon points="320.98,114 320.98,138 300.2,150 279.42,138 279.42,114 300.2,102" fill="#ded8ca" stroke="#c9c2b0" stroke-width="1"/></g><g><polygon points="362.55,114 362.55,138 341.77,150 320.98,138 320.98,114 341.77,102" fill="#ded8ca" stroke="#c9c2b0" stroke-width="1"/></g><g><polygon points="92.35,150 92.35,174 71.57,186 50.78,174 50.78,150 71.57,138" fill="#b9d3e6" stroke="#c9c2b0" stroke-width="1"/></g><g><polygon points="133.92,150 133.92,174 113.14,186 92.35,174 92.35,150 113.14,138" fill="#c2d2c0" stroke="#c9c2b0" stroke-width="1"/></g><g><polygon points="175.49,150 175.49,174 154.71,186 133.92,174 133.92,150 154.71,138" fill="#a9c79c" stroke="#c9c2b0" stroke-width="1"/></g><g><polygon points="217.06,150 217.06,174 196.28,186 175.49,174 175.49,150 196.28,138" fill="#a9c79c" stroke="#c9c2b0" stroke-width="1"/></g><g><polygon points="258.63,150 258.63,174 237.85,186 217.06,174 217.06,150 237.85,138" fill="#a9c79c" stroke="#c9c2b0" stroke-width="1"/></g><g><polygon points="300.2,150 300.2,174 279.42,186 258.63,174 258.63,150 279.42,138" fill="#e9e3c6" stroke="#c9c2b0" stroke-width="1"/></g><g><polygon points="341.77,150 341.77,174 320.98,186 300.2,174 300.2,150 320.98,138" fill="#ded8ca" stroke="#c9c2b0" stroke-width="1"/></g><g><polygon points="383.34,150 383.34,174 362.55,186 341.77,174 341.77,150 362.55,138" fill="#ded8ca" stroke="#c9c2b0" stroke-width="1"/></g><g><polygon points="71.57,186 71.57,210 50.78,222 30,210 30,186 50.78,174" fill="#b9d3e6" stroke="#c9c2b0" stroke-width="1"/></g><g><polygon points="113.14,186 113.14,210 92.35,222 71.57,210 71.57,186 92.35,174" fill="#ded8ca" stroke="#c9c2b0" stroke-width="1"/></g><g><polygon points="154.71,186 154.71,210 133.92,222 113.14,210 113.14,186 133.92,174" fill="#ded8ca" stroke="#c9c2b0" stroke-width="1"/></g><g><polygon points="196.28,186 196.28,210 175.49,222 154.71,210 154.71,186 175.49,174" fill="#ded8ca" stroke="#c9c2b0" stroke-width="1"/></g><g><polygon points="237.85,186 237.85,210 217.06,222 196.28,210 196.28,186 217.06,174" fill="#ded8ca" stroke="#c9c2b0" stroke-width="1"/></g><g><polygon points="279.42,186 279.42,210 258.63,222 237.85,210 237.85,186 258.63,174" fill="#ded8ca" stroke="#c9c2b0" stroke-width="1"/></g><g><polygon points="320.98,186 320.98,210 300.2,222 279.42,210 279.42,186 300.2,174" fill="#ded8ca" stroke="#c9c2b0" stroke-width="1"/></g><g><polygon points="362.55,186 362.55,210 341.77,222 320.98,210 320.98,186 341.77,174" fill="#ded8ca" stroke="#c9c2b0" stroke-width="1"/></g><g><polygon points="92.35,222 92.35,246 71.57,258 50.78,246 50.78,222 71.57,210" fill="#b9d3e6" stroke="#c9c2b0" stroke-width="1"/></g><g><polygon points="133.92,222 133.92,246 113.14,258 92.35,246 92.35,222 113.14,210" fill="#ded8ca" stroke="#c9c2b0" stroke-width="1"/></g><g><polygon points="175.49,222 175.49,246 154.71,258 133.92,246 133.92,222 154.71,210" fill="#ded8ca" stroke="#c9c2b0" stroke-width="1"/></g><g><polygon points="217.06,222 217.06,246 196.28,258 175.49,246 175.49,222 196.28,210" fill="#ded8ca" stroke="#c9c2b0" stroke-width="1"/></g><g><polygon points="258.63,222 258.63,246 237.85,258 217.06,246 217.06,222 237.85,210" fill="#ded8ca" stroke="#c9c2b0" stroke-width="1"/></g><g><polygon points="300.2,222 300.2,246 279.42,258 258.63,246 258.63,222 279.42,210" fill="#ded8ca" stroke="#c9c2b0" stroke-width="1"/></g><g><polygon points="341.77,222 341.77,246 320.98,258 300.2,246 300.2,222 320.98,210" fill="#ded8ca" stroke="#c9c2b0" stroke-width="1"/></g><g><polygon points="383.34,222 383.34,246 362.55,258 341.77,246 341.77,222 362.55,210" fill="#ded8ca" stroke="#c9c2b0" stroke-width="1"/></g><g><polygon points="71.57,258 71.57,282 50.78,294 30,282 30,258 50.78,246" fill="#b9d3e6" stroke="#c9c2b0" stroke-width="1"/></g><g><polygon points="113.14,258 113.14,282 92.35,294 71.57,282 71.57,258 92.35,246" fill="#ded8ca" stroke="#c9c2b0" stroke-width="1"/></g><g><polygon points="154.71,258 154.71,282 133.92,294 113.14,282 113.14,258 133.92,246" fill="#ded8ca" stroke="#c9c2b0" stroke-width="1"/></g><g><polygon points="196.28,258 196.28,282 175.49,294 154.71,282 154.71,258 175.49,246" fill="#ded8ca" stroke="#c9c2b0" stroke-width="1"/></g><g><polygon points="237.85,258 237.85,282 217.06,294 196.28,282 196.28,258 217.06,246" fill="#ded8ca" stroke="#c9c2b0" stroke-width="1"/></g><g><polygon points="279.42,258 279.42,282 258.63,294 237.85,282 237.85,258 258.63,246" fill="#ded8ca" stroke="#c9c2b0" stroke-width="1"/></g><g><polygon points="320.98,258 320.98,282 300.2,294 279.42,282 279.42,258 300.2,246" fill="#ded8ca" stroke="#c9c2b0" stroke-width="1"/></g><g><polygon points="362.55,258 362.55,282 341.77,294 320.98,282 320.98,258 341.77,246" fill="#ded8ca" stroke="#c9c2b0" stroke-width="1"/></g><g><polygon points="92.35,294 92.35,318 71.57,330 50.78,318 50.78,294 71.57,282" fill="#b9d3e6" stroke="#c9c2b0" stroke-width="1"/></g><g><polygon points="133.92,294 133.92,318 113.14,330 92.35,318 92.35,294 113.14,282" fill="#ded8ca" stroke="#c9c2b0" stroke-width="1"/></g><g><polygon points="175.49,294 175.49,318 154.71,330 133.92,318 133.92,294 154.71,282" fill="#ded8ca" stroke="#c9c2b0" stroke-width="1"/></g><g><polygon points="217.06,294 217.06,318 196.28,330 175.49,318 175.49,294 196.28,282" fill="#ded8ca" stroke="#c9c2b0" stroke-width="1"/></g><g><polygon points="258.63,294 258.63,318 237.85,330 217.06,318 217.06,294 237.85,282" fill="#ded8ca" stroke="#c9c2b0" stroke-width="1"/></g><g><polygon points="300.2,294 300.2,318 279.42,330 258.63,318 258.63,294 279.42,282" fill="#ded8ca" stroke="#c9c2b0" stroke-width="1"/></g><g><polygon points="341.77,294 341.77,318 320.98,330 300.2,318 300.2,294 320.98,282" fill="#ded8ca" stroke="#c9c2b0" stroke-width="1"/></g><g><polygon points="383.34,294 383.34,318 362.55,330 341.77,318 341.77,294 362.55,282" fill="#ded8ca" stroke="#c9c2b0" stroke-width="1"/></g><g><polygon points="71.57,330 71.57,354 50.78,366 30,354 30,330 50.78,318" fill="#b9d3e6" stroke="#c9c2b0" stroke-width="1"/></g><g><polygon points="113.14,330 113.14,354 92.35,366 71.57,354 71.57,330 92.35,318" fill="#ded8ca" stroke="#c9c2b0" stroke-width="1"/></g><g><polygon points="154.71,330 154.71,354 133.92,366 113.14,354 113.14,330 133.92,318" fill="#ded8ca" stroke="#c9c2b0" stroke-width="1"/></g><g><polygon points="196.28,330 196.28,354 175.49,366 154.71,354 154.71,330 175.49,318" fill="#ded8ca" stroke="#c9c2b0" stroke-width="1"/></g><g><polygon points="237.85,330 237.85,354 217.06,366 196.28,354 196.28,330 217.06,318" fill="#ded8ca" stroke="#c9c2b0" stroke-width="1"/></g><g><polygon points="279.42,330 279.42,354 258.63,366 237.85,354 237.85,330 258.63,318" fill="#ded8ca" stroke="#c9c2b0" stroke-width="1"/></g><g><polygon points="320.98,330 320.98,354 300.2,366 279.42,354 279.42,330 300.2,318" fill="#ded8ca" stroke="#c9c2b0" stroke-width="1"/></g><g><polygon points="362.55,330 362.55,354 341.77,366 320.98,354 320.98,330 341.77,318" fill="#ded8ca" stroke="#c9c2b0" stroke-width="1"/></g><g id="cd-the-brenmark-old-trade-road"><polyline points="113.14,90 154.71,90 196.28,90 237.85,90 258.63,126 279.42,162" fill="none" stroke="#c3a878" stroke-width="3" stroke-dasharray="8 4" stroke-linejoin="round" stroke-linecap="round" opacity="0.85"/></g><g id="cd-the-brenmark-the-bren"><polyline points="258.63,54 237.85,90 175.49,126 154.71,162 113.14,162 71.57,162" fill="none" stroke="#7fa8cf" stroke-width="4" stroke-linejoin="round" stroke-linecap="round" opacity="0.85"/></g><g id="cd-the-brenmark-duchy-of-bren"><line x1="133.92" y1="102" x2="133.92" y2="78" stroke="#7a5aa0" stroke-width="2.5" opacity="0.75"/><line x1="133.92" y1="78" x2="154.71" y2="66" stroke="#7a5aa0" stroke-width="2.5" opacity="0.75"/><line x1="154.71" y1="66" x2="175.49" y2="78" stroke="#7a5aa0" stroke-width="2.5" opacity="0.75"/><line x1="133.92" y1="150" x2="113.14" y2="138" stroke="#7a5aa0" stroke-width="2.5" opacity="0.75"/><line x1="113.14" y1="138" x2="113.14" y2="114" stroke="#7a5aa0" stroke-width="2.5" opacity="0.75"/><line x1="113.14" y1="114" x2="133.92" y2="102" stroke="#7a5aa0" stroke-width="2.5" opacity="0.75"/><line x1="175.49" y1="174" x2="154.71" y2="186" stroke="#7a5aa0" stroke-width="2.5" opacity="0.75"/><line x1="154.71" y1="186" x2="133.92" y2="174" stroke="#7a5aa0" stroke-width="2.5" opacity="0.75"/><line x1="133.92" y1="174" x2="133.92" y2="150" stroke="#7a5aa0" stroke-width="2.5" opacity="0.75"/><line x1="175.49" y1="78" x2="196.28" y2="66" stroke="#7a5aa0" stroke-width="2.5" opacity="0.75"/><line x1="196.28" y1="66" x2="217.06" y2="78" stroke="#7a5aa0" stroke-width="2.5" opacity="0.75"/><line x1="217.06" y1="174" x2="196.28" y2="186" stroke="#7a5aa0" stroke-width="2.5" opacity="0.75"/><line x1="196.28" y1="186" x2="175.49" y2="174" stroke="#7a5aa0" stroke-width="2.5" opacity="0.75"/><line x1="217.06" y1="78" x2="237.85" y2="66" stroke="#7a5aa0" stroke-width="2.5" opacity="0.75"/><line x1="237.85" y1="66" x2="258.63" y2="78" stroke="#7a5aa0" stroke-width="2.5" opacity="0.75"/><line x1="258.63" y1="174" x2="237.85" y2="186" stroke="#7a5aa0" stroke-width="2.5" opacity="0.75"/><line x1="237.85" y1="186" x2="217.06" y2="174" stroke="#7a5aa0" stroke-width="2.5" opacity="0.75"/><line x1="300.2" y1="78" x2="300.2" y2="102" stroke="#7a5aa0" stroke-width="2.5" opacity="0.75"/><line x1="300.2" y1="102" x2="279.42" y2="114" stroke="#7a5aa0" stroke-width="2.5" opacity="0.75"/><line x1="258.63" y1="78" x2="279.42" y2="66" stroke="#7a5aa0" stroke-width="2.5" opacity="0.75"/><line x1="279.42" y1="66" x2="300.2" y2="78" stroke="#7a5aa0" stroke-width="2.5" opacity="0.75"/><line x1="279.42" y1="114" x2="279.42" y2="138" stroke="#7a5aa0" stroke-width="2.5" opacity="0.75"/><line x1="300.2" y1="150" x2="300.2" y2="174" stroke="#7a5aa0" stroke-width="2.5" opacity="0.75"/><line x1="300.2" y1="174" x2="279.42" y2="186" stroke="#7a5aa0" stroke-width="2.5" opacity="0.75"/><line x1="279.42" y1="186" x2="258.63" y2="174" stroke="#7a5aa0" stroke-width="2.5" opacity="0.75"/><line x1="279.42" y1="138" x2="300.2" y2="150" stroke="#7a5aa0" stroke-width="2.5" opacity="0.75"/></g><rect x="171.49" y="47" width="8" height="8" fill="none" stroke="#3d3629" stroke-width="1.2" stroke-dasharray="2 2"/><circle cx="113.14" cy="87" r="3" fill="#3d3629" stroke="#fff" stroke-width="0.8"/><circle cx="154.71" cy="87" r="4" fill="#3d3629" stroke="#fff" stroke-width="0.8"/><rect x="233.85" y="83" width="8" height="8" fill="#3d3629"/><text x="320.98" y="94" font-size="11" fill="#8a8272" text-anchor="middle" font-family="sans-serif">?</text><polygon points="213.06,127 221.06,127 217.06,118" fill="#3d3629"/><polygon points="192.28,163 200.28,163 196.28,154" fill="none" stroke="#3d3629" stroke-width="1.2"/><circle cx="279.42" cy="159" r="5" fill="#3d3629" stroke="#fff" stroke-width="0.8"/><text x="39.98" y="43.2" font-size="6" fill="#8a8272" opacity="0.75" text-anchor="middle" font-family="sans-serif">A1</text><text x="81.55" y="43.2" font-size="6" fill="#8a8272" opacity="0.75" text-anchor="middle" font-family="sans-serif">B1</text><text x="123.12" y="43.2" font-size="6" fill="#8a8272" opacity="0.75" text-anchor="middle" font-family="sans-serif">C1</text><g id="cd-the-brenmark-harrow-tor"><text x="175.49" y="68.88" font-size="7.5" fill="#3d3629" text-anchor="middle" font-family="sans-serif">Harrow Tor</text></g><text x="164.68" y="43.2" font-size="6" fill="#8a8272" opacity="0.75" text-anchor="middle" font-family="sans-serif">D1</text><text x="206.25" y="43.2" font-size="6" fill="#8a8272" opacity="0.75" text-anchor="middle" font-family="sans-serif">E1</text><text x="247.82" y="43.2" font-size="6" fill="#8a8272" opacity="0.75" text-anchor="middle" font-family="sans-serif">F1</text><text x="60.76" y="79.2" font-size="6" fill="#8a8272" opacity="0.75" text-anchor="middle" font-family="sans-serif">A2</text><g id="cd-the-brenmark-saltmere"><text x="113.14" y="104.88" font-size="7.5" fill="#3d3629" text-anchor="middle" font-family="sans-serif">Saltmere</text></g><text x="102.33" y="79.2" font-size="6" fill="#8a8272" opacity="0.75" text-anchor="middle" font-family="sans-serif">B2</text><g id="cd-the-brenmark-redford"><text x="154.71" y="104.88" font-size="7.5" fill="#3d3629" text-anchor="middle" font-family="sans-serif">Redford</text></g><text x="143.9" y="79.2" font-size="6" fill="#8a8272" opacity="0.75" text-anchor="middle" font-family="sans-serif">C2</text><text x="185.47" y="79.2" font-size="6" fill="#8a8272" opacity="0.75" text-anchor="middle" font-family="sans-serif">D2</text><g id="cd-the-brenmark-the-barrowdown"><text x="237.85" y="104.88" font-size="7.5" fill="#3d3629" text-anchor="middle" font-family="sans-serif">The Barrowdown</text></g><text x="227.04" y="79.2" font-size="6" fill="#8a8272" opacity="0.75" text-anchor="middle" font-family="sans-serif">E2</text><text x="268.61" y="79.2" font-size="6" fill="#8a8272" opacity="0.75" text-anchor="middle" font-family="sans-serif">F2</text><text x="310.18" y="79.2" font-size="6" fill="#8a8272" opacity="0.75" text-anchor="middle" font-family="sans-serif">G2</text><text x="39.98" y="115.2" font-size="6" fill="#8a8272" opacity="0.75" text-anchor="middle" font-family="sans-serif">A3</text><text x="81.55" y="115.2" font-size="6" fill="#8a8272" opacity="0.75" text-anchor="middle" font-family="sans-serif">B3</text><text x="123.12" y="115.2" font-size="6" fill="#8a8272" opacity="0.75" text-anchor="middle" font-family="sans-serif">C3</text><text x="164.68" y="115.2" font-size="6" fill="#8a8272" opacity="0.75" text-anchor="middle" font-family="sans-serif">D3</text><g id="cd-the-brenmark-thornhold"><text x="217.06" y="140.88" font-size="7.5" fill="#3d3629" text-anchor="middle" font-family="sans-serif">Thornhold</text></g><text x="206.25" y="115.2" font-size="6" fill="#8a8272" opacity="0.75" text-anchor="middle" font-family="sans-serif">E3</text><text x="247.82" y="115.2" font-size="6" fill="#8a8272" opacity="0.75" text-anchor="middle" font-family="sans-serif">F3</text><text x="60.76" y="151.2" font-size="6" fill="#8a8272" opacity="0.75" text-anchor="middle" font-family="sans-serif">A4</text><text x="102.33" y="151.2" font-size="6" fill="#8a8272" opacity="0.75" text-anchor="middle" font-family="sans-serif">B4</text><text x="143.9" y="151.2" font-size="6" fill="#8a8272" opacity="0.75" text-anchor="middle" font-family="sans-serif">C4</text><text x="185.47" y="151.2" font-size="6" fill="#8a8272" opacity="0.75" text-anchor="middle" font-family="sans-serif">D4</text><text x="227.04" y="151.2" font-size="6" fill="#8a8272" opacity="0.75" text-anchor="middle" font-family="sans-serif">E4</text><g id="cd-the-brenmark-bren"><text x="279.42" y="176.88" font-size="7.5" fill="#3d3629" text-anchor="middle" font-family="sans-serif">Bren</text></g><text x="268.61" y="151.2" font-size="6" fill="#8a8272" opacity="0.75" text-anchor="middle" font-family="sans-serif">F4</text><text x="39.98" y="187.2" font-size="6" fill="#8a8272" opacity="0.75" text-anchor="middle" font-family="sans-serif">A5</text><text x="60.76" y="223.2" font-size="6" fill="#8a8272" opacity="0.75" text-anchor="middle" font-family="sans-serif">A6</text><text x="39.98" y="259.2" font-size="6" fill="#8a8272" opacity="0.75" text-anchor="middle" font-family="sans-serif">A7</text><text x="60.76" y="295.2" font-size="6" fill="#8a8272" opacity="0.75" text-anchor="middle" font-family="sans-serif">A8</text><text x="39.98" y="331.2" font-size="6" fill="#8a8272" opacity="0.75" text-anchor="middle" font-family="sans-serif">A9</text><text x="113.14" y="68.4" font-size="8" fill="#3d3629" opacity="0.8" font-style="italic" text-anchor="middle" font-family="sans-serif">Old Trade Road</text><text x="258.63" y="32.4" font-size="8" fill="#3d3629" opacity="0.8" font-style="italic" text-anchor="middle" font-family="sans-serif">The Bren</text><text x="210.13" y="99.9" font-size="11" letter-spacing="3" fill="#7a5aa0" opacity="0.85" text-anchor="middle" font-family="sans-serif">DUCHY OF BREN</text><text x="14" y="22" font-size="16" font-weight="bold" fill="#3d3629" font-family="sans-serif">The Brenmark</text></svg>