<svg xmlns="http://www.w3.org/2000/svg" viewBox="0 0 432 496" width="432" height="496" font-family="sans-serif"><rect x="0" y="0" width="432" height="368" fill="#f9f5ea"/><g transform="translate(0 0)"><defs><pattern id="hatch" width="6" height="6" patternUnits="userSpaceOnUse"><path d="M0,6 L6,0" stroke="#7a7264" stroke-width="1" opacity="0.5"/></pattern></defs><line x1="24" y1="24" x2="24" y2="344" stroke="#c9c2b0" stroke-width="0.6"/><line x1="56" y1="24" x2="56" y2="344" stroke="#c9c2b0" stroke-width="0.6"/><line x1="88" y1="24" x2="88" y2="344" stroke="#c9c2b0" stroke-width="0.6"/><line x1="120" y1="24" x2="120" y2="344" stroke="#c9c2b0" stroke-width="0.6"/><line x1="152" y1="24" x2="152" y2="344" stroke="#c9c2b0" stroke-width="0.6"/><line x1="184" y1="24" x2="184" y2="344" stroke="#c9c2b0" stroke-width="0.6"/><line x1="216" y1="24" x2="216" y2="344" stroke="#c9c2b0" stroke-width="0.6"/><line x1="248" y1="24" x2="248" y2="344" stroke="#c9c2b0" stroke-width="0.6"/><line x1="280" y1="24" x2="280" y2="344" stroke="#c9c2b0" stroke-width="0.6"/><line x1="312" y1="24" x2="312" y2="344" stroke="#c9c2b0" stroke-width="0.6"/><line x1="344" y1="24" x2="344" y2="344" stroke="#c9c2b0" stroke-width="0.6"/><line x1="376" y1="24" x2="376" y2="344" stroke="#c9c2b0" stroke-width="0.6"/><line x1="408" y1="24" x2="408" y2="344" stroke="#c9c2b0" stroke-width="0.6"/><line x1="24" y1="24" x2="408" y2="24" stroke="#c9c2b0" stroke-width="0.6"/><line x1="24" y1="56" x2="408" y2="56" stroke="#c9c2b0" stroke-width="0.6"/><line x1="24" y1="88" x2="408" y2="88" stroke="#c9c2b0" stroke-width="0.6"/><line x1="24" y1="120" x2="408" y2="120" stroke="#c9c2b0" stroke-width="0.6"/><line x1="24" y1="152" x2="408" y2="152" stroke="#c9c2b0" stroke-width="0.6"/><line x1="24" y1="184" x2="408" y2="184" stroke="#c9c2b0" stroke-width="0.6"/><line x1="24" y1="216" x2="408" y2="216" stroke="#c9c2b0" stroke-width="0.6"/><line x1="24" y1="248" x2="408" y2="248" stroke="#c9c2b0" stroke-width="0.6"/><line x1="24" y1="280" x2="408" y2="280" stroke="#c9c2b0" stroke-width="0.6"/><line x1="24" y1="312" x2="408" y2="312" stroke="#c9c2b0" stroke-width="0.6"/><line x1="24" y1="344" x2="408" y2="344" stroke="#c9c2b0" stroke-width="0.6"/><g id="cd-the-gilded-tankard-inn"><rect x="56" y="56" width="224" height="224" fill="#efe9da" opacity="0.8"/><line x1="56" y1="56" x2="280" y2="56" stroke="#3d3629" stroke-width="3" opacity="1"/><line x1="56" y1="280" x2="280" y2="280" stroke="#3d3629" stroke-width="3" opacity="1"/><line x1="56" y1="56" x2="56" y2="280" stroke="#3d3629" stroke-width="3" opacity="1"/><line x1="280" y1="56" x2="280" y2="280" stroke="#3d3629" stroke-width="3" opacity="1"/></g><g id="cd-the-gilded-tankard-snug"><rect x="184" y="56" width="96" height="96" fill="#efe9da" opacity="0.8"/><line x1="184" y1="56" x2="280" y2="56" stroke="#3d3629" stroke-width="3" opacity="1"/><line x1="184" y1="152" x2="280" y2="152" stroke="#3d3629" stroke-width="3" opacity="1"/><line x1="184" y1="56" x2="184" y2="152" stroke="#3d3629" stroke-width="3" opacity="1"/><line x1="280" y1="56" x2="280" y2="152" stroke="#3d3629" stroke-width="3" opacity="1"/></g><g id="cd-the-gilded-tankard-bar"><line x1="120" y1="184" x2="152" y2="184" stroke="#3d3629" stroke-width="3" opacity="1" stroke-linecap="square"/><line x1="152" y1="184" x2="184" y2="184" stroke="#3d3629" stroke-width="3" opacity="1" stroke-linecap="square"/></g><line x1="152" y1="280" x2="184" y2="280" stroke="#a8763e" stroke-width="5"/><line x1="56" y1="120" x2="56" y2="152" stroke="#6fa8c9" stroke-width="2.5"/><text x="168" y="171.5" font-size="10" fill="#3d3629" font-weight="bold" opacity="0.8" text-anchor="middle" font-family="sans-serif">1</text><text x="232" y="107.5" font-size="10" fill="#3d3629" font-weight="bold" opacity="0.8" text-anchor="middle" font-family="sans-serif">5</text><text x="168" y="260" font-size="9" fill="#4a9a6a" text-anchor="middle" font-family="sans-serif">start</text><g id="cd-the-gilded-tankard-start"><rect x="120" y="248" width="96" height="32" fill="#4a9a6a" opacity="0.12"/><rect x="120" y="248" width="96" height="32" fill="none" stroke="#4a9a6a" stroke-width="1.5" stroke-dasharray="6 4"/></g><g><title>hearth</title><polygon points="184,72 184,74.23 184,76.48 184,78.73 184,80.99 184,83.28 184,85.6 184,87.96 184,90.35 184,92.79 184,95.29 184,97.86 184,100.49 184,103.21 184,106.03 184,108.95 184,111.99 184,115.17 184,118.5 184,122 184,125.7 184,129.63 184,133.8 184,138.27 184,143.08 184,148.27 198.8,172.87 195.24,175.55 191.58,178.12 187.83,180.55 184,182.85 179.55,184 174.63,184 169.87,184 165.25,184 160.76,184 156.39,184 152.12,184 147.92,184 143.81,184 139.75,184 135.74,184 131.77,184 127.83,184 123.91,184 120,184 115.53,199.92 111.07,199.69 106.62,199.3 102.19,198.75 97.77,198.06 93.39,197.2 89.03,196.2 84.72,195.04 80.45,193.74 76.22,192.28 72.05,190.68 67.94,188.93 63.89,187.05 59.91,185.02 56,182.85 56,174.42 56,166.88 56,160.09 56,153.92 37.72,170.05 34.35,167.12 31.08,164.08 27.92,160.92 24.88,157.65 21.95,154.28 19.13,150.8 56,118.5 56,115.17 56,111.99 56,108.95 56,106.03 56,103.21 56,100.49 56,97.86 56,95.29 56,92.79 56,90.35 56,87.96 56,85.6 56,83.28 56,80.99 56,78.73 56,76.48 56,74.23 56,72 56,69.77 56,67.52 56,65.27 56,63.01 56,60.72 56,58.4 56,56.04 64.2,56 70.76,56 76.04,56 80.4,56 84.06,56 87.2,56 89.91,56 92.29,56 94.39,56 96.28,56 97.98,56 99.52,56 100.93,56 102.23,56 103.43,56 104.55,56 105.59,56 106.57,56 107.5,56 108.38,56 109.21,56 110,56 110.76,56 111.49,56 112.2,56 112.88,56 113.54,56 114.18,56 114.8,56 115.41,56 116.01,56 116.6,56 117.18,56 117.75,56 118.32,56 118.88,56 119.44,56 120,56 120.56,56 121.12,56 121.68,56 122.25,56 122.82,56 123.4,56 123.99,56 124.59,56 125.2,56 125.82,56 126.46,56 127.12,56 127.8,56 128.51,56 129.24,56 130,56 130.79,56 131.62,56 132.5,56 133.43,56 134.41,56 135.45,56 136.57,56 137.77,56 139.07,56 140.48,56 142.02,56 143.72,56 145.61,56 147.71,56 150.09,56 152.8,56 155.94,56 159.6,56 163.96,56 169.24,56 175.8,56 184,56.04 184,58.4 184,60.72 184,63.01 184,65.27 184,67.52 184,69.77" fill="#ffd98a" opacity="0.22"/><rect x="91" y="59" width="58" height="26" fill="#8f8474" stroke="#3d3629" stroke-width="1.2" rx="2"/><circle cx="120" cy="73.2" r="4.8" fill="#d9822b" stroke="#a8541e" stroke-width="1.5"/><path d="M117.6 69.6 Q119.2 64.8 120.8 68 Q122 65.6 122.8 69.2" fill="none" stroke="#a8541e" stroke-width="1.5" stroke-linecap="round"/></g><g id="cd-the-gilded-tankard-cellar-stairs"><g transform="rotate(90 232 200)"><line x1="228" y1="194" x2="236" y2="194" stroke="#3d3629" stroke-width="2.2"/><line x1="225" y1="200" x2="239" y2="200" stroke="#3d3629" stroke-width="2.2"/><line x1="222" y1="206" x2="242" y2="206" stroke="#3d3629" stroke-width="2.2"/><path d="M229 191 L232 187 L235 191" fill="none" stroke="#3d3629" stroke-width="1.8" stroke-linecap="round" stroke-linejoin="round"/></g></g><g id="cd-the-gilded-tankard-longtable"><rect x="91" y="155" width="58" height="26" fill="#8f8474" stroke="#3d3629" stroke-width="1.2" rx="2"/></g><g><title>barrel</title><rect x="98" y="226" width="12" height="12" fill="#8f8474" stroke="#3d3629" stroke-width="1"/></g><g id="cd-the-gilded-tankard-old-marta"><circle cx="200" cy="200" r="12.16" fill="#8a6ab5" opacity="0.9" stroke="#3d3629" stroke-width="1.5"/></g><text x="120" y="178" font-size="8" fill="#3d3629" font-weight="bold" text-anchor="middle" font-family="sans-serif">2</text><text x="232" y="220" font-size="8" fill="#3d3629" font-weight="bold" text-anchor="middle" font-family="sans-serif">3</text><text x="120" y="194" font-size="8" fill="#3d3629" font-weight="bold" text-anchor="middle" font-family="sans-serif">4</text><text x="200" y="222.16" font-size="9" fill="#3d3629" text-anchor="middle" font-family="sans-serif">6</text></g><g transform="translate(0 368)"><rect x="0" y="0" width="432" height="128" fill="#f9f5ea"/><line x1="10" y1="0.5" x2="422" y2="0.5" stroke="#c9c2b0" stroke-width="1"/><text x="22" y="22.5" font-size="9" font-weight="bold" fill="#3d3629" text-anchor="end" font-family="sans-serif">1.</text><text x="28" y="22.5" font-size="9" fill="#3d3629" font-family="sans-serif">The Gilded Tankard</text><text x="22" y="40.5" font-size="9" font-weight="bold" fill="#3d3629" text-anchor="end" font-family="sans-serif">2.</text><text x="28" y="40.5" font-size="9" fill="#3d3629" font-family="sans-serif">The Bar</text><text x="22" y="58.5" font-size="9" font-weight="bold" fill="#3d3629" text-anchor="end" font-family="sans-serif">3.</text><text x="28" y="58.5" font-size="9" fill="#3d3629" font-family="sans-serif">Cellar Stairs</text><text x="172" y="22.5" font-size="9" font-weight="bold" fill="#3d3629" text-anchor="end" font-family="sans-serif">4.</text><text x="178" y="22.5" font-size="9" fill="#3d3629" font-family="sans-serif">The Long Table</text><text x="172" y="40.5" font-size="9" font-weight="bold" fill="#3d3629" text-anchor="end" font-family="sans-serif">5.</text><text x="178" y="40.5" font-size="9" fill="#3d3629" font-family="sans-serif">The Snug</text><text x="172" y="58.5" font-size="9" font-weight="bold" fill="#3d3629" text-anchor="end" font-family="sans-serif">6.</text><text x="178" y="58.5" font-size="9" fill="#3d3629" font-family="sans-serif">Old Marta</text><line x1="10" y1="73" x2="24" y2="73" stroke="#3d3629" stroke-width="3" stroke-linecap="square"/><text x="30" y="76.5" font-size="9" fill="#3d3629" font-family="sans-serif">wall</text><circle cx="17" cy="91" r="4" fill="#d9822b" stroke="#a8541e" stroke-width="1"/><text x="30" y="94.5" font-size="9" fill="#3d3629" font-family="sans-serif">hearth</text><line x1="12" y1="106" x2="22" y2="106" stroke="#3d3629" stroke-width="1.4"/><line x1="13.5" y1="109" x2="20.5" y2="109" stroke="#3d3629" stroke-width="1.4"/><line x1="15" y1="112" x2="19" y2="112" stroke="#3d3629" stroke-width="1.4"/><text x="30" y="112.5" font-size="9" fill="#3d3629" font-family="sans-serif">stairs</text><rect x="162" y="68" width="10" height="10" fill="#8f8474" stroke="#3d3629" stroke-width="1"/><text x="180" y="76.5" font-size="9" fill="#3d3629" font-family="sans-serif">table</text><rect x="162" y="86" width="10" height="10" fill="#8f8474" stroke="#3d3629" stroke-width="1"/><text x="180" y="94.5" font-size="9" fill="#3d3629" font-family="sans-serif">barrel</text></g><text x="14" y="22" font-size="16" font-weight="bold" fill="#3d3629" font-family="sans-serif">The Gilded Tankard</text></svg>