<svg xmlns="http://www.w3.org/2000/svg" viewBox="0 0 688 528" width="688" height="528" font-family="sans-serif"><rect x="0" y="0" width="688" height="528" fill="#f9f5ea"/><defs><pattern id="hatch" width="6" height="6" patternUnits="userSpaceOnUse"><path d="M0,6 L6,0" stroke="#7a7264" stroke-width="1" opacity="0.5"/></pattern></defs><g><rect x="24" y="344" width="192" height="160" fill="#a9c79c"/></g><g id="cd-ambush-at-redford-crossing-the-redford"><polyline points="24,296 200,296 360,296 520,328 664,328" fill="none" stroke="#b9d3e6" stroke-width="54.4" stroke-linecap="butt" stroke-linejoin="round"/></g><g><rect x="344" y="280" width="64" height="64" fill="#cfd4b8" opacity="0.85"/><rect x="344" y="280" width="64" height="64" fill="url(#hatch)"/></g><g><rect x="248" y="344" width="96" height="32" fill="#c8b294"/><rect x="248" y="344" width="96" height="32" fill="url(#hatch)"/></g><g id="cd-ambush-at-redford-crossing-old-toll-road"><polyline points="360,24 360,504" fill="none" stroke="#c3a878" stroke-width="27.2" stroke-linecap="butt" stroke-linejoin="round"/></g><line x1="24" y1="24" x2="24" y2="504" stroke="#c9c2b0" stroke-width="0.6"/><line x1="56" y1="24" x2="56" y2="504" stroke="#c9c2b0" stroke-width="0.6"/><line x1="88" y1="24" x2="88" y2="504" stroke="#c9c2b0" stroke-width="0.6"/><line x1="120" y1="24" x2="120" y2="504" stroke="#c9c2b0" stroke-width="0.6"/><line x1="152" y1="24" x2="152" y2="504" stroke="#c9c2b0" stroke-width="0.6"/><line x1="184" y1="24" x2="184" y2="504" stroke="#c9c2b0" stroke-width="0.6"/><line x1="216" y1="24" x2="216" y2="504" stroke="#c9c2b0" stroke-width="0.6"/><line x1="248" y1="24" x2="248" y2="504" stroke="#c9c2b0" stroke-width="0.6"/><line x1="280" y1="24" x2="280" y2="504" stroke="#c9c2b0" stroke-width="0.6"/><line x1="312" y1="24" x2="312" y2="504" stroke="#c9c2b0" stroke-width="0.6"/><line x1="344" y1="24" x2="344" y2="504" stroke="#c9c2b0" stroke-width="0.6"/><line x1="376" y1="24" x2="376" y2="504" stroke="#c9c2b0" stroke-width="0.6"/><line x1="408" y1="24" x2="408" y2="504" stroke="#c9c2b0" stroke-width="0.6"/><line x1="440" y1="24" x2="440" y2="504" stroke="#c9c2b0" stroke-width="0.6"/><line x1="472" y1="24" x2="472" y2="504" stroke="#c9c2b0" stroke-width="0.6"/><line x1="504" y1="24" x2="504" y2="504" stroke="#c9c2b0" stroke-width="0.6"/><line x1="536" y1="24" x2="536" y2="504" stroke="#c9c2b0" stroke-width="0.6"/><line x1="568" y1="24" x2="568" y2="504" stroke="#c9c2b0" stroke-width="0.6"/><line x1="600" y1="24" x2="600" y2="504" stroke="#c9c2b0" stroke-width="0.6"/><line x1="632" y1="24" x2="632" y2="504" stroke="#c9c2b0" stroke-width="0.6"/><line x1="664" y1="24" x2="664" y2="504" stroke="#c9c2b0" stroke-width="0.6"/><line x1="24" y1="24" x2="664" y2="24" stroke="#c9c2b0" stroke-width="0.6"/><line x1="24" y1="56" x2="664" y2="56" stroke="#c9c2b0" stroke-width="0.6"/><line x1="24" y1="88" x2="664" y2="88" stroke="#c9c2b0" stroke-width="0.6"/><line x1="24" y1="120" x2="664" y2="120" stroke="#c9c2b0" stroke-width="0.6"/><line x1="24" y1="152" x2="664" y2="152" stroke="#c9c2b0" stroke-width="0.6"/><line x1="24" y1="184" x2="664" y2="184" stroke="#c9c2b0" stroke-width="0.6"/><line x1="24" y1="216" x2="664" y2="216" stroke="#c9c2b0" stroke-width="0.6"/><line x1="24" y1="248" x2="664" y2="248" stroke="#c9c2b0" stroke-width="0.6"/><line x1="24" y1="280" x2="664" y2="280" stroke="#c9c2b0" stroke-width="0.6"/><line x1="24" y1="312" x2="664" y2="312" stroke="#c9c2b0" stroke-width="0.6"/><line x1="24" y1="344" x2="664" y2="344" stroke="#c9c2b0" stroke-width="0.6"/><line x1="24" y1="376" x2="664" y2="376" stroke="#c9c2b0" stroke-width="0.6"/><line x1="24" y1="408" x2="664" y2="408" stroke="#c9c2b0" stroke-width="0.6"/><line x1="24" y1="440" x2="664" y2="440" stroke="#c9c2b0" stroke-width="0.6"/><line x1="24" y1="472" x2="664" y2="472" stroke="#c9c2b0" stroke-width="0.6"/><line x1="24" y1="504" x2="664" y2="504" stroke="#c9c2b0" stroke-width="0.6"/><g id="cd-ambush-at-redford-crossing-tollhouse"><rect x="440" y="88" width="128" height="128" fill="#efe9da" opacity="0.8"/><line x1="440" y1="88" x2="568" y2="88" stroke="#3d3629" stroke-width="3" stroke-dasharray="5 6" opacity="0.7"/><line x1="440" y1="216" x2="568" y2="216" stroke="#3d3629" stroke-width="3" opacity="1"/><line x1="440" y1="88" x2="440" y2="216" stroke="#3d3629" stroke-width="3" opacity="1"/><line x1="568" y1="88" x2="568" y2="216" stroke="#3d3629" stroke-width="3" stroke-dasharray="5 6" opacity="0.7"/><line x1="472" y1="216" x2="504" y2="216" stroke="#a8763e" stroke-width="5"/><line x1="440" y1="120" x2="440" y2="152" stroke="#6fa8c9" stroke-width="2.5"/></g><g id="cd-ambush-at-redford-crossing-start"><rect x="312" y="440" width="96" height="64" fill="#4a9a6a" opacity="0.12"/><rect x="312" y="440" width="96" height="64" fill="none" stroke="#4a9a6a" stroke-width="1.5" stroke-dasharray="6 4"/></g><g><rect x="345.6" y="351.04" width="28.8" height="17.92" fill="#a8763e" stroke="#3d3629" stroke-width="1.5" stroke-dasharray="4 3" transform="rotate(90 360 360)"/></g><g><polygon points="616,232 615.92,236.47 615.69,240.93 615.3,245.38 614.75,249.81 614.06,254.23 613.2,258.61 612.2,262.97 611.04,267.28 609.74,271.55 608.28,275.78 606.68,279.95 604.93,284.06 603.05,288.11 601.02,292.09 598.85,296 596.55,299.83 594.12,303.58 591.55,307.24 588.87,310.8 586.05,314.28 583.12,317.65 580.08,320.92 576.92,324.08 573.65,327.12 570.28,330.05 566.8,332.87 563.24,335.55 559.58,338.12 555.83,340.55 552,342.85 548.09,345.02 544.11,347.05 540.06,348.93 535.95,350.68 531.78,352.28 527.55,353.74 523.28,355.04 518.97,356.2 514.61,357.2 510.23,358.06 505.81,358.75 501.38,359.3 496.93,359.69 492.47,359.92 488,360 483.53,359.92 479.07,359.69 474.62,359.3 470.19,358.75 465.77,358.06 461.39,357.2 457.03,356.2 452.72,355.04 448.45,353.74 444.22,352.28 440.05,350.68 435.94,348.93 431.89,347.05 427.91,345.02 424,342.85 420.17,340.55 416.42,338.12 412.76,335.55 409.2,332.87 405.72,330.05 402.35,327.12 399.08,324.08 395.92,320.92 392.88,317.65 389.95,314.28 387.13,310.8 384.45,307.24 381.88,303.58 379.45,299.83 377.15,296 374.98,292.09 372.95,288.11 371.07,284.06 369.32,279.95 367.72,275.78 366.26,271.55 364.96,267.28 363.8,262.97 362.8,258.61 361.94,254.23 361.25,249.81 360.7,245.38 360.31,240.93 360.08,236.47 360,232 360.08,227.53 360.31,223.07 360.7,218.62 361.25,214.19 361.94,209.77 362.8,205.39 363.8,201.03 364.96,196.72 366.26,192.45 444.04,216 448.4,216 452.06,216 455.2,216 457.91,216 460.29,216 462.39,216 464.28,216 465.98,216 467.52,216 468.93,216 470.23,216 471.43,216 472.55,216 473.59,216 474.57,216 475.5,216 476.38,216 477.21,216 478,216 478.76,216 479.49,216 480.2,216 480.88,216 481.54,216 482.18,216 482.8,216 483.41,216 484.01,216 484.6,216 485.18,216 485.75,216 486.32,216 486.88,216 487.44,216 488,216 488.56,216 489.12,216 489.68,216 490.25,216 490.82,216 491.4,216 491.99,216 492.59,216 493.2,216 493.82,216 494.46,216 495.12,216 495.8,216 496.51,216 497.24,216 498,216 498.79,216 499.62,216 500.5,216 501.43,216 502.41,216 503.45,216 504.57,216 505.77,216 507.07,216 508.48,216 510.02,216 511.72,216 513.61,216 515.71,216 518.09,216 520.8,216 523.94,216 527.6,216 531.96,216 537.24,216 543.8,216 552.17,216 563.27,216 614.06,209.77 614.75,214.19 615.3,218.62 615.69,223.07 615.92,227.53" fill="#ffd98a" opacity="0.22"/><circle cx="488" cy="232" r="5" fill="#d9822b" stroke="#a8541e" stroke-width="1.5"/></g><g id="cd-ambush-at-redford-crossing-loot"><rect x="514" y="130" width="12" height="12" fill="#8f8474" stroke="#3d3629" stroke-width="1"/></g><g id="cd-ambush-at-redford-crossing-g1"><circle cx="104" cy="392" r="12.16" fill="#8a6ab5" opacity="0.9" stroke="#3d3629" stroke-width="1.5"/></g><g><circle cx="168" cy="424" r="12.16" fill="#8a6ab5" opacity="0.9" stroke="#3d3629" stroke-width="1.5"/></g><g id="cd-ambush-at-redford-crossing-a1"><circle cx="488" cy="136" r="12.16" fill="#8a6ab5" opacity="0.9" stroke="#3d3629" stroke-width="1.5"/></g><g><circle cx="520" cy="168" r="12.16" fill="#8a6ab5" opacity="0.9" stroke="#3d3629" stroke-width="1.5"/></g><text x="504" y="83" font-size="10" fill="#3d3629" text-anchor="middle" font-family="sans-serif">Ruined Toll House</text><text x="104" y="414.16" font-size="9" fill="#3d3629" text-anchor="middle" font-family="sans-serif">g1</text><text x="168" y="446.16" font-size="9" fill="#3d3629" text-anchor="middle" font-family="sans-serif">g2</text><text x="488" y="158.16" font-size="9" fill="#3d3629" text-anchor="middle" font-family="sans-serif">a1</text><text x="520" y="190.16" font-size="9" fill="#3d3629" text-anchor="middle" font-family="sans-serif">a2</text><text x="360" y="452" font-size="9" fill="#4a9a6a" text-anchor="middle" font-family="sans-serif">start</text><text x="14" y="22" font-size="16" font-weight="bold" fill="#3d3629" font-family="sans-serif">Ambush at Redford Crossing</text></svg>