<svg xmlns="http://www.w3.org/2000/svg" viewBox="0 0 688 528" width="688" height="528" font-family="sans-serif"><rect x="0" y="0" width="688" height="528" fill="#f9f5ea"/><defs><pattern id="hatch" width="6" height="6" patternUnits="userSpaceOnUse"><path d="M0,6 L6,0" stroke="#7a7264" stroke-width="1" opacity="0.5"/></pattern></defs><g><rect x="24" y="344" width="192" height="160" fill="#a9c79c"/></g><g id="cd-ambush-at-redford-crossing-the-redford"><polyline points="40,296 200,296 360,296 520,328 648,328" fill="none" stroke="#b9d3e6" stroke-width="54.4" stroke-linecap="round" stroke-linejoin="round"/></g><g><rect x="344" y="280" width="64" height="64" fill="#d8d3c5" opacity="0.85"/><rect x="344" y="280" width="64" height="64" fill="url(#hatch)"/></g><g><rect x="248" y="344" width="96" height="32" fill="#c8b294"/><rect x="248" y="344" width="96" height="32" fill="url(#hatch)"/></g><g id="cd-ambush-at-redford-crossing-old-toll-road"><polyline points="360,40 360,488" fill="none" stroke="#c3a878" stroke-width="27.2" stroke-linecap="round" stroke-linejoin="round"/></g><line x1="24" y1="24" x2="24" y2="504" stroke="#c9c2b0" stroke-width="0.6"/><line x1="56" y1="24" x2="56" y2="504" stroke="#c9c2b0" stroke-width="0.6"/><line x1="88" y1="24" x2="88" y2="504" stroke="#c9c2b0" stroke-width="0.6"/><line x1="120" y1="24" x2="120" y2="504" stroke="#c9c2b0" stroke-width="0.6"/><line x1="152" y1="24" x2="152" y2="504" stroke="#c9c2b0" stroke-width="0.6"/><line x1="184" y1="24" x2="184" y2="504" stroke="#c9c2b0" stroke-width="0.6"/><line x1="216" y1="24" x2="216" y2="504" stroke="#c9c2b0" stroke-width="0.6"/><line x1="248" y1="24" x2="248" y2="504" stroke="#c9c2b0" stroke-width="0.6"/><line x1="280" y1="24" x2="280" y2="504" stroke="#c9c2b0" stroke-width="0.6"/><line x1="312" y1="24" x2="312" y2="504" stroke="#c9c2b0" stroke-width="0.6"/><line x1="344" y1="24" x2="344" y2="504" stroke="#c9c2b0" stroke-width="0.6"/><line x1="376" y1="24" x2="376" y2="504" stroke="#c9c2b0" stroke-width="0.6"/><line x1="408" y1="24" x2="408" y2="504" stroke="#c9c2b0" stroke-width="0.6"/><line x1="440" y1="24" x2="440" y2="504" stroke="#c9c2b0" stroke-width="0.6"/><line x1="472" y1="24" x2="472" y2="504" stroke="#c9c2b0" stroke-width="0.6"/><line x1="504" y1="24" x2="504" y2="504" stroke="#c9c2b0" stroke-width="0.6"/><line x1="536" y1="24" x2="536" y2="504" stroke="#c9c2b0" stroke-width="0.6"/><line x1="568" y1="24" x2="568" y2="504" stroke="#c9c2b0" stroke-width="0.6"/><line x1="600" y1="24" x2="600" y2="504" stroke="#c9c2b0" stroke-width="0.6"/><line x1="632" y1="24" x2="632" y2="504" stroke="#c9c2b0" stroke-width="0.6"/><line x1="664" y1="24" x2="664" y2="504" stroke="#c9c2b0" stroke-width="0.6"/><line x1="24" y1="24" x2="664" y2="24" stroke="#c9c2b0" stroke-width="0.6"/><line x1="24" y1="56" x2="664" y2="56" stroke="#c9c2b0" stroke-width="0.6"/><line x1="24" y1="88" x2="664" y2="88" stroke="#c9c2b0" stroke-width="0.6"/><line x1="24" y1="120" x2="664" y2="120" stroke="#c9c2b0" stroke-width="0.6"/><line x1="24" y1="152" x2="664" y2="152" stroke="#c9c2b0" stroke-width="0.6"/><line x1="24" y1="184" x2="664" y2="184" stroke="#c9c2b0" stroke-width="0.6"/><line x1="24" y1="216" x2="664" y2="216" stroke="#c9c2b0" stroke-width="0.6"/><line x1="24" y1="248" x2="664" y2="248" stroke="#c9c2b0" stroke-width="0.6"/><line x1="24" y1="280" x2="664" y2="280" stroke="#c9c2b0" stroke-width="0.6"/><line x1="24" y1="312" x2="664" y2="312" stroke="#c9c2b0" stroke-width="0.6"/><line x1="24" y1="344" x2="664" y2="344" stroke="#c9c2b0" stroke-width="0.6"/><line x1="24" y1="376" x2="664" y2="376" stroke="#c9c2b0" stroke-width="0.6"/><line x1="24" y1="408" x2="664" y2="408" stroke="#c9c2b0" stroke-width="0.6"/><line x1="24" y1="440" x2="664" y2="440" stroke="#c9c2b0" stroke-width="0.6"/><line x1="24" y1="472" x2="664" y2="472" stroke="#c9c2b0" stroke-width="0.6"/><line x1="24" y1="504" x2="664" y2="504" stroke="#c9c2b0" stroke-width="0.6"/><g id="cd-ambush-at-redford-crossing-tollhouse"><rect x="440" y="88" width="128" height="128" fill="#efe9da" opacity="0.8"/><line x1="440" y1="88" x2="568" y2="88" stroke="#3d3629" stroke-width="3" stroke-dasharray="5 6" opacity="0.7"/><line x1="440" y1="216" x2="568" y2="216" stroke="#3d3629" stroke-width="3" opacity="1"/><line x1="440" y1="88" x2="440" y2="216" stroke="#3d3629" stroke-width="3" opacity="1"/><line x1="568" y1="88" x2="568" y2="216" stroke="#3d3629" stroke-width="3" stroke-dasharray="5 6" opacity="0.7"/><line x1="472" y1="216" x2="504" y2="216" stroke="#a8763e" stroke-width="5"/><line x1="440" y1="120" x2="440" y2="152" stroke="#6fa8c9" stroke-width="2.5"/></g><g id="cd-ambush-at-redford-crossing-start"><rect x="312" y="440" width="96" height="64" fill="#4a9a6a" opacity="0.12"/><rect x="312" y="440" width="96" height="64" fill="none" stroke="#4a9a6a" stroke-width="1.5" stroke-dasharray="6 4"/></g><g><rect x="345.6" y="351.04" width="28.8" height="17.92" fill="#a8763e" stroke="#3d3629" stroke-width="1.5" stroke-dasharray="4 3" transform="rotate(90 360 360)"/></g><g><circle cx="488" cy="232" r="128" fill="#ffd98a" opacity="0.22"/><circle cx="488" cy="232" r="5" fill="#d9822b" stroke="#a8541e" stroke-width="1.5"/></g><g id="cd-ambush-at-redford-crossing-loot"><rect x="514" y="130" width="12" height="12" fill="#8f8474" stroke="#3d3629" stroke-width="1"/></g><g id="cd-ambush-at-redford-crossing-g1"><circle cx="104" cy="392" r="12.16" fill="#8a6ab5" opacity="0.9" stroke="#3d3629" stroke-width="1.5"/></g><g><circle cx="168" cy="424" r="12.16" fill="#8a6ab5" opacity="0.9" stroke="#3d3629" stroke-width="1.5"/></g><g id="cd-ambush-at-redford-crossing-a1"><circle cx="488" cy="136" r="12.16" fill="#8a6ab5" opacity="0.9" stroke="#3d3629" stroke-width="1.5"/></g><g><circle cx="520" cy="168" r="12.16" fill="#8a6ab5" opacity="0.9" stroke="#3d3629" stroke-width="1.5"/></g><text x="504" y="83" font-size="10" fill="#3d3629" text-anchor="middle" font-family="sans-serif">Ruined Toll House</text><text x="104" y="414.16" font-size="9" fill="#3d3629" text-anchor="middle" font-family="sans-serif">g1</text><text x="168" y="446.16" font-size="9" fill="#3d3629" text-anchor="middle" font-family="sans-serif">g2</text><text x="488" y="158.16" font-size="9" fill="#3d3629" text-anchor="middle" font-family="sans-serif">a1</text><text x="520" y="190.16" font-size="9" fill="#3d3629" text-anchor="middle" font-family="sans-serif">a2</text><text x="360" y="452" font-size="9" fill="#4a9a6a" text-anchor="middle" font-family="sans-serif">start</text><text x="14" y="22" font-size="16" font-weight="bold" fill="#3d3629" font-family="sans-serif">Ambush at Redford Crossing</text></svg>