<svg xmlns="http://www.w3.org/2000/svg" viewBox="0 0 880 688" width="880" height="688" font-family="sans-serif"><rect x="0" y="0" width="880" height="688" fill="#f9f5ea"/><defs><pattern id="hatch" width="6" height="6" patternUnits="userSpaceOnUse"><path d="M0,6 L6,0" stroke="#7a7264" stroke-width="1" opacity="0.5"/></pattern></defs><g><rect x="24" y="24" width="64" height="384" fill="#a9c79c"/></g><g><rect x="760" y="24" width="96" height="384" fill="#dde5b8"/></g><g id="cd-fairwater-manor-fairwater"><polyline points="24,456 264,456 520,488 856,488" fill="none" stroke="#b9d3e6" stroke-width="54.4" stroke-linecap="butt" stroke-linejoin="round"/></g><g id="cd-fairwater-manor-kingsroad"><polyline points="424,664 424,424" fill="none" stroke="#c3a878" stroke-width="27.2" stroke-linecap="butt" stroke-linejoin="round"/></g><g><clipPath id="xing-12"><polygon points="24,483.2 264,483.2 264,428.8 24,428.8"/><polygon points="260.63,482.99 516.63,514.99 523.37,461.01 267.37,429.01"/><polygon points="520,515.2 856,515.2 856,460.8 520,460.8"/></clipPath><polyline points="424,664 424,424" fill="none" stroke="#6b4a26" stroke-width="33.2" stroke-linecap="butt" stroke-linejoin="round" clip-path="url(#xing-12)"/><polyline points="424,664 424,424" fill="none" stroke="#a8763e" stroke-width="27.2" stroke-linecap="butt" stroke-linejoin="round" clip-path="url(#xing-12)"/></g><line x1="24" y1="24" x2="24" y2="664" stroke="#c9c2b0" stroke-width="0.6"/><line x1="56" y1="24" x2="56" y2="664" stroke="#c9c2b0" stroke-width="0.6"/><line x1="88" y1="24" x2="88" y2="664" stroke="#c9c2b0" stroke-width="0.6"/><line x1="120" y1="24" x2="120" y2="664" stroke="#c9c2b0" stroke-width="0.6"/><line x1="152" y1="24" x2="152" y2="664" stroke="#c9c2b0" stroke-width="0.6"/><line x1="184" y1="24" x2="184" y2="664" stroke="#c9c2b0" stroke-width="0.6"/><line x1="216" y1="24" x2="216" y2="664" stroke="#c9c2b0" stroke-width="0.6"/><line x1="248" y1="24" x2="248" y2="664" stroke="#c9c2b0" stroke-width="0.6"/><line x1="280" y1="24" x2="280" y2="664" stroke="#c9c2b0" stroke-width="0.6"/><line x1="312" y1="24" x2="312" y2="664" stroke="#c9c2b0" stroke-width="0.6"/><line x1="344" y1="24" x2="344" y2="664" stroke="#c9c2b0" stroke-width="0.6"/><line x1="376" y1="24" x2="376" y2="664" stroke="#c9c2b0" stroke-width="0.6"/><line x1="408" y1="24" x2="408" y2="664" stroke="#c9c2b0" stroke-width="0.6"/><line x1="440" y1="24" x2="440" y2="664" stroke="#c9c2b0" stroke-width="0.6"/><line x1="472" y1="24" x2="472" y2="664" stroke="#c9c2b0" stroke-width="0.6"/><line x1="504" y1="24" x2="504" y2="664" stroke="#c9c2b0" stroke-width="0.6"/><line x1="536" y1="24" x2="536" y2="664" stroke="#c9c2b0" stroke-width="0.6"/><line x1="568" y1="24" x2="568" y2="664" stroke="#c9c2b0" stroke-width="0.6"/><line x1="600" y1="24" x2="600" y2="664" stroke="#c9c2b0" stroke-width="0.6"/><line x1="632" y1="24" x2="632" y2="664" stroke="#c9c2b0" stroke-width="0.6"/><line x1="664" y1="24" x2="664" y2="664" stroke="#c9c2b0" stroke-width="0.6"/><line x1="696" y1="24" x2="696" y2="664" stroke="#c9c2b0" stroke-width="0.6"/><line x1="728" y1="24" x2="728" y2="664" stroke="#c9c2b0" stroke-width="0.6"/><line x1="760" y1="24" x2="760" y2="664" stroke="#c9c2b0" stroke-width="0.6"/><line x1="792" y1="24" x2="792" y2="664" stroke="#c9c2b0" stroke-width="0.6"/><line x1="824" y1="24" x2="824" y2="664" stroke="#c9c2b0" stroke-width="0.6"/><line x1="856" y1="24" x2="856" y2="664" stroke="#c9c2b0" stroke-width="0.6"/><line x1="24" y1="24" x2="856" y2="24" stroke="#c9c2b0" stroke-width="0.6"/><line x1="24" y1="56" x2="856" y2="56" stroke="#c9c2b0" stroke-width="0.6"/><line x1="24" y1="88" x2="856" y2="88" stroke="#c9c2b0" stroke-width="0.6"/><line x1="24" y1="120" x2="856" y2="120" stroke="#c9c2b0" stroke-width="0.6"/><line x1="24" y1="152" x2="856" y2="152" stroke="#c9c2b0" stroke-width="0.6"/><line x1="24" y1="184" x2="856" y2="184" stroke="#c9c2b0" stroke-width="0.6"/><line x1="24" y1="216" x2="856" y2="216" stroke="#c9c2b0" stroke-width="0.6"/><line x1="24" y1="248" x2="856" y2="248" stroke="#c9c2b0" stroke-width="0.6"/><line x1="24" y1="280" x2="856" y2="280" stroke="#c9c2b0" stroke-width="0.6"/><line x1="24" y1="312" x2="856" y2="312" stroke="#c9c2b0" stroke-width="0.6"/><line x1="24" y1="344" x2="856" y2="344" stroke="#c9c2b0" stroke-width="0.6"/><line x1="24" y1="376" x2="856" y2="376" stroke="#c9c2b0" stroke-width="0.6"/><line x1="24" y1="408" x2="856" y2="408" stroke="#c9c2b0" stroke-width="0.6"/><line x1="24" y1="440" x2="856" y2="440" stroke="#c9c2b0" stroke-width="0.6"/><line x1="24" y1="472" x2="856" y2="472" stroke="#c9c2b0" stroke-width="0.6"/><line x1="24" y1="504" x2="856" y2="504" stroke="#c9c2b0" stroke-width="0.6"/><line x1="24" y1="536" x2="856" y2="536" stroke="#c9c2b0" stroke-width="0.6"/><line x1="24" y1="568" x2="856" y2="568" stroke="#c9c2b0" stroke-width="0.6"/><line x1="24" y1="600" x2="856" y2="600" stroke="#c9c2b0" stroke-width="0.6"/><line x1="24" y1="632" x2="856" y2="632" stroke="#c9c2b0" stroke-width="0.6"/><line x1="24" y1="664" x2="856" y2="664" stroke="#c9c2b0" stroke-width="0.6"/><text x="40" y="17" font-size="9" fill="#8a8272" text-anchor="middle" font-family="sans-serif">A</text><text x="72" y="17" font-size="9" fill="#8a8272" text-anchor="middle" font-family="sans-serif">B</text><text x="104" y="17" font-size="9" fill="#8a8272" text-anchor="middle" font-family="sans-serif">C</text><text x="136" y="17" font-size="9" fill="#8a8272" text-anchor="middle" font-family="sans-serif">D</text><text x="168" y="17" font-size="9" fill="#8a8272" text-anchor="middle" font-family="sans-serif">E</text><text x="200" y="17" font-size="9" fill="#8a8272" text-anchor="middle" font-family="sans-serif">F</text><text x="232" y="17" font-size="9" fill="#8a8272" text-anchor="middle" font-family="sans-serif">G</text><text x="264" y="17" font-size="9" fill="#8a8272" text-anchor="middle" font-family="sans-serif">H</text><text x="296" y="17" font-size="9" fill="#8a8272" text-anchor="middle" font-family="sans-serif">I</text><text x="328" y="17" font-size="9" fill="#8a8272" text-anchor="middle" font-family="sans-serif">J</text><text x="360" y="17" font-size="9" fill="#8a8272" text-anchor="middle" font-family="sans-serif">K</text><text x="392" y="17" font-size="9" fill="#8a8272" text-anchor="middle" font-family="sans-serif">L</text><text x="424" y="17" font-size="9" fill="#8a8272" text-anchor="middle" font-family="sans-serif">M</text><text x="456" y="17" font-size="9" fill="#8a8272" text-anchor="middle" font-family="sans-serif">N</text><text x="488" y="17" font-size="9" fill="#8a8272" text-anchor="middle" font-family="sans-serif">O</text><text x="520" y="17" font-size="9" fill="#8a8272" text-anchor="middle" font-family="sans-serif">P</text><text x="552" y="17" font-size="9" fill="#8a8272" text-anchor="middle" font-family="sans-serif">Q</text><text x="584" y="17" font-size="9" fill="#8a8272" text-anchor="middle" font-family="sans-serif">R</text><text x="616" y="17" font-size="9" fill="#8a8272" text-anchor="middle" font-family="sans-serif">S</text><text x="648" y="17" font-size="9" fill="#8a8272" text-anchor="middle" font-family="sans-serif">T</text><text x="680" y="17" font-size="9" fill="#8a8272" text-anchor="middle" font-family="sans-serif">U</text><text x="712" y="17" font-size="9" fill="#8a8272" text-anchor="middle" font-family="sans-serif">V</text><text x="744" y="17" font-size="9" fill="#8a8272" text-anchor="middle" font-family="sans-serif">W</text><text x="776" y="17" font-size="9" fill="#8a8272" text-anchor="middle" font-family="sans-serif">X</text><text x="808" y="17" font-size="9" fill="#8a8272" text-anchor="middle" font-family="sans-serif">Y</text><text x="840" y="17" font-size="9" fill="#8a8272" text-anchor="middle" font-family="sans-serif">Z</text><text x="17" y="43" font-size="9" fill="#8a8272" text-anchor="end" font-family="sans-serif">1</text><text x="17" y="75" font-size="9" fill="#8a8272" text-anchor="end" font-family="sans-serif">2</text><text x="17" y="107" font-size="9" fill="#8a8272" text-anchor="end" font-family="sans-serif">3</text><text x="17" y="139" font-size="9" fill="#8a8272" text-anchor="end" font-family="sans-serif">4</text><text x="17" y="171" font-size="9" fill="#8a8272" text-anchor="end" font-family="sans-serif">5</text><text x="17" y="203" font-size="9" fill="#8a8272" text-anchor="end" font-family="sans-serif">6</text><text x="17" y="235" font-size="9" fill="#8a8272" text-anchor="end" font-family="sans-serif">7</text><text x="17" y="267" font-size="9" fill="#8a8272" text-anchor="end" font-family="sans-serif">8</text><text x="17" y="299" font-size="9" fill="#8a8272" text-anchor="end" font-family="sans-serif">9</text><text x="17" y="331" font-size="9" fill="#8a8272" text-anchor="end" font-family="sans-serif">10</text><text x="17" y="363" font-size="9" fill="#8a8272" text-anchor="end" font-family="sans-serif">11</text><text x="17" y="395" font-size="9" fill="#8a8272" text-anchor="end" font-family="sans-serif">12</text><text x="17" y="427" font-size="9" fill="#8a8272" text-anchor="end" font-family="sans-serif">13</text><text x="17" y="459" font-size="9" fill="#8a8272" text-anchor="end" font-family="sans-serif">14</text><text x="17" y="491" font-size="9" fill="#8a8272" text-anchor="end" font-family="sans-serif">15</text><text x="17" y="523" font-size="9" fill="#8a8272" text-anchor="end" font-family="sans-serif">16</text><text x="17" y="555" font-size="9" fill="#8a8272" text-anchor="end" font-family="sans-serif">17</text><text x="17" y="587" font-size="9" fill="#8a8272" text-anchor="end" font-family="sans-serif">18</text><text x="17" y="619" font-size="9" fill="#8a8272" text-anchor="end" font-family="sans-serif">19</text><text x="17" y="651" font-size="9" fill="#8a8272" text-anchor="end" font-family="sans-serif">20</text><g id="cd-fairwater-manor-courtyard"><rect x="120" y="56" width="608" height="288" fill="#efe9da" opacity="0.8"/><line x1="120" y1="56" x2="728" y2="56" stroke="#3d3629" stroke-width="3" opacity="1"/><line x1="120" y1="344" x2="728" y2="344" stroke="#3d3629" stroke-width="3" opacity="1"/><line x1="120" y1="56" x2="120" y2="344" stroke="#3d3629" stroke-width="3" opacity="1"/><line x1="728" y1="56" x2="728" y2="344" stroke="#3d3629" stroke-width="3" opacity="1"/><line x1="408" y1="344" x2="440" y2="344" stroke="#a8763e" stroke-width="5"/></g><g id="cd-fairwater-manor-hall"><rect x="152" y="88" width="256" height="128" fill="#efe9da" opacity="0.8"/><line x1="152" y1="88" x2="408" y2="88" stroke="#3d3629" stroke-width="3" opacity="1"/><line x1="152" y1="216" x2="408" y2="216" stroke="#3d3629" stroke-width="3" opacity="1"/><line x1="152" y1="88" x2="152" y2="216" stroke="#3d3629" stroke-width="3" opacity="1"/><line x1="408" y1="88" x2="408" y2="216" stroke="#3d3629" stroke-width="3" opacity="1"/><line x1="312" y1="216" x2="344" y2="216" stroke="#a8763e" stroke-width="5"/><line x1="152" y1="120" x2="152" y2="152" stroke="#6fa8c9" stroke-width="2.5"/><line x1="152" y1="152" x2="152" y2="184" stroke="#6fa8c9" stroke-width="2.5"/></g><g id="cd-fairwater-manor-kitchen"><rect x="152" y="216" width="128" height="96" fill="#efe9da" opacity="0.8"/><line x1="152" y1="216" x2="280" y2="216" stroke="#3d3629" stroke-width="3" opacity="1"/><line x1="152" y1="312" x2="280" y2="312" stroke="#3d3629" stroke-width="3" opacity="1"/><line x1="152" y1="216" x2="152" y2="312" stroke="#3d3629" stroke-width="3" opacity="1"/><line x1="280" y1="216" x2="280" y2="312" stroke="#3d3629" stroke-width="3" opacity="1"/><line x1="280" y1="248" x2="280" y2="280" stroke="#a8763e" stroke-width="5"/></g><g id="cd-fairwater-manor-solar"><rect x="440" y="88" width="128" height="96" fill="#efe9da" opacity="0.8"/><line x1="440" y1="88" x2="568" y2="88" stroke="#3d3629" stroke-width="3" opacity="1"/><line x1="440" y1="184" x2="568" y2="184" stroke="#3d3629" stroke-width="3" opacity="1"/><line x1="440" y1="88" x2="440" y2="184" stroke="#3d3629" stroke-width="3" opacity="1"/><line x1="568" y1="88" x2="568" y2="184" stroke="#3d3629" stroke-width="3" opacity="1"/><line x1="472" y1="184" x2="504" y2="184" stroke="#a8763e" stroke-width="5"/><line x1="568" y1="120" x2="568" y2="152" stroke="#6fa8c9" stroke-width="2.5"/></g><g id="cd-fairwater-manor-barracks"><rect x="600" y="88" width="96" height="160" fill="#efe9da" opacity="0.8"/><line x1="600" y1="88" x2="696" y2="88" stroke="#3d3629" stroke-width="3" opacity="1"/><line x1="600" y1="248" x2="696" y2="248" stroke="#3d3629" stroke-width="3" opacity="1"/><line x1="600" y1="88" x2="600" y2="248" stroke="#3d3629" stroke-width="3" opacity="1"/><line x1="696" y1="88" x2="696" y2="248" stroke="#3d3629" stroke-width="3" opacity="1"/><line x1="600" y1="152" x2="600" y2="184" stroke="#a8763e" stroke-width="5"/></g><g id="cd-fairwater-manor-gatehouse"><rect x="376" y="344" width="96" height="64" fill="#efe9da" opacity="0.8"/><line x1="376" y1="344" x2="472" y2="344" stroke="#3d3629" stroke-width="3" opacity="1"/><line x1="376" y1="408" x2="472" y2="408" stroke="#3d3629" stroke-width="3" opacity="1"/><line x1="376" y1="344" x2="376" y2="408" stroke="#3d3629" stroke-width="3" opacity="1"/><line x1="472" y1="344" x2="472" y2="408" stroke="#3d3629" stroke-width="3" opacity="1"/><line x1="408" y1="344" x2="440" y2="344" stroke="#a8763e" stroke-width="5"/><line x1="408" y1="408" x2="440" y2="408" stroke="#a8763e" stroke-width="5"/><line x1="376" y1="344" x2="376" y2="376" stroke="#6fa8c9" stroke-width="2.5"/><line x1="472" y1="344" x2="472" y2="376" stroke="#6fa8c9" stroke-width="2.5"/></g><g id="cd-fairwater-manor-start"><rect x="344" y="600" width="160" height="64" fill="#4a9a6a" opacity="0.12"/><rect x="344" y="600" width="160" height="64" fill="none" stroke="#4a9a6a" stroke-width="1.5" stroke-dasharray="6 4"/></g><g id="cd-fairwater-manor-alarm"><title>If the party is spotted, the gate guard rings the bell — g3 and the Whisper join in 2 rounds.</title><rect x="376" y="312" width="96" height="32" fill="#b5504a" opacity="0.12"/><rect x="376" y="312" width="96" height="32" fill="none" stroke="#b5504a" stroke-width="1.5" stroke-dasharray="6 4"/></g><g id="cd-fairwater-manor-hearth"><polygon points="360,136 359.9,141.58 359.61,147.16 359.12,152.72 358.44,158.27 357.57,163.78 356.5,169.27 355.25,174.71 353.8,180.1 352.17,185.44 350.35,190.72 348.35,195.94 346.17,201.08 343.81,206.14 341.27,211.12 338.56,216 328.03,216 318.6,216 310.11,216 302.4,216 295.34,216 288.85,216 282.84,216 277.26,216 272.03,216 267.13,216 262.5,216 258.12,216 253.96,216 249.99,216 246.19,216 242.54,216 239.02,216 235.62,216 232.32,216 229.12,216 225.99,216 222.94,216 219.95,216 217,216 214.11,216 211.24,216 208.41,216 205.59,216 202.79,216 200,216 197.21,216 194.41,216 191.59,216 188.76,216 185.89,216 183,216 180.05,216 177.06,216 174.01,216 170.88,216 167.68,216 164.38,216 160.98,216 157.46,216 153.81,216 152,212.82 152,207.16 152,202.07 152,197.44 152,193.2 152,189.31 152,185.71 120,213.26 120,208.03 120,203.13 120,198.5 120,194.12 120,189.96 120,185.99 120,182.19 120,178.54 120,175.02 120,171.62 120,168.32 120,165.12 120,161.99 120,158.94 120,155.95 120,153 120,150.11 120,147.24 120,144.41 120,141.59 120,138.79 120,136 120,133.21 120,130.41 120,127.59 120,124.76 120,121.89 120,119 120,116.05 120,113.06 120,110.01 152,118.53 152,116.61 152,114.63 152,112.59 152,110.48 152,108.29 152,106.01 152,103.62 152,101.13 152,98.5 152,95.72 152,92.78 152,89.65 153.65,88 156.78,88 159.72,88 162.5,88 165.13,88 167.62,88 170.01,88 172.29,88 174.48,88 176.59,88 178.63,88 180.61,88 182.53,88 184.4,88 186.24,88 188.03,88 189.8,88 191.54,88 193.25,88 194.95,88 196.64,88 198.32,88 200,88 201.68,88 203.36,88 205.05,88 206.75,88 208.46,88 210.2,88 211.97,88 213.76,88 215.6,88 217.47,88 219.39,88 221.37,88 223.41,88 225.52,88 227.71,88 229.99,88 232.38,88 234.87,88 237.5,88 240.28,88 243.22,88 246.35,88 249.71,88 253.31,88 257.2,88 261.44,88 266.07,88 271.16,88 276.82,88 283.14,88 290.27,88 298.41,88 307.81,88 318.8,88 331.88,88 347.73,88 353.8,91.9 355.25,97.29 356.5,102.73 357.57,108.22 358.44,113.73 359.12,119.28 359.61,124.84 359.9,130.42" fill="#ffd98a" opacity="0.22"/><circle cx="200" cy="136" r="5" fill="#d9822b" stroke="#a8541e" stroke-width="1.5"/></g><g id="cd-fairwater-manor-gatelamp"><polygon points="472,392 472,392.56 472,393.12 472,393.68 472,394.25 472,394.82 472,395.4 472,395.99 472,396.59 472,397.2 472,397.82 472,398.46 472,399.12 472,399.8 472,400.51 472,401.24 472,402 472,402.79 472,403.62 472,404.5 472,405.43 472,406.41 472,407.45 471.45,408 470.41,408 469.43,408 468.5,408 467.62,408 466.79,408 466,408 465.24,408 464.51,408 463.8,408 463.12,408 462.46,408 461.82,408 461.2,408 460.59,408 459.99,408 459.4,408 458.82,408 458.25,408 457.68,408 457.12,408 456.56,408 456,408 455.44,408 454.88,408 454.32,408 453.75,408 453.18,408 452.6,408 452.01,408 451.41,408 450.8,408 450.18,408 449.54,408 448.88,408 448.2,408 447.49,408 446.76,408 446,408 445.21,408 444.38,408 443.5,408 442.57,408 441.59,408 440.55,408 439.43,408 438.23,408 436.93,408 435.52,408 433.98,408 432.28,408 430.39,408 428.29,408 425.91,408 423.2,408 420.06,408 416.4,408 412.04,408 406.76,408 400.2,408 391.83,408 380.73,408 376,406.11 376,403.24 376,400.41 376,397.59 376,394.79 376,392 376,389.21 376,386.41 376,383.59 376,380.76 376,377.89 362.1,372.04 362.85,368.78 363.72,365.54 364.7,362.33 365.79,359.17 366.99,356.04 368.3,352.95 369.72,349.92 371.24,346.93 372.86,344 379.18,344 384.84,344 389.93,344 394.56,344 398.8,344 402.69,344 406.29,344 409.65,344 412.78,344 415.72,344 418.5,344 421.13,344 423.62,344 426.01,344 428.29,344 430.48,344 432.59,344 434.63,344 436.61,344 438.53,344 440.4,344 442.24,344 444.03,344 445.8,344 447.54,344 449.25,344 450.95,344 452.64,344 454.32,344 456,344 457.68,344 459.36,344 461.05,344 462.75,344 464.46,344 466.2,344 467.97,344 469.76,344 471.6,344 473.47,344 475.39,344 477.37,344 479.41,344 481.52,344 483.71,344 485.99,344 488.38,344 490.87,344 493.5,344 496.28,344 499.22,344 502.35,344 472,376.55 472,377.59 472,378.57 472,379.5 472,380.38 472,381.21 472,382 472,382.76 472,383.49 472,384.2 472,384.88 472,385.54 472,386.18 472,386.8 472,387.41 472,388.01 472,388.6 472,389.18 472,389.75 472,390.32 472,390.88 472,391.44" fill="#ffd98a" opacity="0.22"/><circle cx="456" cy="392" r="5" fill="#d9822b" stroke="#a8541e" stroke-width="1.5"/></g><g><title>well</title><rect x="450" y="258" width="12" height="12" fill="#8f8474" stroke="#3d3629" stroke-width="1"/></g><g><title>statue</title><rect x="354" y="258" width="12" height="12" fill="#8f8474" stroke="#3d3629" stroke-width="1"/></g><g><title>table</title><rect x="226" y="258" width="12" height="12" fill="#8f8474" stroke="#3d3629" stroke-width="1"/></g><g id="cd-fairwater-manor-hightable"><title>table</title><rect x="258" y="130" width="12" height="12" fill="#8f8474" stroke="#3d3629" stroke-width="1"/></g><g id="cd-fairwater-manor-strongbox"><title>Locked (DC 15). Deeds to the mill, 120 gp, and a letter naming the Whisper's employer.</title><rect x="514" y="130" width="12" height="12" fill="#8f8474" stroke="#3d3629" stroke-width="1"/></g><g><title>crates</title><rect x="642" y="130" width="12" height="12" fill="#8f8474" stroke="#3d3629" stroke-width="1"/></g><g><title>barrel</title><rect x="194" y="258" width="12" height="12" fill="#8f8474" stroke="#3d3629" stroke-width="1"/></g><g id="cd-fairwater-manor-g1"><circle cx="424" cy="392" r="12.16" fill="#b5504a" opacity="0.9" stroke="#3d3629" stroke-width="1.5"/></g><g><circle cx="424" cy="520" r="12.16" fill="#b5504a" opacity="0.9" stroke="#3d3629" stroke-width="1.5"/></g><g id="cd-fairwater-manor-g3"><circle cx="584" cy="264" r="12.16" fill="#b5504a" opacity="0.9" stroke="#3d3629" stroke-width="1.5"/></g><g id="cd-fairwater-manor-lord-fairwater"><title>Knows he is a target; will bargain.</title><circle cx="296" cy="136" r="12.16" fill="#8a6ab5" opacity="0.9" stroke="#3d3629" stroke-width="1.5"/></g><g id="cd-fairwater-manor-the-whisper"><circle cx="520" cy="168" r="12.16" fill="#b5504a" opacity="0.9" stroke="#fff" stroke-width="1.5" stroke-dasharray="3 3"/></g><text x="424" y="51" font-size="10" fill="#3d3629" text-anchor="middle" font-family="sans-serif">The Courtyard</text><text x="280" y="83" font-size="10" fill="#3d3629" text-anchor="middle" font-family="sans-serif">The Great Hall</text><text x="216" y="211" font-size="10" fill="#3d3629" text-anchor="middle" font-family="sans-serif">Kitchen</text><text x="504" y="83" font-size="10" fill="#3d3629" text-anchor="middle" font-family="sans-serif">The Solar</text><text x="648" y="83" font-size="10" fill="#3d3629" text-anchor="middle" font-family="sans-serif">Barracks</text><text x="424" y="339" font-size="10" fill="#3d3629" text-anchor="middle" font-family="sans-serif">The Gatehouse</text><text x="424" y="414.16" font-size="9" fill="#3d3629" text-anchor="middle" font-family="sans-serif">g1</text><text x="424" y="542.16" font-size="9" fill="#3d3629" text-anchor="middle" font-family="sans-serif">g2</text><text x="584" y="286.16" font-size="9" fill="#3d3629" text-anchor="middle" font-family="sans-serif">g3</text><text x="296" y="158.16" font-size="9" fill="#3d3629" text-anchor="middle" font-family="sans-serif">Lord Fairwater</text><text x="520" y="190.16" font-size="9" fill="#3d3629" text-anchor="middle" font-family="sans-serif">The Whisper</text><text x="424" y="612" font-size="9" fill="#4a9a6a" text-anchor="middle" font-family="sans-serif">start</text><text x="424" y="324" font-size="9" fill="#b5504a" text-anchor="middle" font-family="sans-serif">alarm</text><text x="14" y="22" font-size="16" font-weight="bold" fill="#3d3629" font-family="sans-serif">Fairwater Manor</text></svg>