<svg xmlns="http://www.w3.org/2000/svg" viewBox="0 0 816 624" width="816" height="624" font-family="sans-serif"><rect x="0" y="0" width="816" height="624" fill="#f9f5ea"/><defs><pattern id="hatch" width="6" height="6" patternUnits="userSpaceOnUse"><path d="M0,6 L6,0" stroke="#7a7264" stroke-width="1" opacity="0.5"/></pattern></defs><g><rect x="152" y="408" width="96" height="64" fill="#c8b294"/><rect x="152" y="408" width="96" height="64" fill="url(#hatch)"/></g><g><rect x="24" y="24" width="96" height="288" fill="#a9c79c"/></g><g><rect x="632" y="24" width="160" height="320" fill="#dde5b8"/></g><g id="cd-fairwater-manor-fairwater"><polyline points="24,392 232,392 456,424 792,424" fill="none" stroke="#b9d3e6" stroke-width="54.4" stroke-linecap="butt" stroke-linejoin="round"/></g><g id="cd-fairwater-manor-kingsroad"><polyline points="392,600 392,360 392,24" fill="none" stroke="#c3a878" stroke-width="27.2" stroke-linecap="butt" stroke-linejoin="round"/></g><g><clipPath id="xing-13"><polygon points="24,419.2 232,419.2 232,364.8 24,364.8"/><polygon points="228.15,418.93 452.15,450.93 459.85,397.07 235.85,365.07"/><polygon points="456,451.2 792,451.2 792,396.8 456,396.8"/></clipPath><polyline points="392,600 392,360 392,24" fill="none" stroke="#6b4a26" stroke-width="33.2" stroke-linecap="butt" stroke-linejoin="round" clip-path="url(#xing-13)"/><polyline points="392,600 392,360 392,24" fill="none" stroke="#a8763e" stroke-width="27.2" stroke-linecap="butt" stroke-linejoin="round" clip-path="url(#xing-13)"/></g><line x1="24" y1="24" x2="24" y2="600" stroke="#c9c2b0" stroke-width="0.6"/><line x1="56" y1="24" x2="56" y2="600" stroke="#c9c2b0" stroke-width="0.6"/><line x1="88" y1="24" x2="88" y2="600" stroke="#c9c2b0" stroke-width="0.6"/><line x1="120" y1="24" x2="120" y2="600" stroke="#c9c2b0" stroke-width="0.6"/><line x1="152" y1="24" x2="152" y2="600" stroke="#c9c2b0" stroke-width="0.6"/><line x1="184" y1="24" x2="184" y2="600" stroke="#c9c2b0" stroke-width="0.6"/><line x1="216" y1="24" x2="216" y2="600" stroke="#c9c2b0" stroke-width="0.6"/><line x1="248" y1="24" x2="248" y2="600" stroke="#c9c2b0" stroke-width="0.6"/><line x1="280" y1="24" x2="280" y2="600" stroke="#c9c2b0" stroke-width="0.6"/><line x1="312" y1="24" x2="312" y2="600" stroke="#c9c2b0" stroke-width="0.6"/><line x1="344" y1="24" x2="344" y2="600" stroke="#c9c2b0" stroke-width="0.6"/><line x1="376" y1="24" x2="376" y2="600" stroke="#c9c2b0" stroke-width="0.6"/><line x1="408" y1="24" x2="408" y2="600" stroke="#c9c2b0" stroke-width="0.6"/><line x1="440" y1="24" x2="440" y2="600" stroke="#c9c2b0" stroke-width="0.6"/><line x1="472" y1="24" x2="472" y2="600" stroke="#c9c2b0" stroke-width="0.6"/><line x1="504" y1="24" x2="504" y2="600" stroke="#c9c2b0" stroke-width="0.6"/><line x1="536" y1="24" x2="536" y2="600" stroke="#c9c2b0" stroke-width="0.6"/><line x1="568" y1="24" x2="568" y2="600" stroke="#c9c2b0" stroke-width="0.6"/><line x1="600" y1="24" x2="600" y2="600" stroke="#c9c2b0" stroke-width="0.6"/><line x1="632" y1="24" x2="632" y2="600" stroke="#c9c2b0" stroke-width="0.6"/><line x1="664" y1="24" x2="664" y2="600" stroke="#c9c2b0" stroke-width="0.6"/><line x1="696" y1="24" x2="696" y2="600" stroke="#c9c2b0" stroke-width="0.6"/><line x1="728" y1="24" x2="728" y2="600" stroke="#c9c2b0" stroke-width="0.6"/><line x1="760" y1="24" x2="760" y2="600" stroke="#c9c2b0" stroke-width="0.6"/><line x1="792" y1="24" x2="792" y2="600" stroke="#c9c2b0" stroke-width="0.6"/><line x1="24" y1="24" x2="792" y2="24" stroke="#c9c2b0" stroke-width="0.6"/><line x1="24" y1="56" x2="792" y2="56" stroke="#c9c2b0" stroke-width="0.6"/><line x1="24" y1="88" x2="792" y2="88" stroke="#c9c2b0" stroke-width="0.6"/><line x1="24" y1="120" x2="792" y2="120" stroke="#c9c2b0" stroke-width="0.6"/><line x1="24" y1="152" x2="792" y2="152" stroke="#c9c2b0" stroke-width="0.6"/><line x1="24" y1="184" x2="792" y2="184" stroke="#c9c2b0" stroke-width="0.6"/><line x1="24" y1="216" x2="792" y2="216" stroke="#c9c2b0" stroke-width="0.6"/><line x1="24" y1="248" x2="792" y2="248" stroke="#c9c2b0" stroke-width="0.6"/><line x1="24" y1="280" x2="792" y2="280" stroke="#c9c2b0" stroke-width="0.6"/><line x1="24" y1="312" x2="792" y2="312" stroke="#c9c2b0" stroke-width="0.6"/><line x1="24" y1="344" x2="792" y2="344" stroke="#c9c2b0" stroke-width="0.6"/><line x1="24" y1="376" x2="792" y2="376" stroke="#c9c2b0" stroke-width="0.6"/><line x1="24" y1="408" x2="792" y2="408" stroke="#c9c2b0" stroke-width="0.6"/><line x1="24" y1="440" x2="792" y2="440" stroke="#c9c2b0" stroke-width="0.6"/><line x1="24" y1="472" x2="792" y2="472" stroke="#c9c2b0" stroke-width="0.6"/><line x1="24" y1="504" x2="792" y2="504" stroke="#c9c2b0" stroke-width="0.6"/><line x1="24" y1="536" x2="792" y2="536" stroke="#c9c2b0" stroke-width="0.6"/><line x1="24" y1="568" x2="792" y2="568" stroke="#c9c2b0" stroke-width="0.6"/><line x1="24" y1="600" x2="792" y2="600" stroke="#c9c2b0" stroke-width="0.6"/><text x="40" y="17" font-size="9" fill="#8a8272" text-anchor="middle" font-family="sans-serif">A</text><text x="72" y="17" font-size="9" fill="#8a8272" text-anchor="middle" font-family="sans-serif">B</text><text x="104" y="17" font-size="9" fill="#8a8272" text-anchor="middle" font-family="sans-serif">C</text><text x="136" y="17" font-size="9" fill="#8a8272" text-anchor="middle" font-family="sans-serif">D</text><text x="168" y="17" font-size="9" fill="#8a8272" text-anchor="middle" font-family="sans-serif">E</text><text x="200" y="17" font-size="9" fill="#8a8272" text-anchor="middle" font-family="sans-serif">F</text><text x="232" y="17" font-size="9" fill="#8a8272" text-anchor="middle" font-family="sans-serif">G</text><text x="264" y="17" font-size="9" fill="#8a8272" text-anchor="middle" font-family="sans-serif">H</text><text x="296" y="17" font-size="9" fill="#8a8272" text-anchor="middle" font-family="sans-serif">I</text><text x="328" y="17" font-size="9" fill="#8a8272" text-anchor="middle" font-family="sans-serif">J</text><text x="360" y="17" font-size="9" fill="#8a8272" text-anchor="middle" font-family="sans-serif">K</text><text x="392" y="17" font-size="9" fill="#8a8272" text-anchor="middle" font-family="sans-serif">L</text><text x="424" y="17" font-size="9" fill="#8a8272" text-anchor="middle" font-family="sans-serif">M</text><text x="456" y="17" font-size="9" fill="#8a8272" text-anchor="middle" font-family="sans-serif">N</text><text x="488" y="17" font-size="9" fill="#8a8272" text-anchor="middle" font-family="sans-serif">O</text><text x="520" y="17" font-size="9" fill="#8a8272" text-anchor="middle" font-family="sans-serif">P</text><text x="552" y="17" font-size="9" fill="#8a8272" text-anchor="middle" font-family="sans-serif">Q</text><text x="584" y="17" font-size="9" fill="#8a8272" text-anchor="middle" font-family="sans-serif">R</text><text x="616" y="17" font-size="9" fill="#8a8272" text-anchor="middle" font-family="sans-serif">S</text><text x="648" y="17" font-size="9" fill="#8a8272" text-anchor="middle" font-family="sans-serif">T</text><text x="680" y="17" font-size="9" fill="#8a8272" text-anchor="middle" font-family="sans-serif">U</text><text x="712" y="17" font-size="9" fill="#8a8272" text-anchor="middle" font-family="sans-serif">V</text><text x="744" y="17" font-size="9" fill="#8a8272" text-anchor="middle" font-family="sans-serif">W</text><text x="776" y="17" font-size="9" fill="#8a8272" text-anchor="middle" font-family="sans-serif">X</text><text x="17" y="43" font-size="9" fill="#8a8272" text-anchor="end" font-family="sans-serif">1</text><text x="17" y="75" font-size="9" fill="#8a8272" text-anchor="end" font-family="sans-serif">2</text><text x="17" y="107" font-size="9" fill="#8a8272" text-anchor="end" font-family="sans-serif">3</text><text x="17" y="139" font-size="9" fill="#8a8272" text-anchor="end" font-family="sans-serif">4</text><text x="17" y="171" font-size="9" fill="#8a8272" text-anchor="end" font-family="sans-serif">5</text><text x="17" y="203" font-size="9" fill="#8a8272" text-anchor="end" font-family="sans-serif">6</text><text x="17" y="235" font-size="9" fill="#8a8272" text-anchor="end" font-family="sans-serif">7</text><text x="17" y="267" font-size="9" fill="#8a8272" text-anchor="end" font-family="sans-serif">8</text><text x="17" y="299" font-size="9" fill="#8a8272" text-anchor="end" font-family="sans-serif">9</text><text x="17" y="331" font-size="9" fill="#8a8272" text-anchor="end" font-family="sans-serif">10</text><text x="17" y="363" font-size="9" fill="#8a8272" text-anchor="end" font-family="sans-serif">11</text><text x="17" y="395" font-size="9" fill="#8a8272" text-anchor="end" font-family="sans-serif">12</text><text x="17" y="427" font-size="9" fill="#8a8272" text-anchor="end" font-family="sans-serif">13</text><text x="17" y="459" font-size="9" fill="#8a8272" text-anchor="end" font-family="sans-serif">14</text><text x="17" y="491" font-size="9" fill="#8a8272" text-anchor="end" font-family="sans-serif">15</text><text x="17" y="523" font-size="9" fill="#8a8272" text-anchor="end" font-family="sans-serif">16</text><text x="17" y="555" font-size="9" fill="#8a8272" text-anchor="end" font-family="sans-serif">17</text><text x="17" y="587" font-size="9" fill="#8a8272" text-anchor="end" font-family="sans-serif">18</text><g id="cd-fairwater-manor-courtyard"><rect x="88" y="56" width="544" height="224" fill="#efe9da" opacity="0.8"/><line x1="88" y1="56" x2="632" y2="56" stroke="#3d3629" stroke-width="3" opacity="1"/><line x1="88" y1="280" x2="632" y2="280" stroke="#3d3629" stroke-width="3" opacity="1"/><line x1="88" y1="56" x2="88" y2="280" stroke="#3d3629" stroke-width="3" opacity="1"/><line x1="632" y1="56" x2="632" y2="280" stroke="#3d3629" stroke-width="3" opacity="1"/><line x1="376" y1="280" x2="408" y2="280" stroke="#a8763e" stroke-width="5"/></g><g id="cd-fairwater-manor-hall"><rect x="152" y="88" width="224" height="128" fill="#efe9da" opacity="0.8"/><line x1="152" y1="88" x2="376" y2="88" stroke="#3d3629" stroke-width="3" opacity="1"/><line x1="152" y1="216" x2="376" y2="216" stroke="#3d3629" stroke-width="3" opacity="1"/><line x1="152" y1="88" x2="152" y2="216" stroke="#3d3629" stroke-width="3" opacity="1"/><line x1="376" y1="88" x2="376" y2="216" stroke="#3d3629" stroke-width="3" opacity="1"/><line x1="248" y1="216" x2="280" y2="216" stroke="#a8763e" stroke-width="5"/><line x1="152" y1="120" x2="152" y2="152" stroke="#6fa8c9" stroke-width="2.5"/><line x1="152" y1="152" x2="152" y2="184" stroke="#6fa8c9" stroke-width="2.5"/></g><g id="cd-fairwater-manor-wing"><rect x="440" y="88" width="160" height="128" fill="#efe9da" opacity="0.8"/><line x1="440" y1="88" x2="600" y2="88" stroke="#3d3629" stroke-width="3" opacity="1"/><line x1="440" y1="216" x2="600" y2="216" stroke="#3d3629" stroke-width="3" opacity="1"/><line x1="440" y1="88" x2="440" y2="216" stroke="#3d3629" stroke-width="3" opacity="1"/><line x1="600" y1="88" x2="600" y2="216" stroke="#3d3629" stroke-width="3" opacity="1"/><line x1="440" y1="216" x2="472" y2="216" stroke="#a8763e" stroke-width="5"/><line x1="600" y1="120" x2="600" y2="152" stroke="#6fa8c9" stroke-width="2.5"/></g><g id="cd-fairwater-manor-gatehouse"><rect x="344" y="280" width="96" height="64" fill="#efe9da" opacity="0.8"/><line x1="344" y1="280" x2="440" y2="280" stroke="#3d3629" stroke-width="3" opacity="1"/><line x1="344" y1="344" x2="440" y2="344" stroke="#3d3629" stroke-width="3" opacity="1"/><line x1="344" y1="280" x2="344" y2="344" stroke="#3d3629" stroke-width="3" opacity="1"/><line x1="440" y1="280" x2="440" y2="344" stroke="#3d3629" stroke-width="3" opacity="1"/><line x1="376" y1="280" x2="408" y2="280" stroke="#a8763e" stroke-width="5"/><line x1="376" y1="344" x2="408" y2="344" stroke="#a8763e" stroke-width="5"/><line x1="344" y1="280" x2="344" y2="312" stroke="#6fa8c9" stroke-width="2.5"/><line x1="440" y1="280" x2="440" y2="312" stroke="#6fa8c9" stroke-width="2.5"/></g><g id="cd-fairwater-manor-start"><rect x="312" y="536" width="160" height="64" fill="#4a9a6a" opacity="0.12"/><rect x="312" y="536" width="160" height="64" fill="none" stroke="#4a9a6a" stroke-width="1.5" stroke-dasharray="6 4"/></g><g id="cd-fairwater-manor-hearth"><polygon points="360,136 359.9,141.58 359.61,147.16 359.12,152.72 358.44,158.27 357.57,163.78 356.5,169.27 355.25,174.71 353.8,180.1 352.17,185.44 350.35,190.72 348.35,195.94 346.17,201.08 343.81,206.14 341.27,211.12 338.56,216 328.03,216 318.6,216 310.11,216 302.4,216 295.34,216 288.85,216 282.84,216 277.26,216 272.03,216 267.13,216 262.5,216 258.12,216 253.96,216 249.99,216 246.19,216 242.54,216 239.02,216 235.62,216 232.32,216 229.12,216 225.99,216 222.94,216 219.95,216 217,216 214.11,216 211.24,216 208.41,216 205.59,216 202.79,216 200,216 197.21,216 194.41,216 191.59,216 188.76,216 185.89,216 183,216 180.05,216 177.06,216 174.01,216 170.88,216 167.68,216 164.38,216 160.98,216 157.46,216 153.81,216 152,212.82 152,207.16 152,202.07 152,197.44 152,193.2 152,189.31 152,185.71 152,182.35 152,179.22 152,176.28 152,173.5 152,170.87 152,168.38 152,165.99 152,163.71 152,161.52 152,159.41 152,157.37 152,155.39 152,153.47 152,151.6 152,149.76 152,147.97 152,146.2 152,144.46 152,142.75 152,141.05 152,139.36 152,137.68 152,136 152,134.32 152,132.64 152,130.95 152,129.25 152,127.54 152,125.8 152,124.03 152,122.24 152,120.4 152,118.53 152,116.61 152,114.63 152,112.59 152,110.48 152,108.29 152,106.01 152,103.62 152,101.13 152,98.5 152,95.72 152,92.78 152,89.65 153.65,88 156.78,88 159.72,88 162.5,88 165.13,88 167.62,88 170.01,88 172.29,88 174.48,88 176.59,88 178.63,88 180.61,88 182.53,88 184.4,88 186.24,88 188.03,88 189.8,88 191.54,88 193.25,88 194.95,88 196.64,88 198.32,88 200,88 201.68,88 203.36,88 205.05,88 206.75,88 208.46,88 210.2,88 211.97,88 213.76,88 215.6,88 217.47,88 219.39,88 221.37,88 223.41,88 225.52,88 227.71,88 229.99,88 232.38,88 234.87,88 237.5,88 240.28,88 243.22,88 246.35,88 249.71,88 253.31,88 257.2,88 261.44,88 266.07,88 271.16,88 276.82,88 283.14,88 290.27,88 298.41,88 307.81,88 318.8,88 331.88,88 347.73,88 353.8,91.9 355.25,97.29 356.5,102.73 357.57,108.22 358.44,113.73 359.12,119.28 359.61,124.84 359.9,130.42" fill="#ffd98a" opacity="0.22"/><circle cx="200" cy="136" r="5" fill="#d9822b" stroke="#a8541e" stroke-width="1.5"/></g><g><polygon points="520,264 519.94,267.35 519.77,270.7 519.47,274.03 519.07,277.36 514.74,280 499.27,280 488.17,280 479.8,280 473.24,280 467.96,280 463.6,280 459.94,280 456.8,280 454.09,280 451.71,280 449.61,280 447.72,280 446.02,280 444.48,280 443.07,280 441.77,280 440.57,280 439.45,280 438.41,280 437.43,280 436.5,280 435.62,280 434.79,280 434,280 433.24,280 432.51,280 431.8,280 431.12,280 430.46,280 429.82,280 429.2,280 428.59,280 427.99,280 427.4,280 426.82,280 426.25,280 425.68,280 425.12,280 424.56,280 424,280 423.44,280 422.88,280 422.32,280 421.75,280 421.18,280 420.6,280 420.01,280 419.41,280 418.8,280 418.18,280 417.54,280 416.88,280 416.2,280 415.49,280 414.76,280 414,280 413.21,280 412.38,280 411.5,280 410.57,280 409.59,280 408.55,280 407.43,280 406.23,280 404.93,280 403.52,280 401.98,280 400.28,280 398.39,280 396.29,280 393.91,280 391.2,280 388.06,280 384.4,280 380.04,280 374.76,280 368.2,280 359.83,280 348.73,280 333.26,280 328.93,277.36 328.53,274.03 328.23,270.7 328.06,267.35 328,264 328.06,260.65 328.23,257.3 328.53,253.97 328.93,250.64 329.46,247.33 330.1,244.04 330.85,240.78 331.72,237.54 332.7,234.33 333.79,231.17 334.99,228.04 336.3,224.95 337.72,221.92 339.24,218.93 340.86,216 347.18,216 352.84,216 357.93,216 362.56,216 366.8,216 370.69,216 374.29,216 376,214.29 376,210.69 376,206.8 376,202.56 376,197.93 376,192.84 376,187.18 376,180.86 378.93,179.24 381.92,177.72 384.95,176.3 388.04,174.99 391.17,173.79 394.33,172.7 397.54,171.72 400.78,170.85 404.04,170.1 407.33,169.46 410.64,168.93 413.97,168.53 417.3,168.23 420.65,168.06 424,168 427.35,168.06 430.7,168.23 434.03,168.53 437.36,168.93 440,173.26 440,188.73 440,199.83 440,208.2 440,214.76 441.47,216 443.39,216 445.37,216 447.41,216 449.52,216 451.71,216 453.99,216 456.38,216 458.87,216 461.5,216 464.28,216 467.22,216 470.35,216 473.71,216 477.31,216 481.2,216 485.44,216 490.07,216 495.16,216 500.82,216 507.14,216 508.76,218.93 510.28,221.92 511.7,224.95 513.01,228.04 514.21,231.17 515.3,234.33 516.28,237.54 517.15,240.78 517.9,244.04 518.54,247.33 519.07,250.64 519.47,253.97 519.77,257.3 519.94,260.65" fill="#ffd98a" opacity="0.22"/><circle cx="424" cy="264" r="5" fill="#d9822b" stroke="#a8541e" stroke-width="1.5"/></g><g id="cd-fairwater-manor-gatelamp"><polygon points="440,328 440,328.56 440,329.12 440,329.68 440,330.25 440,330.82 440,331.4 440,331.99 440,332.59 440,333.2 440,333.82 440,334.46 440,335.12 440,335.8 440,336.51 440,337.24 440,338 440,338.79 440,339.62 440,340.5 440,341.43 440,342.41 440,343.45 439.45,344 438.41,344 437.43,344 436.5,344 435.62,344 434.79,344 434,344 433.24,344 432.51,344 431.8,344 431.12,344 430.46,344 429.82,344 429.2,344 428.59,344 427.99,344 427.4,344 426.82,344 426.25,344 425.68,344 425.12,344 424.56,344 424,344 423.44,344 422.88,344 422.32,344 421.75,344 421.18,344 420.6,344 420.01,344 419.41,344 418.8,344 418.18,344 417.54,344 416.88,344 416.2,344 415.49,344 414.76,344 414,344 413.21,344 412.38,344 411.5,344 410.57,344 409.59,344 408.55,344 407.43,344 406.23,344 404.93,344 403.52,344 401.98,344 400.28,344 398.39,344 396.29,344 393.91,344 391.2,344 388.06,344 384.4,344 380.04,344 374.76,344 368.2,344 359.83,344 348.73,344 344,342.11 344,339.24 344,336.41 344,333.59 344,330.79 344,328 344,325.21 344,322.41 344,319.59 344,316.76 344,313.89 344,311 344,308.05 344,305.06 344,302.01 344,298.88 344,295.68 344,292.38 344,288.98 344,285.46 344,281.81 347.18,280 352.84,280 357.93,280 362.56,280 366.8,280 370.69,280 374.29,280 377.65,280 380.78,280 383.72,280 386.5,280 389.13,280 391.62,280 394.01,280 396.29,280 398.48,280 400.59,280 402.63,280 404.61,280 406.53,280 408.4,280 410.24,280 412.03,280 413.8,280 415.54,280 417.25,280 418.95,280 420.64,280 422.32,280 424,280 425.68,280 427.36,280 429.05,280 430.75,280 432.46,280 434.2,280 435.97,280 437.76,280 439.6,280 440,284.04 440,288.4 440,292.06 440,295.2 440,297.91 440,300.29 440,302.39 440,304.28 440,305.98 440,307.52 440,308.93 440,310.23 440,311.43 440,312.55 440,313.59 440,314.57 440,315.5 440,316.38 440,317.21 440,318 440,318.76 440,319.49 440,320.2 440,320.88 440,321.54 440,322.18 440,322.8 440,323.41 440,324.01 440,324.6 440,325.18 440,325.75 440,326.32 440,326.88 440,327.44" fill="#ffd98a" opacity="0.22"/><circle cx="424" cy="328" r="5" fill="#d9822b" stroke="#a8541e" stroke-width="1.5"/></g><g><rect x="450" y="226" width="12" height="12" fill="#8f8474" stroke="#3d3629" stroke-width="1"/></g><g><rect x="290" y="226" width="12" height="12" fill="#8f8474" stroke="#3d3629" stroke-width="1"/></g><g><rect x="226" y="162" width="12" height="12" fill="#8f8474" stroke="#3d3629" stroke-width="1"/></g><g id="cd-fairwater-manor-strongbox"><rect x="546" y="130" width="12" height="12" fill="#8f8474" stroke="#3d3629" stroke-width="1"/></g><g><rect x="130" y="98" width="12" height="12" fill="#8f8474" stroke="#3d3629" stroke-width="1"/></g><g><rect x="130" y="226" width="12" height="12" fill="#8f8474" stroke="#3d3629" stroke-width="1"/></g><g id="cd-fairwater-manor-g1"><circle cx="392" cy="296" r="12.16" fill="#b5504a" opacity="0.9" stroke="#3d3629" stroke-width="1.5"/></g><g><circle cx="392" cy="392" r="12.16" fill="#b5504a" opacity="0.9" stroke="#3d3629" stroke-width="1.5"/></g><g id="cd-fairwater-manor-g3"><circle cx="136" cy="264" r="12.16" fill="#b5504a" opacity="0.9" stroke="#3d3629" stroke-width="1.5"/></g><g id="cd-fairwater-manor-lord-fairwater"><circle cx="264" cy="136" r="12.16" fill="#8a6ab5" opacity="0.9" stroke="#3d3629" stroke-width="1.5"/></g><text x="360" y="51" font-size="10" fill="#3d3629" text-anchor="middle" font-family="sans-serif">The Courtyard</text><text x="264" y="83" font-size="10" fill="#3d3629" text-anchor="middle" font-family="sans-serif">The Great Hall</text><text x="520" y="83" font-size="10" fill="#3d3629" text-anchor="middle" font-family="sans-serif">East Wing</text><text x="392" y="275" font-size="10" fill="#3d3629" text-anchor="middle" font-family="sans-serif">The Gatehouse</text><text x="456" y="252" font-size="8" fill="#3d3629" text-anchor="middle" font-family="sans-serif">well</text><text x="296" y="252" font-size="8" fill="#3d3629" text-anchor="middle" font-family="sans-serif">statue</text><text x="232" y="188" font-size="8" fill="#3d3629" text-anchor="middle" font-family="sans-serif">table</text><text x="552" y="156" font-size="8" fill="#3d3629" text-anchor="middle" font-family="sans-serif">chest</text><text x="136" y="124" font-size="8" fill="#3d3629" text-anchor="middle" font-family="sans-serif">crates</text><text x="136" y="252" font-size="8" fill="#3d3629" text-anchor="middle" font-family="sans-serif">barrel</text><text x="392" y="318.16" font-size="9" fill="#3d3629" text-anchor="middle" font-family="sans-serif">g1</text><text x="392" y="414.16" font-size="9" fill="#3d3629" text-anchor="middle" font-family="sans-serif">g2</text><text x="136" y="286.16" font-size="9" fill="#3d3629" text-anchor="middle" font-family="sans-serif">g3</text><text x="264" y="158.16" font-size="9" fill="#3d3629" text-anchor="middle" font-family="sans-serif">Lord Fairwater</text><text x="392" y="548" font-size="9" fill="#4a9a6a" text-anchor="middle" font-family="sans-serif">start</text><text x="14" y="22" font-size="16" font-weight="bold" fill="#3d3629" font-family="sans-serif">Fairwater Manor</text></svg>